<svg width="1095" height="1049" viewBox="0 0 1095 1049" fill="none" xmlns="http://www.w3.org/2000/svg">
<line y1="-0.5" x2="63.9904" y2="-0.5" transform="matrix(0.932079 0.362255 -0.405918 0.913909 392.715 510.374)" stroke="white" stroke-opacity="0.5"/>
<line y1="-0.5" x2="63.9904" y2="-0.5" transform="matrix(0.932079 0.362255 -0.405918 0.913909 430.552 407.728)" stroke="white" stroke-opacity="0.5"/>
<line x1="382.694" y1="449.577" x2="393.208" y2="510.289" stroke="white" stroke-opacity="0.5"/>
<line x1="490.681" y1="430.876" x2="501.195" y2="491.588" stroke="white" stroke-opacity="0.5"/>
<line y1="-0.5" x2="63.9906" y2="-0.5" transform="matrix(0.756025 -0.654543 0.689553 0.724235 452.342 533.554)" stroke="white" stroke-opacity="0.5"/>
<line y1="-0.5" x2="63.9906" y2="-0.5" transform="matrix(0.756025 -0.654543 0.689553 0.724235 382.192 449.609)" stroke="white" stroke-opacity="0.5"/>
<line y1="-0.5" x2="63.9904" y2="-0.5" transform="matrix(0.932079 0.362255 -0.405918 0.913909 608.727 472.966)" stroke="white" stroke-opacity="0.5"/>
<line y1="-0.5" x2="63.9904" y2="-0.5" transform="matrix(0.932079 0.362255 -0.405918 0.913909 646.563 370.32)" stroke="white" stroke-opacity="0.5"/>
<line x1="598.706" y1="412.169" x2="609.219" y2="472.881" stroke="white" stroke-opacity="0.5"/>
<line x1="706.693" y1="393.468" x2="717.207" y2="454.18" stroke="white" stroke-opacity="0.5"/>
<line y1="-0.5" x2="63.9906" y2="-0.5" transform="matrix(0.756025 -0.654543 0.689553 0.724235 668.354 496.146)" stroke="white" stroke-opacity="0.5"/>
<line y1="-0.5" x2="63.9906" y2="-0.5" transform="matrix(0.756025 -0.654543 0.689553 0.724235 598.204 412.201)" stroke="white" stroke-opacity="0.5"/>
<line y1="-0.5" x2="63.9904" y2="-0.5" transform="matrix(0.932079 0.362255 -0.405918 0.913909 538.334 389.201)" stroke="white" stroke-opacity="0.5"/>
<line y1="-0.5" x2="63.9904" y2="-0.5" transform="matrix(0.932079 0.362255 -0.405918 0.913909 576.171 286.555)" stroke="white" stroke-opacity="0.5"/>
<line x1="528.313" y1="328.404" x2="538.827" y2="389.116" stroke="white" stroke-opacity="0.5"/>
<line x1="636.3" y1="309.703" x2="646.814" y2="370.415" stroke="white" stroke-opacity="0.5"/>
<line y1="-0.5" x2="63.9906" y2="-0.5" transform="matrix(0.756025 -0.654543 0.689553 0.724235 597.961 412.381)" stroke="white" stroke-opacity="0.5"/>
<line y1="-0.5" x2="63.9906" y2="-0.5" transform="matrix(0.756025 -0.654543 0.689553 0.724235 527.812 328.436)" stroke="white" stroke-opacity="0.5"/>
<line y1="-0.5" x2="63.9904" y2="-0.5" transform="matrix(0.932079 0.362255 -0.405918 0.913909 430.841 407.816)" stroke="white" stroke-opacity="0.5"/>
<line y1="-0.5" x2="63.9904" y2="-0.5" transform="matrix(0.932079 0.362255 -0.405918 0.913909 468.678 305.17)" stroke="white" stroke-opacity="0.5"/>
<line x1="420.82" y1="347.019" x2="431.334" y2="407.731" stroke="white" stroke-opacity="0.5"/>
<line x1="528.807" y1="328.318" x2="539.321" y2="389.03" stroke="white" stroke-opacity="0.5"/>
<line y1="-0.5" x2="63.9906" y2="-0.5" transform="matrix(0.756025 -0.654543 0.689553 0.724235 490.468 430.997)" stroke="white" stroke-opacity="0.5"/>
<line y1="-0.5" x2="63.9906" y2="-0.5" transform="matrix(0.756025 -0.654543 0.689553 0.724235 420.318 347.051)" stroke="white" stroke-opacity="0.5"/>
<line y1="-0.5" x2="63.9904" y2="-0.5" transform="matrix(0.932079 0.362255 -0.405918 0.913909 500.721 491.669)" stroke="white" stroke-opacity="0.5"/>
<line y1="-0.5" x2="63.9904" y2="-0.5" transform="matrix(0.932079 0.362255 -0.405918 0.913909 538.558 389.023)" stroke="white" stroke-opacity="0.5"/>
<line x1="490.7" y1="430.873" x2="501.214" y2="491.584" stroke="white" stroke-opacity="0.5"/>
<line x1="598.687" y1="412.172" x2="609.201" y2="472.884" stroke="white" stroke-opacity="0.5"/>
<line y1="-0.5" x2="63.9906" y2="-0.5" transform="matrix(0.756025 -0.654543 0.689553 0.724235 560.348 514.85)" stroke="white" stroke-opacity="0.5"/>
<line y1="-0.5" x2="63.9906" y2="-0.5" transform="matrix(0.756025 -0.654543 0.689553 0.724235 490.198 430.905)" stroke="white" stroke-opacity="0.5"/>
<circle cx="490.361" cy="430.322" r="1.81823" transform="rotate(-9.82479 490.361 430.322)" fill="white" fill-opacity="0.5"/>
<circle cx="597.943" cy="412.219" r="1.81823" transform="rotate(-9.82479 597.943 412.219)" fill="white" fill-opacity="0.5"/>
<circle cx="608.491" cy="473.132" r="1.81823" transform="rotate(-9.82479 608.491 473.132)" fill="white" fill-opacity="0.5"/>
<circle cx="560.24" cy="514.176" r="1.81823" transform="rotate(-9.82479 560.24 514.176)" fill="white" fill-opacity="0.5"/>
<circle cx="500.998" cy="491.747" r="1.81823" transform="rotate(-9.82479 500.998 491.747)" fill="white" fill-opacity="0.5"/>
<circle cx="538.612" cy="389.278" r="1.81823" transform="rotate(-9.82479 538.612 389.278)" fill="white" fill-opacity="0.5"/>
<line y1="-0.5" x2="63.9904" y2="-0.5" transform="matrix(0.932079 0.362255 -0.405918 0.913909 138.94 651.028)" stroke="white" stroke-opacity="0.5"/>
<line y1="-0.5" x2="63.9904" y2="-0.5" transform="matrix(0.932079 0.362255 -0.405918 0.913909 176.777 548.382)" stroke="white" stroke-opacity="0.5"/>
<line x1="128.919" y1="590.231" x2="139.433" y2="650.943" stroke="white" stroke-opacity="0.5"/>
<line x1="236.907" y1="571.53" x2="247.421" y2="632.242" stroke="white" stroke-opacity="0.5"/>
<line y1="-0.5" x2="63.9906" y2="-0.5" transform="matrix(0.756025 -0.654543 0.689553 0.724235 198.567 674.208)" stroke="white" stroke-opacity="0.5"/>
<line y1="-0.5" x2="63.9906" y2="-0.5" transform="matrix(0.756025 -0.654543 0.689553 0.724235 128.418 590.264)" stroke="white" stroke-opacity="0.5"/>
<line y1="-0.5" x2="63.9904" y2="-0.5" transform="matrix(0.932079 0.362255 -0.405918 0.913909 354.952 613.62)" stroke="white" stroke-opacity="0.5"/>
<line y1="-0.5" x2="63.9904" y2="-0.5" transform="matrix(0.932079 0.362255 -0.405918 0.913909 392.789 510.974)" stroke="white" stroke-opacity="0.5"/>
<line x1="344.931" y1="552.823" x2="355.445" y2="613.535" stroke="white" stroke-opacity="0.5"/>
<line x1="452.918" y1="534.123" x2="463.432" y2="594.834" stroke="white" stroke-opacity="0.5"/>
<line y1="-0.5" x2="63.9906" y2="-0.5" transform="matrix(0.756025 -0.654543 0.689553 0.724235 414.579 636.801)" stroke="white" stroke-opacity="0.5"/>
<line y1="-0.5" x2="63.9906" y2="-0.5" transform="matrix(0.756025 -0.654543 0.689553 0.724235 344.43 552.855)" stroke="white" stroke-opacity="0.5"/>
<line y1="-0.5" x2="63.9904" y2="-0.5" transform="matrix(0.932079 0.362255 -0.405918 0.913909 284.56 529.855)" stroke="white" stroke-opacity="0.5"/>
<line y1="-0.5" x2="63.9904" y2="-0.5" transform="matrix(0.932079 0.362255 -0.405918 0.913909 322.396 427.209)" stroke="white" stroke-opacity="0.5"/>
<line x1="274.539" y1="469.058" x2="285.052" y2="529.77" stroke="white" stroke-opacity="0.5"/>
<line x1="382.526" y1="450.358" x2="393.04" y2="511.069" stroke="white" stroke-opacity="0.5"/>
<line y1="-0.5" x2="63.9906" y2="-0.5" transform="matrix(0.756025 -0.654543 0.689553 0.724235 344.187 553.036)" stroke="white" stroke-opacity="0.5"/>
<line y1="-0.5" x2="63.9906" y2="-0.5" transform="matrix(0.756025 -0.654543 0.689553 0.724235 274.037 469.09)" stroke="white" stroke-opacity="0.5"/>
<line y1="-0.5" x2="63.9904" y2="-0.5" transform="matrix(0.932079 0.362255 -0.405918 0.913909 177.066 548.47)" stroke="white" stroke-opacity="0.5"/>
<line y1="-0.5" x2="63.9904" y2="-0.5" transform="matrix(0.932079 0.362255 -0.405918 0.913909 214.903 445.824)" stroke="white" stroke-opacity="0.5"/>
<line x1="167.045" y1="487.673" x2="177.559" y2="548.385" stroke="white" stroke-opacity="0.5"/>
<line x1="275.033" y1="468.973" x2="285.547" y2="529.685" stroke="white" stroke-opacity="0.5"/>
<line y1="-0.5" x2="63.9906" y2="-0.5" transform="matrix(0.756025 -0.654543 0.689553 0.724235 236.693 571.651)" stroke="white" stroke-opacity="0.5"/>
<line y1="-0.5" x2="63.9906" y2="-0.5" transform="matrix(0.756025 -0.654543 0.689553 0.724235 166.544 487.706)" stroke="white" stroke-opacity="0.5"/>
<line y1="-0.5" x2="63.9904" y2="-0.5" transform="matrix(0.932079 0.362255 -0.405918 0.913909 246.946 632.324)" stroke="white" stroke-opacity="0.5"/>
<line y1="-0.5" x2="63.9904" y2="-0.5" transform="matrix(0.932079 0.362255 -0.405918 0.913909 284.783 529.678)" stroke="white" stroke-opacity="0.5"/>
<line x1="236.925" y1="571.527" x2="247.439" y2="632.239" stroke="white" stroke-opacity="0.5"/>
<line x1="344.913" y1="552.826" x2="355.426" y2="613.538" stroke="white" stroke-opacity="0.5"/>
<line y1="-0.5" x2="63.9906" y2="-0.5" transform="matrix(0.756025 -0.654543 0.689553 0.724235 306.573 655.504)" stroke="white" stroke-opacity="0.5"/>
<line y1="-0.5" x2="63.9906" y2="-0.5" transform="matrix(0.756025 -0.654543 0.689553 0.724235 236.424 571.559)" stroke="white" stroke-opacity="0.5"/>
<circle cx="236.586" cy="570.976" r="1.81823" transform="rotate(-9.82479 236.586 570.976)" fill="white" fill-opacity="0.5"/>
<circle cx="344.168" cy="552.873" r="1.81823" transform="rotate(-9.82479 344.168 552.873)" fill="white" fill-opacity="0.5"/>
<circle cx="354.717" cy="613.786" r="1.81823" transform="rotate(-9.82479 354.717 613.786)" fill="white" fill-opacity="0.5"/>
<circle cx="306.466" cy="654.83" r="1.81823" transform="rotate(-9.82479 306.466 654.83)" fill="white" fill-opacity="0.5"/>
<circle cx="247.224" cy="632.401" r="1.81823" transform="rotate(-9.82479 247.224 632.401)" fill="white" fill-opacity="0.5"/>
<circle cx="284.837" cy="529.932" r="1.81823" transform="rotate(-9.82479 284.837 529.932)" fill="white" fill-opacity="0.5"/>
<line y1="-0.5" x2="63.9904" y2="-0.5" transform="matrix(0.932079 0.362255 -0.405918 0.913909 252.908 342.391)" stroke="white" stroke-opacity="0.5"/>
<line y1="-0.5" x2="63.9904" y2="-0.5" transform="matrix(0.932079 0.362255 -0.405918 0.913909 290.745 239.746)" stroke="white" stroke-opacity="0.5"/>
<line x1="242.887" y1="281.594" x2="253.401" y2="342.306" stroke="white" stroke-opacity="0.5"/>
<line x1="350.875" y1="262.894" x2="361.388" y2="323.605" stroke="white" stroke-opacity="0.5"/>
<line y1="-0.5" x2="63.9906" y2="-0.5" transform="matrix(0.756025 -0.654543 0.689553 0.724235 312.535 365.572)" stroke="white" stroke-opacity="0.5"/>
<line y1="-0.5" x2="63.9906" y2="-0.5" transform="matrix(0.756025 -0.654543 0.689553 0.724235 242.386 281.627)" stroke="white" stroke-opacity="0.5"/>
<line y1="-0.5" x2="63.9904" y2="-0.5" transform="matrix(0.932079 0.362255 -0.405918 0.913909 468.92 304.983)" stroke="white" stroke-opacity="0.5"/>
<line y1="-0.5" x2="63.9904" y2="-0.5" transform="matrix(0.932079 0.362255 -0.405918 0.913909 506.757 202.337)" stroke="white" stroke-opacity="0.5"/>
<line x1="458.899" y1="244.187" x2="469.413" y2="304.898" stroke="white" stroke-opacity="0.5"/>
<line x1="566.886" y1="225.486" x2="577.4" y2="286.198" stroke="white" stroke-opacity="0.5"/>
<line y1="-0.5" x2="63.9906" y2="-0.5" transform="matrix(0.756025 -0.654543 0.689553 0.724235 528.547 328.164)" stroke="white" stroke-opacity="0.5"/>
<line y1="-0.5" x2="63.9906" y2="-0.5" transform="matrix(0.756025 -0.654543 0.689553 0.724235 458.397 244.219)" stroke="white" stroke-opacity="0.5"/>
<line y1="-0.5" x2="63.9904" y2="-0.5" transform="matrix(0.932079 0.362255 -0.405918 0.913909 398.527 221.218)" stroke="white" stroke-opacity="0.5"/>
<line y1="-0.5" x2="63.9904" y2="-0.5" transform="matrix(0.932079 0.362255 -0.405918 0.913909 436.364 118.572)" stroke="white" stroke-opacity="0.5"/>
<line x1="388.506" y1="160.422" x2="399.02" y2="221.133" stroke="white" stroke-opacity="0.5"/>
<line x1="496.494" y1="141.721" x2="507.007" y2="202.433" stroke="white" stroke-opacity="0.5"/>
<line y1="-0.5" x2="63.9906" y2="-0.5" transform="matrix(0.756025 -0.654543 0.689553 0.724235 458.154 244.399)" stroke="white" stroke-opacity="0.5"/>
<line y1="-0.5" x2="63.9906" y2="-0.5" transform="matrix(0.756025 -0.654543 0.689553 0.724235 388.005 160.454)" stroke="white" stroke-opacity="0.5"/>
<line y1="-0.5" x2="63.9904" y2="-0.5" transform="matrix(0.932079 0.362255 -0.405918 0.913909 291.034 239.833)" stroke="white" stroke-opacity="0.5"/>
<line y1="-0.5" x2="63.9904" y2="-0.5" transform="matrix(0.932079 0.362255 -0.405918 0.913909 328.871 137.188)" stroke="white" stroke-opacity="0.5"/>
<line x1="281.013" y1="179.037" x2="291.527" y2="239.749" stroke="white" stroke-opacity="0.5"/>
<line x1="389" y1="160.336" x2="399.514" y2="221.048" stroke="white" stroke-opacity="0.5"/>
<line y1="-0.5" x2="63.9906" y2="-0.5" transform="matrix(0.756025 -0.654543 0.689553 0.724235 350.661 263.014)" stroke="white" stroke-opacity="0.5"/>
<line y1="-0.5" x2="63.9906" y2="-0.5" transform="matrix(0.756025 -0.654543 0.689553 0.724235 280.512 179.069)" stroke="white" stroke-opacity="0.5"/>
<line y1="-0.5" x2="63.9904" y2="-0.5" transform="matrix(0.932079 0.362255 -0.405918 0.913909 360.914 323.687)" stroke="white" stroke-opacity="0.5"/>
<line y1="-0.5" x2="63.9904" y2="-0.5" transform="matrix(0.932079 0.362255 -0.405918 0.913909 398.751 221.041)" stroke="white" stroke-opacity="0.5"/>
<line x1="350.893" y1="262.89" x2="361.407" y2="323.602" stroke="white" stroke-opacity="0.5"/>
<line x1="458.88" y1="244.19" x2="469.394" y2="304.901" stroke="white" stroke-opacity="0.5"/>
<line y1="-0.5" x2="63.9906" y2="-0.5" transform="matrix(0.756025 -0.654543 0.689553 0.724235 420.541 346.868)" stroke="white" stroke-opacity="0.5"/>
<line y1="-0.5" x2="63.9906" y2="-0.5" transform="matrix(0.756025 -0.654543 0.689553 0.724235 350.392 262.922)" stroke="white" stroke-opacity="0.5"/>
<circle cx="350.554" cy="262.34" r="1.81823" transform="rotate(-9.82479 350.554 262.34)" fill="white" fill-opacity="0.5"/>
<circle cx="458.136" cy="244.236" r="1.81823" transform="rotate(-9.82479 458.136 244.236)" fill="white" fill-opacity="0.5"/>
<circle cx="468.685" cy="305.149" r="1.81823" transform="rotate(-9.82479 468.685 305.149)" fill="white" fill-opacity="0.5"/>
<circle cx="420.434" cy="346.193" r="1.81823" transform="rotate(-9.82479 420.434 346.193)" fill="white" fill-opacity="0.5"/>
<circle cx="361.192" cy="323.764" r="1.81823" transform="rotate(-9.82479 361.192 323.764)" fill="white" fill-opacity="0.5"/>
<circle cx="398.805" cy="221.296" r="1.81823" transform="rotate(-9.82479 398.805 221.296)" fill="white" fill-opacity="0.5"/>
<line y1="-0.5" x2="63.9904" y2="-0.5" transform="matrix(0.932079 0.362255 -0.405918 0.913909 457.637 883.1)" stroke="white" stroke-opacity="0.5"/>
<line y1="-0.5" x2="63.9904" y2="-0.5" transform="matrix(0.932079 0.362255 -0.405918 0.913909 495.474 780.455)" stroke="white" stroke-opacity="0.5"/>
<line x1="447.616" y1="822.303" x2="458.13" y2="883.015" stroke="white" stroke-opacity="0.5"/>
<line x1="555.603" y1="803.603" x2="566.117" y2="864.314" stroke="white" stroke-opacity="0.5"/>
<line y1="-0.5" x2="63.9906" y2="-0.5" transform="matrix(0.756025 -0.654543 0.689553 0.724235 517.264 906.281)" stroke="white" stroke-opacity="0.5"/>
<line y1="-0.5" x2="63.9906" y2="-0.5" transform="matrix(0.756025 -0.654543 0.689553 0.724235 447.114 822.336)" stroke="white" stroke-opacity="0.5"/>
<line y1="-0.5" x2="63.9904" y2="-0.5" transform="matrix(0.932079 0.362255 -0.405918 0.913909 673.648 845.692)" stroke="white" stroke-opacity="0.5"/>
<line y1="-0.5" x2="63.9904" y2="-0.5" transform="matrix(0.932079 0.362255 -0.405918 0.913909 711.485 743.046)" stroke="white" stroke-opacity="0.5"/>
<line x1="663.627" y1="784.896" x2="674.141" y2="845.607" stroke="white" stroke-opacity="0.5"/>
<line x1="771.615" y1="766.195" x2="782.129" y2="826.907" stroke="white" stroke-opacity="0.5"/>
<line y1="-0.5" x2="63.9906" y2="-0.5" transform="matrix(0.756025 -0.654543 0.689553 0.724235 733.275 868.873)" stroke="white" stroke-opacity="0.5"/>
<line y1="-0.5" x2="63.9906" y2="-0.5" transform="matrix(0.756025 -0.654543 0.689553 0.724235 663.126 784.928)" stroke="white" stroke-opacity="0.5"/>
<line y1="-0.5" x2="63.9904" y2="-0.5" transform="matrix(0.932079 0.362255 -0.405918 0.913909 603.256 761.927)" stroke="white" stroke-opacity="0.5"/>
<line y1="-0.5" x2="63.9904" y2="-0.5" transform="matrix(0.932079 0.362255 -0.405918 0.913909 641.093 659.281)" stroke="white" stroke-opacity="0.5"/>
<line x1="593.235" y1="701.131" x2="603.749" y2="761.842" stroke="white" stroke-opacity="0.5"/>
<line x1="701.222" y1="682.43" x2="711.736" y2="743.142" stroke="white" stroke-opacity="0.5"/>
<line y1="-0.5" x2="63.9906" y2="-0.5" transform="matrix(0.756025 -0.654543 0.689553 0.724235 662.883 785.108)" stroke="white" stroke-opacity="0.5"/>
<line y1="-0.5" x2="63.9906" y2="-0.5" transform="matrix(0.756025 -0.654543 0.689553 0.724235 592.733 701.163)" stroke="white" stroke-opacity="0.5"/>
<line y1="-0.5" x2="63.9904" y2="-0.5" transform="matrix(0.932079 0.362255 -0.405918 0.913909 495.763 780.542)" stroke="white" stroke-opacity="0.5"/>
<line y1="-0.5" x2="63.9904" y2="-0.5" transform="matrix(0.932079 0.362255 -0.405918 0.913909 533.6 677.896)" stroke="white" stroke-opacity="0.5"/>
<line x1="485.742" y1="719.746" x2="496.255" y2="780.458" stroke="white" stroke-opacity="0.5"/>
<line x1="593.729" y1="701.045" x2="604.243" y2="761.757" stroke="white" stroke-opacity="0.5"/>
<line y1="-0.5" x2="63.9906" y2="-0.5" transform="matrix(0.756025 -0.654543 0.689553 0.724235 555.39 803.723)" stroke="white" stroke-opacity="0.5"/>
<line y1="-0.5" x2="63.9906" y2="-0.5" transform="matrix(0.756025 -0.654543 0.689553 0.724235 485.24 719.778)" stroke="white" stroke-opacity="0.5"/>
<line y1="-0.5" x2="63.9904" y2="-0.5" transform="matrix(0.932079 0.362255 -0.405918 0.913909 565.643 864.396)" stroke="white" stroke-opacity="0.5"/>
<line y1="-0.5" x2="63.9904" y2="-0.5" transform="matrix(0.932079 0.362255 -0.405918 0.913909 603.479 761.75)" stroke="white" stroke-opacity="0.5"/>
<line x1="555.622" y1="803.599" x2="566.135" y2="864.311" stroke="white" stroke-opacity="0.5"/>
<line x1="663.609" y1="784.899" x2="674.123" y2="845.61" stroke="white" stroke-opacity="0.5"/>
<line y1="-0.5" x2="63.9906" y2="-0.5" transform="matrix(0.756025 -0.654543 0.689553 0.724235 625.27 887.577)" stroke="white" stroke-opacity="0.5"/>
<line y1="-0.5" x2="63.9906" y2="-0.5" transform="matrix(0.756025 -0.654543 0.689553 0.724235 555.12 803.631)" stroke="white" stroke-opacity="0.5"/>
<circle cx="555.282" cy="803.049" r="1.81823" transform="rotate(-9.82479 555.282 803.049)" fill="white" fill-opacity="0.5"/>
<circle cx="662.865" cy="784.945" r="1.81823" transform="rotate(-9.82479 662.865 784.945)" fill="white" fill-opacity="0.5"/>
<circle cx="673.413" cy="845.858" r="1.81823" transform="rotate(-9.82479 673.413 845.858)" fill="white" fill-opacity="0.5"/>
<circle cx="625.162" cy="886.902" r="1.81823" transform="rotate(-9.82479 625.162 886.902)" fill="white" fill-opacity="0.5"/>
<circle cx="565.92" cy="864.474" r="1.81823" transform="rotate(-9.82479 565.92 864.474)" fill="white" fill-opacity="0.5"/>
<circle cx="603.533" cy="762.005" r="1.81823" transform="rotate(-9.82479 603.533 762.005)" fill="white" fill-opacity="0.5"/>
<line y1="-0.5" x2="63.9904" y2="-0.5" transform="matrix(0.932079 0.362255 -0.405918 0.913909 678.599 557.019)" stroke="white" stroke-opacity="0.5"/>
<line y1="-0.5" x2="63.9904" y2="-0.5" transform="matrix(0.932079 0.362255 -0.405918 0.913909 716.436 454.373)" stroke="white" stroke-opacity="0.5"/>
<line x1="668.578" y1="496.222" x2="679.091" y2="556.934" stroke="white" stroke-opacity="0.5"/>
<line x1="776.565" y1="477.521" x2="787.079" y2="538.233" stroke="white" stroke-opacity="0.5"/>
<line y1="-0.5" x2="63.9906" y2="-0.5" transform="matrix(0.756025 -0.654543 0.689553 0.724235 738.226 580.199)" stroke="white" stroke-opacity="0.5"/>
<line y1="-0.5" x2="63.9906" y2="-0.5" transform="matrix(0.756025 -0.654543 0.689553 0.724235 668.076 496.254)" stroke="white" stroke-opacity="0.5"/>
<line y1="-0.5" x2="63.9904" y2="-0.5" transform="matrix(0.932079 0.362255 -0.405918 0.913909 894.61 519.611)" stroke="white" stroke-opacity="0.5"/>
<line y1="-0.5" x2="63.9904" y2="-0.5" transform="matrix(0.932079 0.362255 -0.405918 0.913909 932.447 416.965)" stroke="white" stroke-opacity="0.5"/>
<line x1="884.589" y1="458.814" x2="895.103" y2="519.526" stroke="white" stroke-opacity="0.5"/>
<line x1="992.577" y1="440.113" x2="1003.09" y2="500.825" stroke="white" stroke-opacity="0.5"/>
<line y1="-0.5" x2="63.9906" y2="-0.5" transform="matrix(0.756025 -0.654543 0.689553 0.724235 954.237 542.792)" stroke="white" stroke-opacity="0.5"/>
<line y1="-0.5" x2="63.9906" y2="-0.5" transform="matrix(0.756025 -0.654543 0.689553 0.724235 884.088 458.846)" stroke="white" stroke-opacity="0.5"/>
<line y1="-0.5" x2="63.9904" y2="-0.5" transform="matrix(0.932079 0.362255 -0.405918 0.913909 824.218 435.846)" stroke="white" stroke-opacity="0.5"/>
<line y1="-0.5" x2="63.9904" y2="-0.5" transform="matrix(0.932079 0.362255 -0.405918 0.913909 862.055 333.2)" stroke="white" stroke-opacity="0.5"/>
<line x1="814.197" y1="375.049" x2="824.711" y2="435.761" stroke="white" stroke-opacity="0.5"/>
<line x1="922.184" y1="356.348" x2="932.698" y2="417.06" stroke="white" stroke-opacity="0.5"/>
<line y1="-0.5" x2="63.9906" y2="-0.5" transform="matrix(0.756025 -0.654543 0.689553 0.724235 883.845 459.026)" stroke="white" stroke-opacity="0.5"/>
<line y1="-0.5" x2="63.9906" y2="-0.5" transform="matrix(0.756025 -0.654543 0.689553 0.724235 813.695 375.081)" stroke="white" stroke-opacity="0.5"/>
<line y1="-0.5" x2="63.9904" y2="-0.5" transform="matrix(0.932079 0.362255 -0.405918 0.913909 716.725 454.461)" stroke="white" stroke-opacity="0.5"/>
<line y1="-0.5" x2="63.9904" y2="-0.5" transform="matrix(0.932079 0.362255 -0.405918 0.913909 754.562 351.815)" stroke="white" stroke-opacity="0.5"/>
<line x1="706.704" y1="393.664" x2="717.217" y2="454.376" stroke="white" stroke-opacity="0.5"/>
<line x1="814.691" y1="374.964" x2="825.205" y2="435.675" stroke="white" stroke-opacity="0.5"/>
<line y1="-0.5" x2="63.9906" y2="-0.5" transform="matrix(0.756025 -0.654543 0.689553 0.724235 776.352 477.642)" stroke="white" stroke-opacity="0.5"/>
<line y1="-0.5" x2="63.9906" y2="-0.5" transform="matrix(0.756025 -0.654543 0.689553 0.724235 706.202 393.696)" stroke="white" stroke-opacity="0.5"/>
<line y1="-0.5" x2="63.9904" y2="-0.5" transform="matrix(0.932079 0.362255 -0.405918 0.913909 786.604 538.314)" stroke="white" stroke-opacity="0.5"/>
<line y1="-0.5" x2="63.9904" y2="-0.5" transform="matrix(0.932079 0.362255 -0.405918 0.913909 824.441 435.668)" stroke="white" stroke-opacity="0.5"/>
<line x1="776.583" y1="477.518" x2="787.097" y2="538.229" stroke="white" stroke-opacity="0.5"/>
<line x1="884.571" y1="458.817" x2="895.085" y2="519.529" stroke="white" stroke-opacity="0.5"/>
<line y1="-0.5" x2="63.9906" y2="-0.5" transform="matrix(0.756025 -0.654543 0.689553 0.724235 846.231 561.495)" stroke="white" stroke-opacity="0.5"/>
<line y1="-0.5" x2="63.9906" y2="-0.5" transform="matrix(0.756025 -0.654543 0.689553 0.724235 776.082 477.55)" stroke="white" stroke-opacity="0.5"/>
<circle cx="776.244" cy="476.967" r="1.81823" transform="rotate(-9.82479 776.244 476.967)" fill="white" fill-opacity="0.5"/>
<circle cx="883.826" cy="458.864" r="1.81823" transform="rotate(-9.82479 883.826 458.864)" fill="white" fill-opacity="0.5"/>
<circle cx="894.375" cy="519.777" r="1.81823" transform="rotate(-9.82479 894.375 519.777)" fill="white" fill-opacity="0.5"/>
<circle cx="846.124" cy="560.821" r="1.81823" transform="rotate(-9.82479 846.124 560.821)" fill="white" fill-opacity="0.5"/>
<circle cx="786.882" cy="538.392" r="1.81823" transform="rotate(-9.82479 786.882 538.392)" fill="white" fill-opacity="0.5"/>
<circle cx="824.495" cy="435.923" r="1.81823" transform="rotate(-9.82479 824.495 435.923)" fill="white" fill-opacity="0.5"/>
<line y1="-0.5" x2="63.9904" y2="-0.5" transform="matrix(0.932079 0.362255 -0.405918 0.913909 425.176 696.737)" stroke="white" stroke-opacity="0.5"/>
<line y1="-0.5" x2="63.9904" y2="-0.5" transform="matrix(0.932079 0.362255 -0.405918 0.913909 463.013 594.091)" stroke="white" stroke-opacity="0.5"/>
<line x1="415.155" y1="635.94" x2="425.669" y2="696.652" stroke="white" stroke-opacity="0.5"/>
<line x1="523.142" y1="617.239" x2="533.656" y2="677.951" stroke="white" stroke-opacity="0.5"/>
<line y1="-0.5" x2="63.9906" y2="-0.5" transform="matrix(0.756025 -0.654543 0.689553 0.724235 484.803 719.917)" stroke="white" stroke-opacity="0.5"/>
<line y1="-0.5" x2="63.9906" y2="-0.5" transform="matrix(0.756025 -0.654543 0.689553 0.724235 414.653 635.973)" stroke="white" stroke-opacity="0.5"/>
<line y1="-0.5" x2="63.9904" y2="-0.5" transform="matrix(0.932079 0.362255 -0.405918 0.913909 641.188 659.329)" stroke="white" stroke-opacity="0.5"/>
<line y1="-0.5" x2="63.9904" y2="-0.5" transform="matrix(0.932079 0.362255 -0.405918 0.913909 679.024 556.683)" stroke="white" stroke-opacity="0.5"/>
<line x1="631.166" y1="598.532" x2="641.68" y2="659.244" stroke="white" stroke-opacity="0.5"/>
<line x1="739.154" y1="579.832" x2="749.668" y2="640.543" stroke="white" stroke-opacity="0.5"/>
<line y1="-0.5" x2="63.9906" y2="-0.5" transform="matrix(0.756025 -0.654543 0.689553 0.724235 700.814 682.51)" stroke="white" stroke-opacity="0.5"/>
<line y1="-0.5" x2="63.9906" y2="-0.5" transform="matrix(0.756025 -0.654543 0.689553 0.724235 630.665 598.564)" stroke="white" stroke-opacity="0.5"/>
<line y1="-0.5" x2="63.9904" y2="-0.5" transform="matrix(0.932079 0.362255 -0.405918 0.913909 570.795 575.564)" stroke="white" stroke-opacity="0.5"/>
<line y1="-0.5" x2="63.9904" y2="-0.5" transform="matrix(0.932079 0.362255 -0.405918 0.913909 608.632 472.918)" stroke="white" stroke-opacity="0.5"/>
<line x1="560.774" y1="514.767" x2="571.288" y2="575.479" stroke="white" stroke-opacity="0.5"/>
<line x1="668.761" y1="496.067" x2="679.275" y2="556.778" stroke="white" stroke-opacity="0.5"/>
<line y1="-0.5" x2="63.9906" y2="-0.5" transform="matrix(0.756025 -0.654543 0.689553 0.724235 630.422 598.745)" stroke="white" stroke-opacity="0.5"/>
<line y1="-0.5" x2="63.9906" y2="-0.5" transform="matrix(0.756025 -0.654543 0.689553 0.724235 560.272 514.799)" stroke="white" stroke-opacity="0.5"/>
<line y1="-0.5" x2="63.9904" y2="-0.5" transform="matrix(0.932079 0.362255 -0.405918 0.913909 463.302 594.179)" stroke="white" stroke-opacity="0.5"/>
<line y1="-0.5" x2="63.9904" y2="-0.5" transform="matrix(0.932079 0.362255 -0.405918 0.913909 501.139 491.533)" stroke="white" stroke-opacity="0.5"/>
<line x1="453.281" y1="533.382" x2="463.795" y2="594.094" stroke="white" stroke-opacity="0.5"/>
<line x1="561.268" y1="514.682" x2="571.782" y2="575.394" stroke="white" stroke-opacity="0.5"/>
<line y1="-0.5" x2="63.9906" y2="-0.5" transform="matrix(0.756025 -0.654543 0.689553 0.724235 522.929 617.36)" stroke="white" stroke-opacity="0.5"/>
<line y1="-0.5" x2="63.9906" y2="-0.5" transform="matrix(0.756025 -0.654543 0.689553 0.724235 452.779 533.415)" stroke="white" stroke-opacity="0.5"/>
<line y1="-0.5" x2="63.9904" y2="-0.5" transform="matrix(0.932079 0.362255 -0.405918 0.913909 533.182 678.033)" stroke="white" stroke-opacity="0.5"/>
<line y1="-0.5" x2="63.9904" y2="-0.5" transform="matrix(0.932079 0.362255 -0.405918 0.913909 571.019 575.387)" stroke="white" stroke-opacity="0.5"/>
<line x1="523.161" y1="617.236" x2="533.674" y2="677.948" stroke="white" stroke-opacity="0.5"/>
<line x1="631.148" y1="598.535" x2="641.662" y2="659.247" stroke="white" stroke-opacity="0.5"/>
<line y1="-0.5" x2="63.9906" y2="-0.5" transform="matrix(0.756025 -0.654543 0.689553 0.724235 592.809 701.213)" stroke="white" stroke-opacity="0.5"/>
<line y1="-0.5" x2="63.9906" y2="-0.5" transform="matrix(0.756025 -0.654543 0.689553 0.724235 522.659 617.268)" stroke="white" stroke-opacity="0.5"/>
<circle cx="522.822" cy="616.685" r="1.81823" transform="rotate(-9.82479 522.822 616.685)" fill="white" fill-opacity="0.5"/>
<circle cx="630.404" cy="598.582" r="1.81823" transform="rotate(-9.82479 630.404 598.582)" fill="white" fill-opacity="0.5"/>
<circle cx="640.952" cy="659.495" r="1.81823" transform="rotate(-9.82479 640.952 659.495)" fill="white" fill-opacity="0.5"/>
<circle cx="592.701" cy="700.539" r="1.81823" transform="rotate(-9.82479 592.701 700.539)" fill="white" fill-opacity="0.5"/>
<circle cx="533.459" cy="678.11" r="1.81823" transform="rotate(-9.82479 533.459 678.11)" fill="white" fill-opacity="0.5"/>
<circle cx="571.073" cy="575.641" r="1.81823" transform="rotate(-9.82479 571.073 575.641)" fill="white" fill-opacity="0.5"/>
</svg>
