<svg width="146" height="104" viewBox="0 0 146 104" fill="none" xmlns="http://www.w3.org/2000/svg">
<path d="M144.122 39.3126C143.687 39.0226 140.063 36.1951 132.233 36.1951C130.203 36.1951 128.172 36.4126 126.142 36.7751C124.62 26.6251 116.137 21.4776 115.775 21.2601L113.673 20.0276L112.368 21.9851C110.628 24.5951 109.25 27.5676 108.67 30.6126C107.22 36.4126 108.09 41.9226 111.062 46.6351C107.51 48.6651 101.71 49.1726 100.477 49.1726H4.995C2.53 49.1726 0.5 51.2026 0.5 53.7401C0.5 62.0776 1.805 70.4151 4.705 78.2451C7.9675 86.8726 12.8975 93.2526 19.205 97.1676C26.31 101.518 37.9825 103.983 51.25 103.983C56.9775 103.983 62.9225 103.475 68.795 102.388C76.915 100.938 84.745 98.1101 91.9225 93.9776C97.8669 90.5784 103.187 86.1895 107.655 81.0001C115.268 72.5176 119.762 62.8751 123.025 54.5376H124.403C132.668 54.5376 137.815 51.2026 140.642 48.3751C142.527 46.6351 143.905 44.5326 144.92 42.0676L145.5 40.3276L144.122 39.3126ZM13.9125 46.4901H26.6725C27.2525 46.4901 27.8325 45.9826 27.8325 45.3301V33.8751C27.8325 33.2951 27.325 32.7151 26.6725 32.7151H13.9125C13.26 32.7151 12.7525 33.2226 12.7525 33.8751V45.3301C12.825 45.9826 13.26 46.4901 13.9125 46.4901ZM31.53 46.4901H44.29C44.87 46.4901 45.45 45.9826 45.45 45.3301V33.8751C45.45 33.2951 44.9425 32.7151 44.29 32.7151H31.53C30.8775 32.7151 30.37 33.2226 30.37 33.8751V45.3301C30.4425 45.9826 30.8775 46.4901 31.53 46.4901ZM49.4375 46.4901H62.125C62.85 46.4901 63.3575 45.9826 63.3575 45.3301V33.8751C63.3575 33.2951 62.9225 32.7151 62.125 32.7151H49.4375C48.8575 32.7151 48.35 33.2226 48.35 33.8751V45.3301C48.35 45.9826 48.785 46.4901 49.4375 46.4901ZM67.1275 46.4901H79.96C80.54 46.4901 81.0475 45.9826 81.0475 45.3301V33.8751C81.0475 33.2951 80.6125 32.7151 79.96 32.7151H67.1275C66.5475 32.7151 66.04 33.2226 66.04 33.8751V45.3301C66.04 45.9826 66.5475 46.4901 67.1275 46.4901ZM31.53 30.2501H44.29C44.87 30.2501 45.45 29.5976 45.45 28.9451V17.5626C45.45 16.9101 44.9425 16.4026 44.29 16.4026H31.53C30.8775 16.4026 30.37 16.8376 30.37 17.5626V28.9451C30.4425 29.5976 30.8775 30.2501 31.53 30.2501ZM49.4375 30.2501H62.125C62.85 30.2501 63.3575 29.5976 63.3575 28.9451V17.5626C63.3575 16.9101 62.9225 16.4026 62.125 16.4026H49.4375C48.8575 16.4026 48.35 16.8376 48.35 17.5626V28.9451C48.35 29.5976 48.785 30.2501 49.4375 30.2501ZM67.1275 30.2501H79.96C80.54 30.2501 81.0475 29.5976 81.0475 28.9451V17.5626C81.0475 16.9101 80.54 16.4026 79.96 16.4026H67.1275C66.5475 16.4026 66.04 16.8376 66.04 17.5626V28.9451C66.04 29.5976 66.5475 30.2501 67.1275 30.2501ZM67.1275 13.7201H79.96C80.54 13.7201 81.0475 13.2126 81.0475 12.5601V1.25008C81.0475 0.525079 80.54 0.0175781 79.96 0.0175781H67.1275C66.5475 0.0175781 66.04 0.452579 66.04 1.25008V12.5601C66.04 13.1401 66.5475 13.7201 67.1275 13.7201ZM84.9625 46.4901H97.7225C98.375 46.4901 98.8825 45.9826 98.8825 45.3301V33.8751C98.8825 33.2951 98.375 32.7151 97.7225 32.7151H84.9625C84.3825 32.7151 83.875 33.2226 83.875 33.8751V45.3301C83.875 45.9826 84.3825 46.4901 84.9625 46.4901Z" fill="#37E6B1"/>
</svg>
