<svg width="64" height="64" viewBox="0 0 64 64" fill="none" xmlns="http://www.w3.org/2000/svg">
<path d="M22.0002 60.3V46.5L11.7002 54.1C14.6002 56.8 18.1002 58.9 22.0002 60.3ZM42.0002 60.3C45.9002 58.9 49.4002 56.8 52.3002 54.1L42.0002 46.4V60.3ZM3.7002 42C4.0002 43 4.4002 43.9 4.9002 44.9L8.8002 42H3.7002ZM55.2002 42L59.1002 44.9C59.5002 44 59.9002 43 60.3002 42H55.2002Z" fill="#2A5F9E"/>
<path d="M23.4996 38H2.59961C2.89961 39.4 3.29961 40.7 3.69961 42H8.79961L4.89961 44.9C5.69961 46.6 6.59961 48.1 7.69961 49.6L17.9996 42H21.9996V44L10.2996 52.6L11.6996 54L21.9996 46.5V60.3C23.2996 60.8 24.5996 61.1 25.9996 61.4V38H23.4996ZM61.3996 38H37.9996V61.4C39.3996 61.1 40.6996 60.7 41.9996 60.3V46.5L52.2996 54C53.6996 52.7 54.8996 51.3 56.0996 49.8L45.3996 42H52.1996L58.2996 46.5C58.5996 46 58.8996 45.4 59.0996 44.9L55.1996 42H60.2996C60.6996 40.7 61.0996 39.4 61.3996 38Z" fill="white"/>
<path d="M7.7002 49.6C8.5002 50.7 9.3002 51.7 10.2002 52.7L22.0002 44.1V42.1H18.0002L7.7002 49.6ZM45.5002 42L56.2002 49.8C56.6002 49.3 56.9002 48.8 57.3002 48.3C57.4002 48.2 57.4002 48.1 57.5002 48.1C57.8002 47.6 58.2002 47 58.5002 46.5L52.2002 42H45.5002Z" fill="#ED4C5C"/>
<path d="M42.0002 3.7002V17.5002L52.3002 9.9002C49.4002 7.2002 45.9002 5.1002 42.0002 3.7002ZM22.0002 3.7002C18.1002 5.1002 14.6002 7.2002 11.7002 9.9002L22.0002 17.6002V3.7002ZM60.3002 22.0002C60.0002 21.0002 59.6002 20.1002 59.1002 19.1002L55.2002 22.0002H60.3002ZM8.8002 22.0002L4.9002 19.1002C4.5002 20.1002 4.1002 21.0002 3.7002 22.0002H8.8002Z" fill="#2A5F9E"/>
<path d="M40.4996 26.0001H61.2996C60.9996 24.6001 60.5996 23.3001 60.1996 22.0001H55.0996L58.9996 19.1001C58.1996 17.4001 57.2996 15.9001 56.1996 14.4001L45.9996 22.0001H41.9996V20.0001L53.6996 11.4001L52.2996 10.0001L41.9996 17.5001V3.7001C40.6996 3.2001 39.3996 2.9001 37.9996 2.6001V26.0001H40.4996ZM2.59961 26.0001H25.9996V2.6001C24.5996 2.9001 23.2996 3.3001 21.9996 3.7001V17.5001L11.6996 10.0001C10.2996 11.3001 9.09961 12.7001 7.89961 14.2001L18.5996 22.0001H11.7996L5.69961 17.5001C5.39961 18.0001 5.09961 18.6001 4.89961 19.1001L8.79961 22.0001H3.69961C3.29961 23.3001 2.89961 24.6001 2.59961 26.0001Z" fill="white"/>
<path d="M56.2996 14.3998C55.4996 13.2998 54.6996 12.2998 53.7996 11.2998L41.9996 19.8998V21.8998H45.9996L56.2996 14.3998ZM18.4996 21.9998L7.89961 14.1998C7.49961 14.6998 7.19961 15.1998 6.79961 15.6998C6.69961 15.7998 6.69961 15.8998 6.59961 15.8998C6.29961 16.3998 5.89961 16.9998 5.59961 17.4998L11.6996 21.9998H18.4996Z" fill="#ED4C5C"/>
<path d="M61.4 26H38V2.6C36.1 2.2 34.1 2 32 2C29.9 2 27.9 2.2 26 2.6V26H2.6C2.2 27.9 2 29.9 2 32C2 34.1 2.2 36.1 2.6 38H26V61.4C27.9 61.8 29.9 62 32 62C34.1 62 36.1 61.8 38 61.4V38H61.4C61.8 36.1 62 34.1 62 32C62 29.9 61.8 27.9 61.4 26Z" fill="#ED4C5C"/>
</svg>
