<svg width="44" height="42" viewBox="0 0 44 42" fill="none" xmlns="http://www.w3.org/2000/svg">
<path d="M1.30664 21.0001C1.30664 29.597 7.08164 36.8813 15.0566 39.572V2.42822C7.08164 5.11885 1.30664 12.4032 1.30664 21.0001Z" fill="#428BC1"/>
<path d="M42.5566 21.0001C42.5566 12.4032 36.8504 5.11885 28.8066 2.42822V39.572C36.8504 36.8813 42.5566 29.597 42.5566 21.0001Z" fill="#ED4C5C"/>
<path d="M15.0566 39.5719C17.1879 40.2938 19.5254 40.6875 21.9316 40.6875C24.3379 40.6875 26.6754 40.2938 28.8066 39.5719V2.42813C26.6754 1.70625 24.4066 1.3125 21.9316 1.3125C19.4566 1.3125 17.1879 1.70625 15.0566 2.42813V39.5719Z" fill="white"/>
</svg>
