<svg width="62" height="95" viewBox="0 0 62 95" fill="none" xmlns="http://www.w3.org/2000/svg">
<path fill-rule="evenodd" clip-rule="evenodd" d="M44.6265 0.0465563C44.534 0.133398 42.9432 0.301317 41.0916 0.419148C39.2399 0.536979 36.0505 0.875339 34.004 1.17118C31.9574 1.46666 29.7582 1.71385 29.1164 1.71998C28.4746 1.72646 27.757 1.89762 27.5217 2.10086C27.2864 2.30409 25.4191 3.29106 23.3726 4.29461C21.2197 5.35041 18.2068 7.24471 16.2233 8.78985C14.3377 10.259 12.6232 11.4607 12.4137 11.4607C12.2039 11.4607 12.0292 11.6636 12.0257 11.9111C12.0218 12.159 10.611 13.8325 8.8905 15.6298C7.16999 17.4276 5.65182 19.3464 5.5168 19.8937C5.38143 20.4415 4.84596 21.565 4.3268 22.3909C3.80763 23.2168 3.35438 24.0546 3.31965 24.2528C3.13537 25.3014 0.922625 30.6333 0.489218 31.0744C-0.117835 31.6913 -0.168156 32.5828 0.384322 32.9301C0.77166 33.1734 0.612897 36.9065 0.140509 38.6664C-0.0618417 39.4209 0.416571 39.4663 6.27376 39.2473L7.60268 39.1975L9.52094 34.3535C10.5763 31.6895 11.6525 29.4265 11.913 29.3249C12.1738 29.2233 12.3868 28.8367 12.3868 28.4662C12.3868 27.6915 14.8575 24.9331 18.9577 21.1304C21.7244 18.5644 22.1929 18.292 28.1567 15.774C29.0785 15.3848 30.8319 14.8465 33.4724 14.1424C35.1532 13.6937 36.3783 13.6343 39.3197 13.8577C41.3662 14.0133 43.1867 14.1456 43.3656 14.1517C43.5442 14.1582 43.849 13.6797 44.0429 13.0884C44.3795 12.0607 48.4854 5.77525 49.5967 4.58612C50.7102 3.39448 51.723 2.07599 51.7226 1.81871C51.7223 1.67169 50.4865 1.28721 48.9762 0.964703C47.4658 0.642199 45.9072 0.267805 45.5125 0.133038C45.1177 -0.00172935 44.719 -0.040646 44.6265 0.0465563ZM43.8908 1.56179C43.4082 2.05257 43.2157 2.05437 42.1317 1.5762L40.9144 1.03893L42.6735 1.02488C44.2523 1.01227 44.3774 1.0674 43.8908 1.56179ZM48.0679 1.60791L50.4061 2.20499L48.8812 2.9963C47.6231 3.64888 47.1805 3.7195 46.3502 3.40096C45.5773 3.1044 45.3441 2.78262 45.3441 2.01293C45.3441 0.830296 45.1414 0.860565 48.0679 1.60791ZM39.0961 1.90519C38.9582 2.26986 38.7091 2.34228 38.3097 2.13401C37.9883 1.96609 37.4858 1.73871 37.1934 1.62845C36.901 1.51819 37.2547 1.41513 37.9798 1.39963C39.0046 1.37765 39.2527 1.48972 39.0961 1.90519ZM42.8397 2.71776C42.9244 2.77649 42.8135 3.00747 42.5938 3.23088C42.0055 3.82905 40.0284 2.92207 40.0284 2.05401C40.0284 1.40936 40.0812 1.4072 41.3574 1.99708C42.0884 2.33472 42.7554 2.65902 42.8397 2.71776ZM35.637 2.3621C36.4496 3.45069 36.2011 3.57753 33.4745 3.46366C32.0141 3.40277 30.8181 3.21395 30.8167 3.04423C30.8156 2.87451 30.5803 2.82694 30.2943 2.93829C30.0083 3.04999 29.6891 3.00171 29.5856 2.83091C29.4817 2.6601 30.553 2.36463 31.9663 2.17437C33.3792 1.98375 34.6773 1.80646 34.8509 1.77979C35.0242 1.75313 35.3779 2.0151 35.637 2.3621ZM38.7704 3.24133C38.9554 3.40169 38.5967 3.53321 37.973 3.53321C37.3493 3.53321 36.839 3.46547 36.839 3.38259C36.839 3.29971 36.7401 2.97 36.6193 2.65001C36.4265 2.13833 36.5229 2.1214 37.4167 2.50876C37.9762 2.75127 38.5854 3.08062 38.7704 3.24133ZM44.4631 3.46799C44.1463 3.79049 43.2179 3.86004 43.2179 3.56132C43.2179 3.07882 43.6314 2.85829 44.1538 3.06188C44.4355 3.17179 44.5748 3.35484 44.4631 3.46799ZM26.5648 4.78972C25.804 6.04154 25.7157 6.08082 23.8981 5.97992C22.8644 5.92263 22.0667 5.82533 22.1255 5.76444C22.3941 5.48553 27.1081 3.28277 27.2226 3.38259C27.2934 3.44457 26.9975 4.07768 26.5648 4.78972ZM27.9625 4.8153C27.3331 5.58607 27.1347 5.18537 27.656 4.19551C27.9359 3.66365 28.1539 3.52456 28.2496 3.81644C28.3328 4.07048 28.2035 4.51982 27.9625 4.8153ZM34.8538 4.25389C36.6487 4.25389 36.7341 4.30037 37.5053 5.69525C37.9433 6.488 38.2161 7.13661 38.1116 7.13661C37.6424 7.13661 34.7127 5.52157 34.7127 5.2632C34.7127 5.10429 34.4338 4.96881 34.0926 4.96196C33.7513 4.95475 33.0737 4.70035 32.5865 4.39622C32.0992 4.09246 31.9925 3.93607 32.3497 4.04886C32.7066 4.16164 33.8335 4.25389 34.8538 4.25389ZM38.9653 5.57526C38.9653 7.06202 38.9309 7.0559 38.1151 5.425C37.5492 4.29317 37.5538 4.25389 38.2473 4.25389C38.8377 4.25389 38.9653 4.48847 38.9653 5.57526ZM41.07 5.24483C40.6004 5.78966 40.0943 6.38999 39.9452 6.57809C39.796 6.76654 39.6741 6.32044 39.6741 5.58715C39.6741 4.32956 39.7382 4.25389 40.7989 4.25389H41.924L41.07 5.24483ZM44.1811 5.1097C44.0602 5.48697 41.2631 7.06779 40.6319 7.11535C40.4764 7.12688 40.8432 6.51214 41.4463 5.74858C42.3174 4.64666 42.7256 4.39586 43.4269 4.53243C43.9131 4.62684 44.2523 4.88665 44.1811 5.1097ZM29.7461 5.60517C29.7419 6.37738 29.6646 6.47683 29.397 6.05559C28.9491 5.35041 28.9491 4.61423 29.397 4.61423C29.592 4.61423 29.7489 5.06033 29.7461 5.60517ZM33.2952 7.14562C33.2952 7.72072 32.7016 7.83171 31.4723 7.4865C30.3294 7.16544 30.2571 7.05806 30.3925 5.87938L30.5374 4.61603L31.9163 5.72624C32.6747 6.33702 33.2952 6.9759 33.2952 7.14562ZM46.4073 4.75224C46.4073 4.82827 46.0883 4.97529 45.6985 5.07907C45.3087 5.18249 44.9898 5.12051 44.9898 4.9407C44.9898 4.76125 45.3087 4.61423 45.6985 4.61423C46.0883 4.61423 46.4073 4.67657 46.4073 4.75224ZM47.3847 6.40656C46.3619 7.99386 46.1794 8.13007 45.7871 7.59893C45.1418 6.72474 45.2371 5.69633 45.9643 5.68985C46.3056 5.68696 46.9831 5.45959 47.4704 5.18465C47.9577 4.90971 48.3975 4.669 48.4478 4.64954C48.4978 4.63008 48.0193 5.42067 47.3847 6.40656ZM37.5744 8.35456C37.002 8.61437 36.4442 8.36465 34.8105 7.11643C33.6847 6.25666 32.6042 5.41491 32.4093 5.24591C32.2147 5.07727 33.4586 5.63399 35.1734 6.48404C37.8352 7.80252 38.1867 8.07674 37.5744 8.35456ZM28.6167 6.60871C28.5416 6.68511 28.1245 6.65304 27.69 6.53773C26.95 6.34062 26.9398 6.29774 27.5284 5.85921C28.0518 5.46932 28.2067 5.48121 28.4551 5.93055C28.6192 6.22711 28.6918 6.53232 28.6167 6.60871ZM24.8954 7.88396C24.3216 8.87165 24.2628 8.89111 23.6231 8.30231C22.178 6.9723 22.2552 6.58601 23.9382 6.72222L25.4967 6.8487L24.8954 7.88396ZM44.9844 7.73189C44.9873 7.96035 44.551 8.30844 44.0152 8.50591C43.4794 8.70301 42.7217 8.98624 42.3319 9.1347C41.8606 9.31451 42.0916 8.90516 43.0215 7.91315C44.3593 6.48548 44.9674 6.42963 44.9844 7.73189ZM20.5375 8.05872C20.5375 8.98948 20.3044 9.11957 19.5304 8.62085C19.1392 8.36862 19.136 8.18196 19.5127 7.56866C20.0733 6.65592 20.5375 6.87789 20.5375 8.05872ZM28.5972 7.49695C28.6475 7.49695 28.6883 8.55095 28.6883 9.83916C28.6883 11.1274 28.6043 12.1814 28.5019 12.1814C28.3995 12.1814 27.5326 11.5868 26.5755 10.8604L24.8355 9.53972L25.5169 8.1816C26.1665 6.8869 26.2516 6.83933 27.3523 7.1604C27.987 7.34561 28.5472 7.49695 28.5972 7.49695ZM42.3096 7.88828C40.8828 9.41252 40.3715 9.63918 39.0011 9.35451C37.8242 9.10948 37.8299 9.10371 40.4299 7.97224C41.8659 7.34741 43.1105 6.82276 43.1955 6.80618C43.2806 6.7896 42.8819 7.27678 42.3096 7.88828ZM18.7656 7.63316C18.7656 7.70775 18.4868 7.9917 18.1455 8.26376C17.5834 8.71166 17.571 8.69905 18.0115 8.12755C18.4747 7.52722 18.7656 7.3366 18.7656 7.63316ZM35.4215 8.36069C35.4215 8.42519 35.0246 8.40105 34.5398 8.30664C34.0547 8.21223 33.7453 7.99134 33.8523 7.81513C34.0203 7.53875 35.4215 8.02593 35.4215 8.36069ZM23.0182 9.10984C23.0182 9.15884 22.6195 9.12137 22.1323 9.0266C21.645 8.93183 21.2463 8.62626 21.2463 8.34736C21.2463 7.93405 21.4097 7.94954 22.1323 8.43095C22.6195 8.75562 23.0182 9.06119 23.0182 9.10984ZM32.5156 8.57797C32.5765 8.57797 32.3434 9.06587 31.9968 9.66188L31.367 10.7458L30.7515 9.57179C29.9052 7.95891 29.9428 7.86018 31.2551 8.24286C31.8873 8.42699 32.4546 8.57797 32.5156 8.57797ZM35.0671 9.34081C35.0671 9.51558 35.0069 9.65899 34.9332 9.65899C34.8595 9.65899 34.2152 9.90727 33.5011 10.2107L32.2027 10.7624L32.7342 9.71701C33.1602 8.87886 33.4437 8.70698 34.1663 8.84715C34.6617 8.94336 35.0671 9.16569 35.0671 9.34081ZM44.3611 10.4175C43.6187 12.3399 42.9595 12.5698 41.9354 11.2636L41.1203 10.2244L42.9666 9.61828C43.9819 9.28496 44.8395 8.99561 44.8728 8.97543C44.9058 8.95489 44.6754 9.60386 44.3611 10.4175ZM19.7834 9.62296C20.0506 9.7952 20.2062 10.1292 20.1286 10.3656C20.0379 10.6431 19.7522 10.5303 19.3217 10.0471C18.6452 9.28676 18.8993 9.05326 19.7834 9.62296ZM30.2401 11.7173C29.4176 12.3291 29.307 12.1349 29.5937 10.58L29.8365 9.2655L30.3454 10.2633C30.8018 11.1576 30.7908 11.3076 30.2401 11.7173ZM19.5736 12.7219C19.3876 13.746 18.5481 15.0691 18.0906 15.0598C17.9747 15.0573 17.5189 14.489 17.0781 13.7971L16.2768 12.5388L17.2266 11.0795L18.1767 9.61972L18.9733 10.6301C19.5559 11.3692 19.7172 11.9317 19.5736 12.7219ZM22.8176 9.98258C23.267 10.1617 23.3641 10.3426 23.0997 10.5087C22.5976 10.8243 20.8919 10.4161 20.8919 9.98042C20.8919 9.59918 21.8573 9.60026 22.8176 9.98258ZM38.8508 10.98C39.8885 11.7068 40.7372 12.3648 40.7372 12.4426C40.7372 12.5205 40.6174 12.5104 40.4714 12.4203C40.3254 12.3298 39.3615 12.3929 38.3299 12.5597C36.8684 12.7965 36.0076 12.7194 34.4317 12.2106L32.4093 11.558L34.3584 10.629C35.4304 10.1184 36.4552 9.69106 36.636 9.67989C36.8167 9.66836 37.8132 10.2536 38.8508 10.98ZM16.4009 11.1086C15.6439 12.412 10.6433 15.2756 11.2985 14.0306C11.7199 13.2303 13.1193 12.1468 15.3395 10.9014C16.1521 10.4456 16.8655 10.0608 16.9254 10.046C16.9849 10.0312 16.7492 10.5094 16.4009 11.1086ZM40.7507 11.1173L41.9775 12.2153L40.4714 11.2495C39.6429 10.7184 38.9653 10.2244 38.9653 10.1516C38.9653 9.7653 39.6588 10.1404 40.7507 11.1173ZM26.0304 11.2892L27.0936 12.1724L25.2504 11.5731C24.2369 11.2438 23.4888 10.8406 23.588 10.677C23.9176 10.1346 24.9535 10.3941 26.0304 11.2892ZM21.9551 11.6196C21.9551 11.7072 21.7956 11.8787 21.6007 12.0012C21.4058 12.1237 21.2463 12.052 21.2463 11.8423C21.2463 11.6326 21.4058 11.4607 21.6007 11.4607C21.7956 11.4607 21.9551 11.532 21.9551 11.6196ZM25.3419 14.2533C25.2983 14.3031 24.7575 14.4032 24.1405 14.4764C23.3634 14.5683 23.0182 14.4576 23.0182 14.116C23.0182 13.8447 22.8757 13.6227 22.7017 13.6227C22.5277 13.6227 22.2878 13.3647 22.1691 13.0498C21.7279 11.8812 22.391 11.8603 23.8843 12.9954C24.7295 13.6375 25.3855 14.204 25.3419 14.2533ZM28.0632 13.2718C28.4016 13.4649 29.1989 13.644 29.8351 13.6699C30.525 13.6981 30.1356 13.8281 28.8704 13.9917C26.8646 14.2512 26.6669 14.2061 25.238 13.1626C24.407 12.5558 23.727 12.0142 23.727 11.9594C23.727 11.7872 27.4185 12.9042 28.0632 13.2718ZM33.1166 12.5053C34.6206 13.0862 34.7538 13.2087 34.0026 13.3208C33.516 13.3932 32.4451 13.3024 31.6225 13.119C30.2926 12.8224 30.1944 12.7334 30.7366 12.3147C31.0718 12.056 31.3461 11.8391 31.3461 11.8329C31.3461 11.8268 32.1428 12.1291 33.1166 12.5053ZM41.5413 13.1384C41.3014 13.2372 40.823 13.2433 40.4781 13.1518C40.1333 13.0602 40.3297 12.9795 40.9144 12.9723C41.4991 12.9651 41.7812 13.0397 41.5413 13.1384ZM15.2218 14.1632C15.2218 15 15.1021 15.063 13.5385 15.0479L11.8552 15.0317L13.45 14.1632C14.327 13.6858 15.0844 13.2876 15.1333 13.2786C15.1822 13.2696 15.2218 13.6678 15.2218 14.1632ZM21.8923 14.1031C21.976 14.5402 21.7552 14.7038 21.0826 14.7038C20.259 14.7038 20.2009 14.6227 20.5492 13.9611C20.9908 13.1222 21.7201 13.1993 21.8923 14.1031ZM16.6394 14.3434C16.942 14.9185 16.9087 15.0641 16.4746 15.0641C16.167 15.0641 15.9306 14.751 15.9306 14.3434C15.9306 13.947 16.0047 13.6227 16.0954 13.6227C16.1858 13.6227 16.4306 13.947 16.6394 14.3434ZM26.887 15.2021C26.8058 15.2778 25.5917 15.9242 24.1894 16.6381L21.6393 17.936L22.1191 16.7703C22.5097 15.8212 22.852 15.5639 23.9601 15.3855C25.6725 15.1099 27.0798 15.0216 26.887 15.2021ZM16.9937 16.3253C15.9948 17.4063 15.5762 17.4669 15.5762 16.5292C15.5762 16.046 15.8746 15.7866 16.5508 15.6824C17.087 15.5999 17.593 15.508 17.6756 15.4785C17.7585 15.4486 17.4516 15.8298 16.9937 16.3253ZM21.4334 16.4132C21.0585 17.9317 20.6991 18.1893 18.0253 18.8556C15.4231 19.5039 14.7179 19.3857 15.6336 18.4545C16.2084 17.8701 16.9151 17.6596 18.4556 17.6142C19.1966 17.5922 19.429 17.3667 19.5984 16.5055C19.77 15.6327 19.9907 15.4244 20.7442 15.4244C21.5851 15.4244 21.6531 15.5225 21.4334 16.4132ZM14.8675 16.4424C14.8675 17.0546 14.6665 17.118 13.1842 16.9732C11.1291 16.7728 10.6149 16.6211 10.6149 16.2154C10.6149 16.0435 11.5717 15.868 12.7412 15.8251C14.6318 15.7556 14.8675 15.8241 14.8675 16.4424ZM10.0833 16.5055C10.2038 16.7036 10.1333 16.8658 9.92706 16.8658C9.72081 16.8658 9.55177 16.7036 9.55177 16.5055C9.55177 16.3073 9.62194 16.1451 9.70806 16.1451C9.79417 16.1451 9.96285 16.3073 10.0833 16.5055ZM18.4113 16.6471C18.4113 16.7249 18.1639 16.8853 17.8613 17.0035C17.5459 17.1263 17.4038 17.0658 17.5278 16.8618C17.7358 16.5192 18.4113 16.3552 18.4113 16.6471ZM33.5234 17.0564C19.6516 19.7301 9.55603 31.9893 9.49614 46.2335C9.45928 54.9866 12.4084 61.9945 18.7026 68.1087C20.2392 69.6016 22.6202 71.4905 23.9935 72.306C26.5826 73.8435 31.6452 75.7148 34.2776 76.1072L35.7915 76.3331L35.6951 69.6106L35.5987 62.8881L34.1812 62.4575C26.2767 60.0569 21.4479 51.8084 23.1486 43.6117C23.4477 42.17 24.1384 40.1431 24.6827 39.1074C26.7041 35.2648 30.9925 31.9053 35.1079 30.9407C39.0011 30.028 44.3441 30.8892 47.2567 32.8991C47.9761 33.3957 48.6799 33.8018 48.8199 33.8018C48.9602 33.8018 51.2077 31.6289 53.8142 28.9729L58.5536 24.144L56.3182 22.4709C49.8965 17.6636 41.1504 15.5862 33.5234 17.0564ZM11.4945 18.9378L12.3996 20.289L10.7099 20.6613C9.7807 20.8663 8.57581 21.2598 8.03255 21.5362C7.18133 21.9689 6.97366 21.9661 6.52891 21.5135C6.07708 21.054 6.20395 20.7773 7.54882 19.2876C9.44121 17.1919 10.2754 17.1177 11.4945 18.9378ZM14.4851 18.1792C14.567 18.2513 14.2615 18.7133 13.8057 19.2062L12.9779 20.1027L12.328 19.016C11.9704 18.4185 11.6781 17.8625 11.6781 17.7807C11.6781 17.6121 14.2555 17.9782 14.4851 18.1792ZM18.7656 19.5172C18.7656 19.5885 17.8886 20.2386 16.8166 20.9625C15.2137 22.0446 14.8685 22.1657 14.8728 21.6439C14.8816 20.6141 15.3073 20.2552 16.9937 19.8541C17.8708 19.6455 18.6281 19.4552 18.6771 19.4314C18.726 19.4076 18.7656 19.4462 18.7656 19.5172ZM14.1534 21.28C14.1491 21.9131 14.0765 21.9761 13.8224 21.5675C13.6431 21.2796 13.5754 20.9149 13.6714 20.7568C13.9787 20.2508 14.1587 20.4465 14.1534 21.28ZM13.248 21.8623C13.7714 22.8911 13.7682 22.8968 12.3712 23.4546C11.0079 23.9991 10.9693 23.9937 10.9693 23.2561C10.9693 22.6421 12.1997 20.8295 12.6168 20.8295C12.6753 20.8295 12.9591 21.294 13.248 21.8623ZM5.77657 22.659C4.95937 22.9613 4.87077 22.8864 5.15498 22.1333C5.33855 21.6464 5.48207 21.6162 5.90662 21.9743C6.36306 22.3596 6.34605 22.4486 5.77657 22.659ZM10.3505 21.9632C10.1248 22.1927 10.0344 22.8323 10.1468 23.4045C10.3243 24.3065 10.2456 24.4315 9.50748 24.4218C9.02942 24.4153 8.39012 24.025 8.02759 23.5188C7.4021 22.6449 7.40565 22.6212 8.20477 22.3206C8.65342 22.152 9.25941 21.9225 9.55177 21.8108C10.4487 21.4673 10.7769 21.5297 10.3505 21.9632ZM16.285 22.7487C16.285 22.8132 15.8863 23.2467 15.399 23.7123C14.6527 24.425 14.5131 24.4618 14.5131 23.9436C14.5131 23.6052 14.8721 23.1822 15.3104 23.0028C16.2878 22.6035 16.285 22.6042 16.285 22.7487ZM7.1994 23.5321C7.4262 24.1331 7.2841 24.1688 6.02711 23.8269C5.22409 23.6085 5.21098 23.571 5.84992 23.3166C6.8553 22.9166 6.97401 22.9354 7.1994 23.5321ZM13.799 23.9825C13.7827 24.7911 13.1423 25.1792 12.2153 24.9428L11.2255 24.6902L12.249 24.2304C13.4808 23.6773 13.8061 23.6254 13.799 23.9825ZM7.73558 24.8236C8.56057 24.8506 8.49431 24.9342 7.15262 25.5612C5.49271 26.3366 5.1284 26.2671 4.83321 25.1187C4.65602 24.4293 4.74532 24.3742 5.72057 24.5728C6.31735 24.6942 7.22385 24.807 7.73558 24.8236ZM4.49938 26.4476C4.14961 26.8029 3.54078 25.8977 3.75235 25.3374C3.97809 24.7385 4.02912 24.7544 4.30341 25.5086C4.46961 25.9655 4.55785 26.3882 4.49938 26.4476ZM10.6649 26.1813C11.0235 27.1668 10.4445 26.897 9.87355 25.8127C9.57304 25.2416 9.58508 25.105 9.92635 25.2206C10.1705 25.3032 10.5026 25.7356 10.6649 26.1813ZM10.6149 28.4518C10.6149 29.522 10.1308 29.4615 7.97514 28.1207L5.88501 26.8209L6.98429 26.4375C7.58886 26.2271 8.21434 25.9194 8.37452 25.7543C8.74485 25.3724 10.6149 27.6234 10.6149 28.4518ZM12.4467 25.8094C12.9882 26.0336 12.9808 26.1265 12.3581 26.9052C11.8765 27.5077 11.6781 27.5953 11.6781 27.205C11.6781 26.902 11.5813 26.3975 11.4629 26.084C11.2351 25.4801 11.4835 25.4106 12.4467 25.8094ZM3.66305 29.0273C2.75548 30.651 1.77491 31.7796 1.50806 31.5082C1.44073 31.4398 1.73026 30.4686 2.15126 29.3498C2.78808 27.658 3.06024 27.3157 3.76865 27.3157H4.62022L3.66305 29.0273ZM5.9208 30.3951C5.60894 30.6704 3.46955 30.9375 3.58331 30.6867C3.66021 30.5173 4.03231 29.7606 4.41008 29.0049L5.09687 27.6317L5.55402 28.9736C5.80527 29.7116 5.97041 30.3515 5.9208 30.3951ZM8.36035 29.8921C7.01193 30.3094 6.79222 30.2164 6.39708 29.0637C6.18304 28.4396 6.00798 27.8782 6.00798 27.8162C6.00798 27.7542 6.70752 28.1434 7.56299 28.6806C8.9635 29.561 9.04253 29.6813 8.36035 29.8921ZM8.94011 33.8919C8.03786 36.1217 7.25185 38.0091 7.19408 38.087C7.13632 38.1644 6.77131 37.8401 6.38362 37.3663C5.20814 35.9296 5.74077 34.4036 8.27282 31.9558C9.46353 30.8048 10.47 29.8575 10.5097 29.8507C10.549 29.8438 9.84272 31.6625 8.94011 33.8919ZM8.48863 30.6715C8.48863 30.7335 8.03042 31.2308 7.47015 31.7763L6.45166 32.7687L6.62176 31.8628C6.77025 31.0737 7.15794 30.7681 8.22285 30.6005C8.36885 30.5775 8.48863 30.6095 8.48863 30.6715ZM4.48379 32.9788C3.12935 34.8378 2.86888 35.0176 2.17784 34.5726C1.80361 34.3315 1.83196 34.0238 2.32349 32.9755C2.79375 31.9723 3.1818 31.6448 4.02735 31.5356C4.62944 31.4581 5.25704 31.3688 5.42183 31.3371C5.58662 31.3054 5.16455 32.0441 4.48379 32.9788ZM2.1098 32.1363C2.1098 32.2109 1.86705 32.4772 1.57008 32.7276C1.11895 33.1085 1.06686 33.0862 1.25362 32.5914C1.44427 32.0866 2.1098 31.7324 2.1098 32.1363ZM5.6536 33.2487C5.6536 33.5387 5.31516 33.9607 4.90125 34.1859C4.15209 34.5935 4.15173 34.5917 4.81265 33.6692C5.59229 32.582 5.6536 32.5511 5.6536 33.2487ZM2.45638 35.552C2.45213 35.6795 2.1183 36.189 1.71466 36.6845C1.19054 37.3277 1.04063 37.3965 1.19089 36.9252C1.30642 36.5624 1.40104 35.9592 1.40104 35.5855C1.40104 35.1289 1.57575 34.9736 1.93261 35.1127C2.22497 35.2269 2.46063 35.4244 2.45638 35.552ZM5.07312 35.4233C4.96078 35.7206 4.70705 35.9638 4.5093 35.9638C4.30164 35.9638 4.33601 35.735 4.59046 35.4233C4.83321 35.126 5.08694 34.8828 5.15428 34.8828C5.22161 34.8828 5.18511 35.126 5.07312 35.4233ZM4.53588 37.2074C4.60853 37.5879 4.50611 37.7551 4.28569 37.6167C4.0805 37.4877 3.30796 37.6308 2.56836 37.9349L1.22385 38.4873L2.46418 37.416C3.80692 36.2564 4.34416 36.2024 4.53588 37.2074ZM5.85807 38.4278C5.10147 38.5781 4.79387 38.3053 5.11813 37.772C5.29354 37.4838 5.51893 37.5021 5.91761 37.838C6.41764 38.2596 6.41197 38.3183 5.85807 38.4278ZM41.9013 56.7951L48.5336 63.5731V72.4814C48.5336 79.1441 48.654 81.682 49.0116 82.5494C49.4269 83.5562 60.7054 94.651 61.6683 94.9995C61.8717 95.0733 62 87.1725 62 74.5386C62 51.8339 62.0266 52.1233 59.8064 50.7472C58.6926 50.0564 58.0433 50.0196 46.9512 50.0186L35.2688 50.0171L41.9013 56.7951Z" fill="white"/>
</svg>
