<svg width="59" height="59" viewBox="0 0 59 59" fill="none" xmlns="http://www.w3.org/2000/svg">
<path d="M15.167 2.96918C17.623 1.05663 20.8346 0 24.0257 0C25.9356 0 27.4794 0.655228 28.6513 1.6971C28.9672 1.97749 29.2476 2.28149 29.4985 2.59435C29.7494 2.28149 30.0299 1.97749 30.3457 1.6971C31.5176 0.655228 33.0615 0 34.9714 0C38.1624 0 41.377 1.05663 43.8271 2.96918C45.74 4.45378 47.2366 6.50505 47.824 8.98134C49.0638 9.18794 50.1649 9.81956 51.0564 10.6548C52.4733 11.9859 53.4858 13.9103 54.1205 15.8907C54.767 17.9007 55.0887 20.1586 54.9913 22.3279C54.9411 23.4377 54.7788 24.571 54.4688 25.6542L54.6607 25.7428C55.7529 26.2563 56.6385 27.0621 57.3027 28.1335C58.5572 30.1552 59 33.0654 59 36.7754C59 41.0403 57.3676 43.9357 55.2717 45.7331C54.1801 46.6692 52.9023 47.3633 51.5228 47.7696C51.0222 50.0761 49.9936 52.235 48.5177 54.0769C46.3835 56.7451 43.0655 59 38.6081 59C35.0363 59 32.2231 57.0225 30.4166 55.1336C30.0962 54.796 29.7909 54.4444 29.5015 54.0799C29.2111 54.4435 28.9048 54.794 28.5834 55.1306C26.7769 57.0255 23.9637 59 20.3919 59C15.9315 59 12.6136 56.7451 10.4823 54.0769C9.00419 52.2357 7.97351 50.0766 7.47131 47.7696C6.09277 47.363 4.81607 46.6689 3.72532 45.7331C1.62946 43.9327 0 41.0403 0 36.7754C0 33.0654 0.442788 30.1552 1.6944 28.1335C2.35845 27.0327 3.34895 26.1662 4.52824 25.6542C4.22496 24.5696 4.0496 23.4533 4.00575 22.3279C3.90834 20.1586 4.2301 17.9007 4.87657 15.8907C5.51123 13.9133 6.52079 11.9859 7.94066 10.6548C8.82868 9.78939 9.95364 9.20697 11.173 8.98134C11.7634 6.5021 13.2571 4.45378 15.167 2.96918ZM17.8886 6.46078C16.2769 7.71516 15.3323 9.38569 15.3323 11.3101C15.332 11.6606 15.2485 12.0061 15.0885 12.3181C14.9286 12.63 14.6969 12.8996 14.4124 13.1045C14.1279 13.3094 13.7988 13.4438 13.4522 13.4967C13.1056 13.5495 12.7514 13.5193 12.4187 13.4086C12.0143 13.2728 11.5863 13.3053 10.9723 13.8837C10.2874 14.5242 9.59374 15.6841 9.09191 17.2425C8.58992 18.8211 8.36618 20.4749 8.43068 22.1302C8.50448 23.7712 8.89413 25.1348 9.50813 26.0556C9.60972 26.2082 9.69202 26.3728 9.75314 26.5456H12.9471C15.0724 26.5451 17.1191 27.3489 18.6759 28.7955C20.2327 30.242 21.1843 32.2241 21.3394 34.3434C22.6111 34.8507 23.6668 35.7842 24.326 36.984C24.9852 38.1838 25.2068 39.5754 24.9529 40.9206C24.699 42.2658 23.9854 43.4809 22.9343 44.358C21.8831 45.2352 20.5597 45.7197 19.1906 45.7288C17.8215 45.7379 16.4918 45.2709 15.4291 44.4078C14.3664 43.5447 13.6367 42.3392 13.365 40.9975C13.0933 39.6558 13.2964 38.2614 13.9396 37.0529C14.5828 35.8444 15.6261 34.897 16.8909 34.3729C16.7507 33.4274 16.2752 32.5639 15.5513 31.9397C14.8273 31.3155 13.9031 30.9724 12.9471 30.9728H5.19833C4.75554 31.9999 4.42788 33.7737 4.42788 36.7754C4.42788 39.7888 5.52304 41.4417 6.60935 42.3743C7.79897 43.3926 9.10667 43.6582 9.48452 43.6582C10.0717 43.6582 10.6348 43.8914 11.05 44.3066C11.4652 44.7217 11.6985 45.2848 11.6985 45.8718C11.6985 47.1115 12.3833 49.3634 13.9419 51.3114C15.4415 53.1915 17.5787 54.5728 20.3919 54.5728C22.2722 54.5728 24.0021 53.5162 25.3806 52.0758C26.0477 51.3734 26.5673 50.6444 26.9097 50.0541C27.0393 49.8333 27.1527 49.6035 27.2492 49.3664L27.2669 49.3251V21.3805H24.622C24.1082 22.6504 23.1686 23.7021 21.9644 24.3554C20.7601 25.0087 19.3661 25.2228 18.0212 24.9611C16.6764 24.6995 15.4644 23.9783 14.593 22.9211C13.7216 21.864 13.2451 20.5368 13.2451 19.1669C13.2451 17.797 13.7216 16.4698 14.593 15.4126C15.4644 14.3555 16.6764 13.6343 18.0212 13.3726C19.3661 13.111 20.7601 13.3251 21.9644 13.9784C23.1686 14.6316 24.1082 15.6834 24.622 16.9533H27.2669V9.46243L27.258 9.2942C27.2075 8.38519 27.0286 7.48791 26.7267 6.62901C26.461 5.92066 26.1156 5.36873 25.7083 5.0057C25.3452 4.68104 24.8433 4.42721 24.0257 4.42721C21.7645 4.42721 19.524 5.18869 17.8857 6.46373L17.8886 6.46078ZM31.7331 44.2544V49.3251L31.7479 49.3664C31.8069 49.5228 31.9191 49.756 32.0903 50.0541C32.4298 50.6444 32.9493 51.3734 33.6194 52.0758C34.995 53.5162 36.7278 54.5728 38.6081 54.5728C41.4184 54.5728 43.5556 53.1915 45.0581 51.3114C46.6138 49.3634 47.3016 47.1085 47.3016 45.8718C47.3016 45.2848 47.5348 44.7217 47.95 44.3066C48.3652 43.8914 48.9283 43.6582 49.5155 43.6582C49.8933 43.6582 51.1981 43.3926 52.3907 42.3743C53.474 41.4417 54.5692 39.7888 54.5692 36.7754C54.5692 33.21 54.1028 31.3742 53.539 30.4681C53.3625 30.1547 53.0948 29.9025 52.7715 29.745C52.4733 29.6033 52.0246 29.497 51.3309 29.497C50.9302 29.497 50.537 29.3883 50.1933 29.1824C49.8496 28.9765 49.5682 28.6812 49.3791 28.3279C49.19 27.9747 49.1004 27.5768 49.1197 27.1766C49.1391 26.7764 49.2667 26.389 49.4889 26.0556C50.1029 25.1318 50.4926 23.7712 50.5693 22.1302C50.6328 20.4748 50.4081 18.821 49.9051 17.2425C49.4033 15.6841 48.7096 14.5272 48.0277 13.8837C47.4108 13.3053 46.9827 13.2728 46.5813 13.4086C46.2485 13.5199 45.8939 13.5506 45.5469 13.498C45.1999 13.4454 44.8704 13.3111 44.5855 13.1061C44.3007 12.9011 44.0686 12.6314 43.9085 12.3191C43.7484 12.0068 43.6649 11.661 43.6648 11.3101C43.6648 9.38569 42.7202 7.71516 41.1084 6.46078C39.476 5.18869 37.2326 4.42426 34.9684 4.42426C34.1537 4.42426 33.6548 4.68104 33.2888 5.00275C32.8266 5.45592 32.4786 6.01226 32.2733 6.62606C31.9423 7.53644 31.7599 8.49413 31.7331 9.46243V39.8272H33.6105C34.6675 39.8272 35.6811 39.4074 36.4284 38.6602C37.1758 37.9129 37.5956 36.8995 37.5956 35.8427V30.5448C36.3255 30.0311 35.2737 29.0917 34.6203 27.8876C33.9669 26.6835 33.7527 25.2897 34.0145 23.9451C34.2762 22.6004 34.9975 21.3886 36.0548 20.5174C37.112 19.6461 38.4395 19.1697 39.8096 19.1697C41.1797 19.1697 42.5071 19.6461 43.5644 20.5174C44.6217 21.3886 45.343 22.6004 45.6047 23.9451C45.8664 25.2897 45.6522 26.6835 44.9989 27.8876C44.3455 29.0917 43.2936 30.0311 42.0235 30.5448V35.8427C42.0235 38.0736 41.1372 40.2132 39.5594 41.7907C37.9817 43.3682 35.8418 44.2544 33.6105 44.2544H31.7331ZM19.1461 17.6911C18.7547 17.6911 18.3793 17.8466 18.1025 18.1234C17.8257 18.4001 17.6702 18.7755 17.6702 19.1669C17.6702 19.5583 17.8257 19.9336 18.1025 20.2104C18.3793 20.4871 18.7547 20.6426 19.1461 20.6426C19.5376 20.6426 19.913 20.4871 20.1898 20.2104C20.4666 19.9336 20.6221 19.5583 20.6221 19.1669C20.6221 18.7755 20.4666 18.4001 20.1898 18.1234C19.913 17.8466 19.5376 17.6911 19.1461 17.6911ZM17.6702 39.8272C17.6702 40.2186 17.8257 40.594 18.1025 40.8707C18.3793 41.1475 18.7547 41.303 19.1461 41.303C19.5376 41.303 19.913 41.1475 20.1898 40.8707C20.4666 40.594 20.6221 40.2186 20.6221 39.8272C20.6221 39.4358 20.4666 39.0605 20.1898 38.7837C19.913 38.507 19.5376 38.3515 19.1461 38.3515C18.7547 38.3515 18.3793 38.507 18.1025 38.7837C17.8257 39.0605 17.6702 39.4358 17.6702 39.8272ZM38.3336 25.0698C38.3336 25.4612 38.4891 25.8366 38.7659 26.1133C39.0427 26.3901 39.4181 26.5456 39.8096 26.5456C40.201 26.5456 40.5764 26.3901 40.8532 26.1133C41.13 25.8366 41.2855 25.4612 41.2855 25.0698C41.2855 24.6784 41.13 24.3031 40.8532 24.0263C40.5764 23.7496 40.201 23.5941 39.8096 23.5941C39.4181 23.5941 39.0427 23.7496 38.7659 24.0263C38.4891 24.3031 38.3336 24.6784 38.3336 25.0698Z" fill="#37E6B1"/>
</svg>
