<svg width="197" height="169" viewBox="0 0 197 169" fill="none" xmlns="http://www.w3.org/2000/svg">
<path d="M140.312 0.875V21.7812H56.6875V0.875H0.9375V56.625H56.6875V35.7188H105.629C101.024 41.7168 98.5186 49.0629 98.5 56.625V112.375C98.4926 117.917 96.2876 123.231 92.3686 127.15C88.4495 131.069 83.1362 133.274 77.5938 133.281H56.6875V112.375H0.9375V168.125H56.6875V147.219H77.5938C86.8315 147.208 95.6877 143.533 102.22 137.001C108.752 130.469 112.426 121.613 112.438 112.375V56.625C112.436 53.8808 112.974 51.1631 114.023 48.6272C115.072 46.0913 116.61 43.7868 118.549 41.8454C120.489 39.9039 122.792 38.3636 125.327 37.3124C127.861 36.2612 130.579 35.7197 133.323 35.7188H140.312V56.625H196.062V0.875H140.312ZM42.75 42.6875H14.875V14.8125H42.75V42.6875ZM42.75 154.188H14.875V126.312H42.75V154.188ZM182.125 42.6875H154.25V14.8125H182.125V42.6875Z" fill="#37E6B1"/>
</svg>
