<svg version="1.1" id="Layer_1" xmlns="http://www.w3.org/2000/svg" xmlns:xlink="http://www.w3.org/1999/xlink" x="0px" y="0px"
	 width="100%" viewBox="0 0 1024 1024" enable-background="new 0 0 1024 1024" xml:space="preserve">
<path fill="#193580" opacity="1.000000" stroke="none" 
	d="
M493.000000,1025.000000 
	C328.666656,1025.000000 164.833328,1025.000000 1.000000,1025.000000 
	C1.000000,683.666687 1.000000,342.333344 1.000000,1.000000 
	C342.333344,1.000000 683.666687,1.000000 1025.000000,1.000000 
	C1025.000000,342.333344 1025.000000,683.666687 1025.000000,1025.000000 
	C847.833313,1025.000000 670.666687,1025.000000 493.000000,1025.000000 
M267.634094,617.492126 
	C268.521881,616.974182 269.409668,616.456299 270.900482,615.631897 
	C271.025604,615.444275 271.150726,615.256714 271.896118,615.100464 
	C276.308197,612.756592 280.720276,610.412720 285.952087,607.722351 
	C286.683777,607.223999 287.415436,606.725586 288.739349,606.244873 
	C290.348114,605.166260 291.956848,604.087646 294.349274,602.995728 
	C294.927399,602.525757 295.505554,602.055847 296.628632,601.494263 
	C297.372375,601.023865 298.116150,600.553467 299.621765,599.874023 
	C300.468933,599.271851 301.316101,598.669678 302.740082,598.079041 
	C304.346130,597.059204 305.952148,596.039368 308.561005,594.929443 
	C309.090179,594.549744 309.619385,594.170044 310.732513,593.796631 
	C313.256744,592.409058 315.781006,591.021545 319.101746,590.089111 
	C335.841766,596.632629 352.872162,598.777344 370.747345,595.123535 
	C388.026733,591.591370 400.722473,581.756409 410.703003,568.009521 
	C419.123688,556.411133 421.746368,542.712341 423.813660,528.621887 
	C430.125488,524.728149 436.437286,520.834351 442.911591,517.871582 
	C442.947235,540.522766 442.969391,563.173950 443.025909,585.825073 
	C443.045319,593.592590 446.086517,596.737793 453.877960,596.783875 
	C468.035309,596.867676 482.194702,596.697266 496.351105,596.840881 
	C509.336060,596.972595 522.119141,596.105957 534.893860,593.241516 
	C556.051880,588.497375 570.443970,575.044556 580.989197,557.450623 
	C589.548340,543.170227 590.924194,526.920593 589.486084,510.329620 
	C588.080444,494.112915 584.195923,479.502655 572.553772,467.005920 
	C558.838684,452.284058 542.747925,443.207062 522.874146,440.928864 
	C513.966431,439.907684 504.992401,439.464508 495.893982,437.923004 
	C493.880524,421.201843 483.216797,410.530334 470.479919,401.163696 
	C460.929688,394.140472 450.086395,390.196106 438.869568,387.029907 
	C418.602631,381.309113 398.351318,375.527588 378.023438,370.030334 
	C366.042603,366.790375 353.897827,364.158478 341.901367,360.972198 
	C339.940216,360.451355 338.366150,358.473175 336.613159,357.168549 
	C338.056641,355.702301 339.237183,353.612946 340.987671,352.874268 
	C350.101135,349.028656 359.278900,345.301636 368.588318,341.962891 
	C379.973755,337.879547 391.503906,334.197784 402.987457,330.390533 
	C408.657562,328.510651 414.363586,326.738983 420.053345,324.918365 
	C410.439697,323.927399 400.997406,322.881958 391.880341,324.158783 
	C375.995361,326.383484 360.247467,329.749115 344.559692,333.174957 
	C327.867859,336.820099 311.175781,340.609924 294.753418,345.283936 
	C286.126465,347.739288 278.075958,352.220093 269.912292,355.908539 
	C269.912292,355.908539 269.798492,355.754761 269.233978,355.957184 
	C268.736298,356.565857 268.238647,357.174500 267.903259,357.911804 
	C267.903259,357.911804 267.772278,357.751404 267.166962,358.088593 
	C264.705841,360.887939 264.505615,364.211121 266.848145,366.725800 
	C269.702911,369.790375 272.970520,373.079193 276.734039,374.582275 
	C292.427155,380.849945 308.289948,386.723175 324.247192,392.292084 
	C346.599884,400.092926 369.134216,407.372528 391.503571,415.126892 
	C400.261810,418.162903 408.955109,421.512238 417.351868,425.419678 
	C422.725555,427.920380 422.737671,431.689789 417.863647,434.699646 
	C407.006226,441.404480 396.006500,447.878845 384.280762,454.303528 
	C382.864807,453.863373 381.441986,453.443909 380.033966,452.979706 
	C368.941437,449.322662 357.662170,446.013855 345.906067,447.980164 
	C338.294708,449.253174 330.702881,451.410217 323.497681,454.194336 
	C304.847809,461.400726 292.842010,474.921234 287.462708,494.161346 
	C287.462708,494.161346 287.488159,494.342834 286.830048,495.348816 
	C286.404694,497.301849 285.979340,499.254852 285.488098,501.125488 
	C285.488098,501.125488 285.548309,501.287750 285.049194,502.259277 
	C284.467377,505.865753 283.885529,509.472260 282.825958,513.059753 
	C280.948547,514.342590 279.129761,515.723450 277.181976,516.888672 
	C272.587921,519.636963 267.932465,522.282654 262.570770,525.064209 
	C262.366455,525.200745 262.162170,525.337219 261.366028,525.554504 
	C260.145020,526.392639 258.924042,527.230835 257.103729,528.374084 
	C256.979767,528.560852 256.855835,528.747620 256.116974,528.899170 
	C243.565308,536.283936 231.013657,543.668701 218.039429,551.212708 
	C218.039429,551.212708 217.877975,551.634460 217.349426,551.725708 
	C216.607162,552.120789 215.864883,552.515869 214.931625,552.892639 
	C214.931625,552.892639 214.905472,553.082703 214.225128,553.235291 
	C208.791061,555.066895 206.885376,558.563843 206.979813,564.521423 
	C207.335419,586.954895 207.081482,609.398071 207.059402,631.837585 
	C207.052948,638.406128 207.058411,644.974670 207.058411,652.622498 
	C210.658813,650.619141 213.206741,649.221924 215.735535,647.790894 
	C229.107269,640.223816 242.474182,632.648193 256.608582,624.895874 
	C257.451233,624.293701 258.293884,623.691528 259.727814,623.089966 
	C262.048248,621.395630 264.368652,619.701294 267.021332,617.915161 
	C267.021332,617.915161 267.088104,617.576965 267.634094,617.492126 
M782.828125,585.040405 
	C782.828247,539.543640 782.831787,494.046906 782.824585,448.550171 
	C782.823547,442.085632 780.093872,439.031830 774.179260,439.020996 
	C755.514038,438.986755 736.848389,439.064575 718.183655,438.965210 
	C714.174255,438.943878 711.411438,440.607758 709.907593,444.114075 
	C708.683289,446.968628 707.963318,450.036957 706.972473,452.994659 
	C704.242676,461.142273 701.410461,469.256439 698.766785,477.431702 
	C696.447327,484.604218 694.328308,491.841553 691.803345,500.086731 
	C690.532959,498.257599 689.536133,497.351410 689.188049,496.241699 
	C684.292847,480.635162 679.401611,465.026337 674.690735,449.363495 
	C672.044250,440.564453 670.210266,439.007141 661.034729,439.006622 
	C643.369385,439.005585 625.703979,438.989410 608.038635,439.017456 
	C601.968445,439.027130 599.029846,441.784668 599.025574,447.671478 
	C598.992249,494.001373 598.990784,540.331299 599.026062,586.661194 
	C599.031250,593.494324 602.332764,596.757812 609.107544,596.811096 
	C616.939819,596.872742 624.772888,596.822571 632.605652,596.826965 
	C641.169434,596.831787 643.239197,594.807312 643.239929,586.299072 
	C643.241577,566.967163 643.200928,547.635254 643.240234,528.303467 
	C643.244080,526.400269 643.682312,524.497925 644.031372,521.691101 
	C645.214355,523.058411 645.666687,523.360413 645.800049,523.767029 
	C652.912292,545.456665 660.026123,567.145813 667.066895,588.858704 
	C668.997925,594.813782 671.589111,596.825134 677.956360,596.826904 
	C683.789246,596.828552 689.622559,596.790161 695.454956,596.842651 
	C700.754272,596.890320 704.301086,594.301880 706.051514,589.489258 
	C707.916138,584.362732 709.457092,579.115601 711.051575,573.894409 
	C715.447083,559.500977 719.756104,545.080994 724.199951,530.702576 
	C725.055420,527.934265 726.368042,525.307251 727.469788,522.615051 
	C727.992371,522.719910 728.514954,522.824707 729.037598,522.929565 
	C729.225281,524.949890 729.572632,526.970032 729.575928,528.990662 
	C729.607239,548.155762 729.512268,567.321167 729.602173,586.485901 
	C729.639465,594.433777 732.245972,596.818359 740.202393,596.825378 
	C750.534973,596.834412 760.867493,596.836304 771.200073,596.824097 
	C779.319336,596.814514 782.305847,594.001404 782.828125,585.040405 
z"/>
<path fill="#FDFCFC" opacity="1.000000" stroke="none" 
	d="
M283.303711,513.078735 
	C283.885529,509.472260 284.467377,505.865753 285.312012,501.800476 
	C285.574860,501.341705 285.553986,501.207886 285.553986,501.207886 
	C285.979340,499.254852 286.404694,497.301849 287.177673,494.886719 
	C287.525269,494.424591 287.508972,494.262726 287.508972,494.262726 
	C292.842010,474.921234 304.847809,461.400726 323.497681,454.194336 
	C330.702881,451.410217 338.294708,449.253174 345.906067,447.980164 
	C357.662170,446.013855 368.941437,449.322662 380.033966,452.979706 
	C381.441986,453.443909 382.864807,453.863373 384.810486,454.658142 
	C386.818665,455.831421 388.297119,456.650116 389.991028,457.674011 
	C391.104370,458.287720 392.002319,458.696198 393.041321,459.411438 
	C395.706543,461.397552 398.230682,463.076874 400.782349,464.757416 
	C400.809814,464.758606 400.864777,464.755615 400.845032,464.770142 
	C400.825317,464.784668 400.799042,464.826080 400.787048,465.190369 
	C413.173065,476.245789 419.143219,490.278687 421.337769,506.073547 
	C422.380066,513.575195 422.589447,521.192627 423.176147,528.757568 
	C421.746368,542.712341 419.123688,556.411133 410.703003,568.009521 
	C400.722473,581.756409 388.026733,591.591370 370.747345,595.123535 
	C352.872162,598.777344 335.841766,596.632629 318.609436,589.680420 
	C316.724396,588.622559 315.331635,587.973450 313.674988,587.097534 
	C303.284027,580.974182 297.311249,571.394165 291.184235,561.545715 
	C290.092316,559.463257 289.073944,557.720764 288.088593,555.601440 
	C287.930664,554.500916 287.739716,553.777344 287.588684,552.751526 
	C287.150818,551.821960 286.673065,551.194641 286.219238,550.207520 
	C286.040833,548.914124 285.838531,547.980408 285.707153,546.688965 
	C285.134613,544.567993 284.491119,542.804932 283.937927,540.627686 
	C283.866516,538.825684 283.704773,537.437683 283.647858,535.620483 
	C283.280609,532.243713 282.808563,529.296265 282.469849,526.167114 
	C282.696625,525.674011 282.648743,525.386108 282.660461,524.788574 
	C283.008850,520.663208 283.156281,516.870972 283.303711,513.078735 
M336.889282,559.852234 
	C341.559174,567.889648 360.556549,568.815979 368.238922,560.619995 
	C368.477295,560.336243 368.715668,560.052429 369.580688,559.573242 
	C370.510284,558.032959 371.683807,556.588440 372.331604,554.937561 
	C378.447052,539.352539 376.662659,523.179077 375.848755,506.392090 
	C375.746094,505.947327 375.643402,505.502594 375.730927,504.258423 
	C374.670837,499.908691 373.763855,495.514740 372.521606,491.217682 
	C368.994476,479.017456 351.892365,473.496124 340.838684,481.351074 
	C340.566193,481.606995 340.293701,481.862946 339.417328,482.217102 
	C338.727753,483.163330 338.038208,484.109528 336.863739,485.443115 
	C336.603210,485.763123 336.342682,486.083130 335.461670,486.631683 
	C334.053101,490.644073 332.157654,494.557861 331.321472,498.686188 
	C327.967285,515.246155 327.999725,531.919312 331.358215,548.449158 
	C332.130280,552.248962 334.950165,555.632751 336.933990,559.072083 
	C336.933990,559.072083 336.794525,559.173767 336.889282,559.852234 
z"/>
<path fill="#F7A423" opacity="1.000000" stroke="none" 
	d="
M392.900238,459.104675 
	C392.002319,458.696198 391.104370,458.287720 390.040833,457.263367 
	C390.318634,455.438202 390.399536,453.723724 391.265045,453.102600 
	C396.410339,449.410278 401.737213,445.970917 407.661621,442.005798 
	C407.994568,446.518372 409.970276,447.161621 413.278809,445.976196 
	C414.867035,444.977386 416.075592,443.986542 417.409027,442.893311 
	C414.831146,441.552704 413.399200,440.808044 412.256470,439.887177 
	C414.327118,439.100891 416.108612,438.490814 417.291016,438.085907 
	C427.082336,430.790497 422.935455,424.926300 415.399078,419.537018 
	C412.035736,420.603058 408.658844,421.422913 406.619965,416.674500 
	C406.208344,415.715881 403.889038,415.323792 402.394562,415.155273 
	C400.960724,414.993561 399.357483,415.892731 397.998291,415.582520 
	C389.232910,413.582123 381.631317,408.217804 372.577484,406.792267 
	C370.857300,406.521393 369.540161,403.690674 368.017456,402.019775 
	C367.997894,401.998474 367.958069,401.956512 367.934509,401.628357 
	C366.485199,397.757874 364.550964,400.445709 362.815460,400.898285 
	C361.189758,401.322205 359.330261,402.575073 358.001709,402.143982 
	C345.713745,398.156433 333.486237,393.973969 321.314636,389.641663 
	C317.219727,388.184143 313.331543,384.716064 309.356018,384.727173 
	C304.737488,384.740021 301.604248,382.621552 298.229431,380.738770 
	C302.199371,378.990662 304.899567,376.851959 303.013641,371.775635 
	C306.528137,372.384674 308.501251,371.635132 307.416199,368.002075 
	C311.751831,367.613495 315.663910,367.215912 319.517731,366.824219 
	C318.912811,364.660522 318.292999,362.443665 317.673218,360.226837 
	C319.900269,360.457062 322.127350,360.687256 324.621948,360.945129 
	C324.082306,359.117828 323.514984,357.196899 323.206604,356.152740 
	C318.766937,355.904877 314.789948,355.682861 310.653625,355.451935 
	C311.101135,353.081177 311.320190,351.920654 311.795807,349.400879 
	C309.425537,351.211304 308.110779,352.215515 307.054443,353.022339 
	C305.669006,352.080231 304.364960,351.193512 303.060944,350.306763 
	C302.315887,350.237305 301.570831,350.167877 300.825745,350.098419 
	C307.325500,358.273621 297.580139,357.865631 295.839874,362.385742 
	C305.110626,359.865601 307.830688,361.413696 306.656494,367.989929 
	C303.652069,368.191559 300.998260,368.410614 296.937988,368.745789 
	C298.647034,371.674683 299.786713,373.627808 301.032776,375.763275 
	C300.307892,375.973846 298.854492,376.685669 298.636932,376.412659 
	C297.125122,374.515625 295.869934,372.414093 294.277435,369.989960 
	C292.843140,372.331726 290.860992,374.023315 293.905365,376.442627 
	C294.723328,377.092651 294.705750,378.794006 294.712097,379.864441 
	C290.411591,377.880768 286.470032,376.046906 282.530518,374.208710 
	C281.788513,373.862518 281.088348,373.375488 280.311554,373.162720 
	C268.994934,370.063110 268.554962,369.534607 267.772278,357.751404 
	C267.772278,357.751404 267.903259,357.911804 268.159241,357.832703 
	C268.876312,357.087311 269.337402,356.421021 269.798492,355.754761 
	C269.798492,355.754761 269.912292,355.908539 270.226746,355.893982 
	C271.034058,355.825378 271.566376,355.873962 272.013916,355.701965 
	C279.722137,352.738892 286.747253,347.537628 295.691620,348.586823 
	C296.306061,348.658875 297.012268,347.744415 297.710205,347.349640 
	C299.379486,346.405487 300.968933,345.106323 302.768738,344.644592 
	C309.612305,342.888763 316.520874,341.383301 323.416565,339.834961 
	C327.086060,339.011017 330.756409,338.139771 334.470703,337.588257 
	C336.306976,337.315643 338.243591,337.718872 340.134827,337.816284 
	C339.456879,339.445190 338.778931,341.074066 337.556641,344.010742 
	C339.691010,343.489990 341.353699,343.084320 344.474792,342.322784 
	C343.978210,344.702087 343.992950,348.140900 343.069733,348.414520 
	C339.963074,349.335144 337.534637,354.351837 333.360260,350.556946 
	C333.016388,350.244293 331.810211,350.880096 330.748779,351.119385 
	C330.664368,351.751526 330.835846,352.339508 331.334167,352.987061 
	C333.295563,355.744659 334.930115,358.442719 336.083405,360.346436 
	C334.535187,363.292236 333.380096,365.489990 332.225037,367.687744 
	C332.682648,367.970551 333.140228,368.253387 333.597839,368.536194 
	C334.149933,368.057434 334.629272,367.420776 335.266663,367.126953 
	C338.191925,365.778290 341.328125,361.204102 344.174164,364.420441 
	C347.569550,368.257507 351.113617,366.375427 354.614258,367.081635 
	C365.272186,369.231628 375.883789,371.626495 386.470154,374.110596 
	C393.851257,375.842621 401.161133,377.878082 408.434998,379.760468 
	C407.926086,380.695496 407.239166,381.957642 406.092285,384.064880 
	C408.773499,383.241821 410.406067,382.740631 412.052826,382.235107 
	C412.808960,383.665985 413.419128,384.820648 413.963928,386.316223 
	C412.319519,388.631531 410.740509,390.605957 409.933777,391.614716 
	C411.707123,394.352539 412.924377,396.231781 414.336517,398.411987 
	C415.333679,398.147308 416.696503,397.785553 418.329712,397.352051 
	C418.119293,398.940582 417.958435,400.155090 417.691162,402.172760 
	C421.007904,397.260376 423.785431,393.146606 425.889282,390.030640 
	C423.431763,388.950836 421.104614,387.853607 418.716583,386.910583 
	C417.520508,386.438263 416.213470,386.247101 414.959900,385.531982 
	C415.794708,383.830597 416.626160,382.526062 417.457611,381.221527 
	C421.771088,384.325348 426.900055,385.186523 431.861725,386.536469 
	C432.366547,386.673828 432.675354,387.531677 433.081909,388.387268 
	C433.500549,389.931610 433.912384,391.143829 434.634521,393.269379 
	C432.067535,393.713318 429.764252,394.111664 426.822662,394.620361 
	C426.308075,396.219177 425.578888,398.484680 425.099487,399.974091 
	C429.202423,398.937500 432.838135,398.018921 436.622681,397.062775 
	C435.919830,394.135010 436.435303,391.721497 441.051697,392.740479 
	C441.546631,392.849731 442.344849,391.584900 443.412354,390.963257 
	C447.355347,391.132385 451.102264,390.907440 451.946899,394.602631 
	C470.268555,399.531006 482.006439,411.345276 490.520264,427.425690 
	C489.341461,428.204926 487.769989,429.243713 486.276398,430.231018 
	C486.983093,432.616333 487.588440,434.659546 488.349915,437.229767 
	C489.925415,434.792511 491.109131,432.961365 492.292847,431.130249 
	C492.748413,431.280731 493.203949,431.431183 493.659515,431.581665 
	C493.784546,433.984375 493.909607,436.387085 493.572571,438.886658 
	C480.709076,438.826294 468.307617,438.669067 455.846313,438.307251 
	C455.220917,438.251343 454.655396,438.399994 453.695618,438.714294 
	C445.091156,439.634583 443.005249,442.050476 442.995514,450.181335 
	C442.968842,472.434509 442.838440,494.687531 442.749115,516.940613 
	C436.437286,520.834351 430.125488,524.728149 423.494904,528.689697 
	C422.589447,521.192627 422.380066,513.575195 421.337769,506.073547 
	C419.143219,490.278687 413.173065,476.245789 401.182495,465.020874 
	C402.393005,463.739807 403.196106,462.992615 404.373657,462.179291 
	C405.826538,461.043121 406.887451,459.954620 407.988586,458.908417 
	C408.981506,457.965027 410.018463,457.067993 411.115356,456.419067 
	C411.775299,457.105164 412.355896,457.522705 412.946716,458.291077 
	C412.960175,459.109833 412.963440,459.577759 412.650208,460.155518 
	C411.998779,461.414642 411.663879,462.563965 411.328979,463.713318 
	C412.539978,463.792999 413.751007,463.872681 415.283600,463.871307 
	C417.096771,462.184418 418.588318,460.578552 420.500732,458.972595 
	C422.879120,458.977966 424.836700,458.983429 427.071289,459.218445 
	C430.260254,459.448029 433.172180,459.448029 436.084106,459.448029 
	C436.163788,458.863922 436.243469,458.279816 436.323151,457.695709 
	C433.213806,457.154266 430.104462,456.612854 426.638184,455.994202 
	C424.534698,456.254822 422.788177,456.592682 420.746155,456.755615 
	C419.294861,455.013489 418.139038,453.446289 417.074097,451.577332 
	C417.670868,450.178070 418.176788,449.080536 418.682709,447.983002 
	C418.267059,447.672913 417.851379,447.362823 417.435730,447.052734 
	C415.302307,449.017426 413.168854,450.982086 410.647858,452.883118 
	C407.711456,452.552307 404.803772,450.191406 402.777557,454.254639 
	C402.407867,454.925568 402.226166,455.411713 401.749451,455.990356 
	C401.286652,457.400665 401.118805,458.718506 400.601440,460.012329 
	C397.801392,459.693726 395.350800,459.399200 392.900238,459.104675 
M318.676422,352.863953 
	C320.024658,352.031189 321.372925,351.198425 322.721161,350.365662 
	C322.238373,349.840790 321.755615,349.315918 321.272858,348.791046 
	C320.185699,350.197754 319.098541,351.604462 317.337097,353.012756 
	C316.887695,353.012146 316.438324,353.011536 316.028076,352.299438 
	C316.466003,350.733490 316.903900,349.167542 317.341827,347.601562 
	C315.232941,349.114136 312.200623,350.539032 316.137848,353.499817 
	C316.755341,353.329498 317.372803,353.159180 318.676422,352.863953 
M386.531799,401.660492 
	C387.050934,400.161804 387.570099,398.663147 388.089264,397.164490 
	C387.400391,396.793182 386.711517,396.421875 386.022644,396.050568 
	C384.701874,398.041412 383.381073,400.032288 382.078644,402.736145 
	C382.855164,404.045227 383.631683,405.354279 384.408203,406.663361 
	C384.815613,406.513062 385.222992,406.362762 385.630371,406.212433 
	C385.737061,404.830444 385.843719,403.448425 386.531799,401.660492 
M333.672607,346.802338 
	C333.452118,344.823639 333.231659,342.844940 333.011200,340.866241 
	C331.132965,341.639282 329.254730,342.412323 327.932343,342.956604 
	C329.967010,344.578583 331.475006,345.780731 332.316956,346.999695 
	C331.477844,347.218292 330.638733,347.436920 329.799622,347.655518 
	C329.980835,348.062958 330.162048,348.470398 330.343262,348.877838 
	C331.234528,348.258118 332.125763,347.638367 333.672607,346.802338 
M402.885193,410.336121 
	C400.902832,410.055206 398.920502,409.774323 396.795227,409.473145 
	C399.943634,414.024780 400.112000,414.024200 410.683624,409.683624 
	C411.490662,410.758972 412.264465,411.790039 413.038269,412.821136 
	C414.363617,411.397308 415.688965,409.973450 417.254303,408.291748 
	C415.291870,407.580505 413.976318,407.487518 413.279327,406.782745 
	C410.653320,404.127533 408.591705,404.173462 406.515900,407.423218 
	C405.842499,408.477448 404.520233,409.117188 402.885193,410.336121 
M435.906860,408.366211 
	C438.540649,406.038269 441.174438,403.710327 443.808228,401.382385 
	C435.539703,402.990784 426.541382,410.993317 427.759033,414.750092 
	C430.438507,412.760406 432.984467,410.869934 435.906860,408.366211 
M392.005524,397.486176 
	C393.685486,396.589203 395.365448,395.692230 396.996490,394.821411 
	C399.130463,395.898285 401.374664,397.030792 403.618896,398.163330 
	C403.783569,397.806763 403.948242,397.450226 404.112885,397.093658 
	C401.849121,395.027924 399.585327,392.962189 397.244476,390.826141 
	C393.638733,391.156555 390.764160,392.337006 392.005524,397.486176 
M436.599487,430.697052 
	C435.603699,430.383942 434.607910,430.070831 432.607635,429.441895 
	C433.769409,432.155396 434.535370,433.944397 435.756470,436.796478 
	C438.720947,433.448547 440.898651,430.989197 443.076355,428.529816 
	C442.620605,428.071228 442.164856,427.612640 441.709106,427.154022 
	C440.210693,428.276855 438.712280,429.399689 436.599487,430.697052 
M420.531281,440.965485 
	C421.490204,442.256561 422.449097,443.547638 423.408020,444.838715 
	C423.943481,444.276215 424.478943,443.713684 425.014435,443.151154 
	C423.671265,442.275818 422.328125,441.400482 420.531281,440.965485 
M420.517303,416.073883 
	C419.645294,416.447266 418.773285,416.820648 417.901276,417.194031 
	C418.317719,417.775879 418.734192,418.357758 419.150635,418.939606 
	C420.295380,418.550293 421.440155,418.161011 422.584900,417.771698 
	C422.077026,417.103577 421.569183,416.435425 420.517303,416.073883 
M378.767334,401.856842 
	C378.683868,402.593689 378.600403,403.330536 378.516937,404.067383 
	C378.836517,404.089722 379.156067,404.112091 379.475647,404.134430 
	C379.413361,403.380402 379.351105,402.626373 378.767334,401.856842 
M324.783752,347.158875 
	C325.003052,347.649323 325.222351,348.139801 325.441650,348.630249 
	C325.839935,348.231812 326.238220,347.833405 326.636505,347.434998 
	C326.146912,347.214996 325.657318,346.995026 324.783752,347.158875 
z"/>
<path fill="#E7E9F2" opacity="1.000000" stroke="none" 
	d="
M782.828857,585.479187 
	C782.305847,594.001404 779.319336,596.814514 771.200073,596.824097 
	C760.867493,596.836304 750.534973,596.834412 740.202393,596.825378 
	C732.245972,596.818359 729.639465,594.433777 729.602173,586.485901 
	C729.512268,567.321167 729.607239,548.155762 729.575928,528.990662 
	C729.572632,526.970032 729.225281,524.949890 729.037598,522.929565 
	C728.514954,522.824707 727.992371,522.719910 727.469788,522.615051 
	C726.368042,525.307251 725.055420,527.934265 724.199951,530.702576 
	C719.756104,545.080994 715.447083,559.500977 711.051575,573.894409 
	C709.457092,579.115601 707.916138,584.362732 706.051514,589.489258 
	C704.301086,594.301880 700.754272,596.890320 695.454956,596.842651 
	C689.622559,596.790161 683.789246,596.828552 677.956360,596.826904 
	C671.589111,596.825134 668.997925,594.813782 667.066895,588.858704 
	C660.026123,567.145813 652.912292,545.456665 645.800049,523.767029 
	C645.666687,523.360413 645.214355,523.058411 644.031372,521.691101 
	C643.682312,524.497925 643.244080,526.400269 643.240234,528.303467 
	C643.200928,547.635254 643.241577,566.967163 643.239929,586.299072 
	C643.239197,594.807312 641.169434,596.831787 632.605652,596.826965 
	C624.772888,596.822571 616.939819,596.872742 609.107544,596.811096 
	C602.332764,596.757812 599.031250,593.494324 599.026062,586.661194 
	C598.990784,540.331299 598.992249,494.001373 599.025574,447.671478 
	C599.029846,441.784668 601.968445,439.027130 608.038635,439.017456 
	C625.703979,438.989410 643.369385,439.005585 661.034729,439.006622 
	C670.210266,439.007141 672.044250,440.564453 674.690735,449.363495 
	C679.401611,465.026337 684.292847,480.635162 689.188049,496.241699 
	C689.536133,497.351410 690.532959,498.257599 691.803345,500.086731 
	C694.328308,491.841553 696.447327,484.604218 698.766785,477.431702 
	C701.410461,469.256439 704.242676,461.142273 706.972473,452.994659 
	C707.963318,450.036957 708.683289,446.968628 709.907593,444.114075 
	C711.411438,440.607758 714.174255,438.943878 718.183655,438.965210 
	C736.848389,439.064575 755.514038,438.986755 774.179260,439.020996 
	C780.093872,439.031830 782.823547,442.085632 782.824585,448.550171 
	C782.831787,494.046906 782.828247,539.543640 782.828857,585.479187 
M607.074280,449.397888 
	C607.074280,449.397888 607.104126,449.507294 606.869019,450.394043 
	C606.849487,494.608002 606.827942,538.821960 606.822998,583.035889 
	C606.822876,584.022217 607.011597,585.008545 606.861450,586.750366 
	C607.909119,587.462280 608.956848,588.174194 610.913696,589.129456 
	C618.273804,589.042725 625.633911,588.955994 633.896179,588.978699 
	C634.480164,587.109558 635.565552,585.242371 635.572876,583.371033 
	C635.679932,556.070374 635.628845,528.769165 635.658569,501.468140 
	C635.662292,498.074097 635.925110,493.817322 640.082153,493.931274 
	C642.109558,493.986877 644.949646,497.599579 645.850769,500.155975 
	C651.720886,516.807251 657.232117,533.586914 662.714233,550.372498 
	C666.357300,561.526978 669.763367,572.758911 673.262207,583.960388 
	C674.328796,587.375000 675.826172,589.766724 680.204956,589.317505 
	C684.652710,588.861328 689.187500,589.110046 693.677429,589.257507 
	C696.745300,589.358154 698.202271,587.908020 698.932495,585.103333 
	C699.971680,581.111755 701.066162,577.123596 702.384216,573.217468 
	C706.182312,561.961365 710.308350,550.812317 713.925293,539.499695 
	C718.303406,525.805908 722.132080,511.935211 726.606995,498.274902 
	C727.350403,496.005524 729.851135,493.660370 732.114258,492.689514 
	C735.713562,491.145477 735.812134,495.425934 737.281006,498.036102 
	C737.270020,525.276550 737.248352,552.516968 737.272400,579.757385 
	C737.273987,581.557495 737.624084,583.357422 737.407288,585.733154 
	C736.932800,588.584229 738.062073,589.664917 741.760803,589.118225 
	C751.571960,589.035339 761.383057,588.952454 771.877197,589.130676 
	C776.239807,589.398315 774.988831,586.121765 774.991272,583.922424 
	C775.039978,540.314270 775.030273,496.705994 775.015320,453.097748 
	C775.014771,451.611420 774.836243,450.125183 774.522339,447.749054 
	C773.933960,447.485168 773.346252,446.992279 772.757202,446.990723 
	C754.997803,446.943665 737.237976,446.906342 719.479492,447.032837 
	C718.387329,447.040619 717.304749,448.401093 716.001282,449.476288 
	C716.001282,449.476288 716.147400,449.855591 715.934143,450.315308 
	C715.977173,450.478668 716.020142,450.641998 715.652893,451.317047 
	C715.209717,452.798950 714.766541,454.280853 714.027283,456.344391 
	C713.928894,457.200623 713.830566,458.056854 713.129883,459.330963 
	C712.843628,460.474548 712.557373,461.618134 711.975281,463.340149 
	C711.872131,464.191620 711.768982,465.043060 711.069397,466.277466 
	C710.806885,467.151611 710.544434,468.025787 709.971802,469.647797 
	C709.938599,470.448547 709.905396,471.249298 709.347351,472.249512 
	C709.023682,473.088135 708.699951,473.926758 708.068665,475.398376 
	C707.908386,476.558075 707.748169,477.717773 706.984314,479.290283 
	C706.723572,480.440582 706.462830,481.590912 705.840271,483.191925 
	C705.789917,483.751160 705.739563,484.310394 705.049011,485.185364 
	C704.536133,486.453125 704.023315,487.720917 703.121155,489.593384 
	C702.863525,491.006348 702.605896,492.419281 701.809631,494.126038 
	C701.661560,494.694397 701.513428,495.262787 701.044739,496.445343 
	C700.884766,497.586945 700.724731,498.728546 699.962708,500.247345 
	C699.750488,501.127808 699.538269,502.008301 699.053406,503.652069 
	C699.004395,504.454590 698.955383,505.257141 698.367371,506.281372 
	C698.040222,507.147003 697.713135,508.012604 697.080322,509.639038 
	C697.040161,510.452942 697.000061,511.266846 696.448425,512.287109 
	C691.685608,517.707458 689.929077,517.536072 686.433716,511.365692 
	C686.127502,510.825287 685.542542,510.442749 685.174866,509.181641 
	C684.985596,508.398987 684.796326,507.616364 684.721191,506.257446 
	C684.178345,505.503448 683.635437,504.749420 683.215088,503.194031 
	C683.040466,502.408386 682.865784,501.622742 682.821533,500.198364 
	C682.213074,499.124359 681.604614,498.050323 681.088806,496.252594 
	C680.955627,495.788727 680.822388,495.324890 680.810974,494.129120 
	C680.292297,493.058167 679.773560,491.987213 679.357483,490.265778 
	C679.131104,489.424255 678.904724,488.582703 678.805969,487.116425 
	C678.202698,486.069733 677.599426,485.023010 677.088867,483.252594 
	C676.955627,482.788727 676.822388,482.324860 676.823792,481.219482 
	C676.214478,480.138306 675.605225,479.057129 675.087219,477.251251 
	C674.951904,476.787506 674.816650,476.323761 674.826843,475.222351 
	C674.264343,474.134796 673.701904,473.047211 673.246582,471.159698 
	C673.043091,470.384796 672.839600,469.609863 672.723877,468.256500 
	C672.194153,467.492004 671.664368,466.727539 671.243835,465.162598 
	C671.041321,464.386719 670.838745,463.610840 670.723877,462.256500 
	C670.194153,461.492035 669.664368,460.727539 669.243835,459.162598 
	C669.041260,458.386719 668.838745,457.610840 668.674683,456.119171 
	C668.000671,454.385132 667.326660,452.651062 666.696777,450.067688 
	C665.368713,445.682007 662.049377,446.891327 658.116821,447.004639 
	C643.076538,447.113068 628.036194,447.221497 612.135681,447.017548 
	C610.460144,447.775024 608.784607,448.532471 607.074280,449.397888 
z"/>
<path fill="#F5A426" opacity="1.000000" stroke="none" 
	d="
M285.636230,547.046753 
	C285.838531,547.980408 286.040833,548.914124 286.190063,550.524048 
	C286.607574,551.818176 287.078186,552.435913 287.548798,553.053711 
	C287.739716,553.777344 287.930664,554.500916 287.825653,555.812256 
	C285.770721,557.786255 284.011780,559.172607 282.252808,560.558960 
	C282.504333,560.929382 282.755890,561.299805 283.007416,561.670227 
	C284.577057,560.974609 286.146698,560.278931 287.714294,559.586060 
	C288.894073,560.354553 290.075928,561.120117 291.257782,561.885742 
	C297.311249,571.394165 303.284027,580.974182 313.669250,587.440674 
	C312.667847,589.937134 311.408203,591.863770 310.148560,593.790405 
	C309.619385,594.170044 309.090179,594.549744 307.782043,595.060303 
	C305.389801,596.149963 303.776520,597.108704 302.163269,598.067505 
	C301.316101,598.669678 300.468933,599.271851 298.974152,600.018616 
	C297.578918,600.637451 296.831299,601.111694 296.083679,601.585876 
	C295.505554,602.055847 294.927399,602.525757 293.676208,603.092163 
	C291.384460,604.201416 289.765778,605.214294 288.147095,606.227173 
	C287.415436,606.725586 286.683777,607.223999 285.239929,607.929932 
	C280.110443,610.448059 275.693146,612.758606 271.275848,615.069214 
	C271.150726,615.256714 271.025604,615.444275 270.341217,615.835449 
	C268.884003,616.551636 267.986053,617.064270 267.088104,617.576965 
	C267.088104,617.576965 267.021332,617.915161 266.525757,617.993713 
	C263.732330,619.744629 261.434448,621.416992 259.136566,623.089355 
	C258.293884,623.691528 257.451233,624.293701 255.873871,625.002075 
	C245.216156,630.461487 235.276886,635.784790 225.376602,641.179626 
	C219.957611,644.132568 214.604401,647.206177 208.182495,650.808105 
	C208.182495,643.863464 208.120331,638.433716 208.198975,633.005981 
	C208.287903,626.869263 208.642929,620.733887 208.623993,614.598755 
	C208.605362,608.569641 205.453079,601.775513 213.214935,597.898132 
	C213.368057,597.821716 213.293655,597.289795 213.324768,596.966675 
	C211.687622,596.665222 210.051102,596.367432 209.040604,596.183594 
	C208.601273,587.402405 208.199158,579.364746 207.785721,571.100830 
	C209.481567,571.007141 210.623978,570.944031 211.993835,570.868408 
	C211.993835,568.974670 211.993835,567.484314 212.375839,565.997314 
	C215.471191,566.238220 218.184555,566.475708 222.025040,566.811890 
	C221.301437,564.637817 220.591156,562.503784 220.002991,560.736694 
	C216.737152,561.191711 214.396866,561.517822 211.464569,561.926392 
	C211.644287,563.278748 211.825500,564.642395 211.700043,566.032288 
	C210.390610,565.133789 208.418396,564.007874 208.560974,563.320801 
	C209.052643,560.951599 210.064163,558.606201 211.308853,556.507385 
	C212.121643,555.136841 213.680695,554.208923 214.905472,553.082703 
	C214.905472,553.082703 214.931625,552.892639 215.285645,552.869019 
	C216.385757,552.441711 217.131851,552.038086 217.877960,551.634460 
	C217.877975,551.634460 218.039429,551.212708 218.635681,551.108093 
	C222.287476,551.117920 226.471359,549.745972 224.630875,556.947083 
	C229.748383,555.943481 234.040588,555.101807 238.332809,554.260071 
	C234.724884,550.257446 227.690796,554.336121 226.937683,547.904785 
	C237.263214,541.330383 246.997574,535.132385 256.731934,528.934387 
	C256.855835,528.747620 256.979767,528.560852 257.684692,528.162598 
	C259.496399,527.125366 260.727142,526.299500 261.957855,525.473694 
	C262.162170,525.337219 262.366455,525.200745 263.253387,524.933594 
	C266.735687,524.086548 269.258698,520.598572 272.491211,524.540466 
	C272.179413,517.567993 277.637451,518.317749 280.908142,516.220947 
	C281.503174,519.634705 281.981354,522.378235 282.459564,525.121765 
	C282.648743,525.386108 282.696625,525.674011 282.364502,526.646973 
	C282.598206,530.222290 283.070618,533.135986 283.543030,536.049744 
	C283.704773,537.437683 283.866516,538.825684 283.681885,540.786682 
	C281.106354,544.467468 283.910553,545.538940 285.636230,547.046753 
M267.417755,557.302795 
	C267.785034,558.872803 267.879852,560.584900 268.601715,561.970093 
	C269.233887,563.183228 270.570465,564.029236 272.054504,565.488342 
	C272.054504,560.488525 272.054504,557.111877 272.054504,552.099182 
	C270.110077,553.992737 268.772278,555.295471 267.417755,557.302795 
M239.976410,569.908813 
	C240.384933,570.629517 240.624100,571.700806 241.237595,571.997131 
	C242.474960,572.594788 243.915894,572.770935 245.272858,573.120972 
	C245.261993,571.722473 245.772736,569.997253 245.140549,568.987976 
	C243.385529,566.186279 241.438248,567.572571 239.976410,569.908813 
M275.226349,538.985718 
	C275.407104,540.533203 275.587860,542.080688 275.768585,543.628174 
	C277.550446,542.545898 278.366028,541.508850 278.688477,540.336243 
	C279.023407,539.118225 278.881439,537.769043 278.948059,536.477234 
	C277.791809,537.067749 276.635559,537.658264 275.226349,538.985718 
M225.876297,585.044983 
	C226.032181,585.668945 226.188065,586.292969 226.343948,586.916931 
	C228.814590,585.531921 231.285233,584.146851 233.755875,582.761841 
	C233.402145,582.170471 233.048431,581.579102 232.694702,580.987732 
	C230.629623,582.277832 228.564560,583.567993 225.876297,585.044983 
M217.756088,593.277771 
	C218.225037,592.891968 218.694000,592.506165 219.162933,592.120361 
	C218.548080,591.800537 217.664719,591.050964 217.366241,591.237427 
	C216.259186,591.929138 215.344879,592.929321 213.477081,594.603210 
	C215.317993,594.373535 215.657944,594.400085 215.935135,594.280823 
	C216.375702,594.091187 216.774399,593.804382 217.756088,593.277771 
z"/>
<path fill="#ECECEF" opacity="1.000000" stroke="none" 
	d="
M442.830353,517.406128 
	C442.838440,494.687531 442.968842,472.434509 442.995514,450.181335 
	C443.005249,442.050476 445.091156,439.634583 453.996460,438.780640 
	C455.096375,438.624847 455.501251,438.568329 455.906158,438.511841 
	C468.307617,438.669067 480.709076,438.826294 493.760620,438.975159 
	C494.956604,438.897583 495.502533,438.828308 496.048462,438.759033 
	C504.992401,439.464508 513.966431,439.907684 522.874146,440.928864 
	C542.747925,443.207062 558.838684,452.284058 572.553772,467.005920 
	C584.195923,479.502655 588.080444,494.112915 589.486084,510.329620 
	C590.924194,526.920593 589.548340,543.170227 580.989197,557.450623 
	C570.443970,575.044556 556.051880,588.497375 534.893860,593.241516 
	C522.119141,596.105957 509.336060,596.972595 496.351105,596.840881 
	C482.194702,596.697266 468.035309,596.867676 453.877960,596.783875 
	C446.086517,596.737793 443.045319,593.592590 443.025909,585.825073 
	C442.969391,563.173950 442.947235,540.522766 442.830353,517.406128 
M451.996307,510.961578 
	C451.928864,520.570801 451.786682,530.180237 451.811035,539.789246 
	C451.850067,555.191467 451.999420,570.593323 451.846130,586.744141 
	C452.898834,587.461365 453.951538,588.178650 455.911987,589.146301 
	C475.938873,589.009399 495.965729,588.872498 516.767334,588.891113 
	C530.475830,586.650208 543.982178,584.490173 555.439209,575.165344 
	C566.609924,566.073547 574.620850,555.095886 579.143555,541.660034 
	C582.894409,530.517151 583.376038,518.963318 581.869568,507.251495 
	C579.592834,489.551727 572.085510,474.874054 558.174011,463.490601 
	C548.906738,455.907501 538.007996,451.996643 526.561218,450.046509 
	C516.663086,448.360199 506.507874,448.182556 495.643982,447.089203 
	C482.320923,447.011505 468.996796,446.842651 455.676483,446.999268 
	C454.366516,447.014679 451.955750,449.020660 451.949371,450.113770 
	C451.833099,470.085175 452.006683,490.058258 451.996307,510.961578 
z"/>
<path fill="#E29C30" opacity="1.000000" stroke="none" 
	d="
M495.971222,438.341003 
	C495.502533,438.828308 494.956604,438.897583 494.222656,438.878326 
	C493.909607,436.387085 493.784546,433.984375 493.659515,431.581665 
	C493.203949,431.431183 492.748413,431.280731 492.292847,431.130249 
	C491.109131,432.961365 489.925415,434.792511 488.349915,437.229767 
	C487.588440,434.659546 486.983093,432.616333 486.276398,430.231018 
	C487.769989,429.243713 489.341461,428.204926 490.520264,427.425690 
	C482.006439,411.345276 470.268555,399.531006 451.946899,394.602631 
	C451.102264,390.907440 447.355347,391.132385 443.195618,390.671844 
	C439.404327,389.601471 436.239716,388.828339 433.075104,388.055176 
	C432.675354,387.531677 432.366547,386.673828 431.861725,386.536469 
	C426.900055,385.186523 421.771088,384.325348 417.457611,381.221527 
	C416.626160,382.526062 415.794708,383.830597 414.728546,385.548218 
	C414.493866,385.961334 414.029297,385.975342 414.029297,385.975342 
	C413.419128,384.820648 412.808960,383.665985 412.052826,382.235107 
	C410.406067,382.740631 408.773499,383.241821 406.092285,384.064880 
	C407.239166,381.957642 407.926086,380.695496 408.434998,379.760468 
	C401.161133,377.878082 393.851257,375.842621 386.470154,374.110596 
	C375.883789,371.626495 365.272186,369.231628 354.614258,367.081635 
	C351.113617,366.375427 347.569550,368.257507 344.174164,364.420441 
	C341.328125,361.204102 338.191925,365.778290 335.266663,367.126953 
	C334.629272,367.420776 334.149933,368.057434 333.597839,368.536194 
	C333.140228,368.253387 332.682648,367.970551 332.225037,367.687744 
	C333.380096,365.489990 334.535187,363.292236 336.083405,360.346436 
	C334.930115,358.442719 333.295563,355.744659 331.332245,352.678802 
	C331.003876,351.899109 331.004303,351.487152 331.004700,351.075226 
	C331.810211,350.880096 333.016388,350.244293 333.360260,350.556946 
	C337.534637,354.351837 339.963074,349.335144 343.069733,348.414520 
	C343.992950,348.140900 343.978210,344.702087 344.474792,342.322784 
	C341.353699,343.084320 339.691010,343.489990 337.556641,344.010742 
	C338.778931,341.074066 339.456879,339.445190 340.134827,337.816284 
	C338.243591,337.718872 336.306976,337.315643 334.470703,337.588257 
	C330.756409,338.139771 327.086060,339.011017 323.416565,339.834961 
	C316.520874,341.383301 309.612305,342.888763 302.768738,344.644592 
	C300.968933,345.106323 299.379486,346.405487 297.710205,347.349640 
	C297.012268,347.744415 296.306061,348.658875 295.691620,348.586823 
	C286.747253,347.537628 279.722137,352.738892 272.013916,355.701965 
	C271.566376,355.873962 271.034058,355.825378 270.153198,355.832855 
	C278.075958,352.220093 286.126465,347.739288 294.753418,345.283936 
	C311.175781,340.609924 327.867859,336.820099 344.559692,333.174957 
	C360.247467,329.749115 375.995361,326.383484 391.880341,324.158783 
	C400.997406,322.881958 410.439697,323.927399 420.053345,324.918365 
	C414.363586,326.738983 408.657562,328.510651 402.987457,330.390533 
	C391.503906,334.197784 379.973755,337.879547 368.588318,341.962891 
	C359.278900,345.301636 350.101135,349.028656 340.987671,352.874268 
	C339.237183,353.612946 338.056641,355.702301 336.613159,357.168549 
	C338.366150,358.473175 339.940216,360.451355 341.901367,360.972198 
	C353.897827,364.158478 366.042603,366.790375 378.023438,370.030334 
	C398.351318,375.527588 418.602631,381.309113 438.869568,387.029907 
	C450.086395,390.196106 460.929688,394.140472 470.479919,401.163696 
	C483.216797,410.530334 493.880524,421.201843 495.971222,438.341003 
M354.020447,336.759491 
	C354.588654,337.671326 355.156891,338.583130 355.725098,339.494965 
	C357.322662,338.166138 359.002411,336.915375 360.423767,335.419159 
	C360.622955,335.209473 359.555267,333.796234 358.567719,332.581512 
	C353.312744,330.183258 350.094452,335.884857 345.430969,335.946381 
	C345.136444,335.950256 344.597931,337.033386 344.646851,337.571320 
	C344.689240,338.037964 345.502045,338.873474 345.805847,338.804474 
	C347.459595,338.428650 349.067200,337.841003 350.678619,337.290833 
	C351.791565,336.910828 352.884918,336.473419 354.020447,336.759491 
M352.684814,343.357269 
	C349.235565,342.263763 347.811859,343.860504 348.232727,347.902618 
	C349.767029,346.592285 351.301331,345.281952 352.684814,343.357269 
z"/>
<path fill="#E29C30" opacity="1.000000" stroke="none" 
	d="
M297.968079,380.953827 
	C301.604248,382.621552 304.737488,384.740021 309.356018,384.727173 
	C313.331543,384.716064 317.219727,388.184143 321.314636,389.641663 
	C333.486237,393.973969 345.713745,398.156433 358.001709,402.143982 
	C359.330261,402.575073 361.189758,401.322205 362.815460,400.898285 
	C364.550964,400.445709 366.485199,397.757874 367.601776,401.635254 
	C366.454041,402.188843 365.615479,402.407410 364.776917,402.625977 
	C364.950806,403.035736 365.124664,403.445496 365.298553,403.855286 
	C366.211365,403.250519 367.124207,402.645782 368.037048,402.041046 
	C369.540161,403.690674 370.857300,406.521393 372.577484,406.792267 
	C381.631317,408.217804 389.232910,413.582123 397.998291,415.582520 
	C399.357483,415.892731 400.960724,414.993561 402.394562,415.155273 
	C403.889038,415.323792 406.208344,415.715881 406.619965,416.674500 
	C408.658844,421.422913 412.035736,420.603058 415.399078,419.537018 
	C422.935455,424.926300 427.082336,430.790497 417.291016,438.085907 
	C416.108612,438.490814 414.327118,439.100891 411.958008,440.022217 
	C405.547668,443.930176 413.190277,443.883972 412.899139,445.984161 
	C409.970276,447.161621 407.994568,446.518372 407.661621,442.005798 
	C401.737213,445.970917 396.410339,449.410278 391.265045,453.102600 
	C390.399536,453.723724 390.318634,455.438202 389.825409,457.058136 
	C388.297119,456.650116 386.818665,455.831421 385.202454,454.729919 
	C396.006500,447.878845 407.006226,441.404480 417.863647,434.699646 
	C422.737671,431.689789 422.725555,427.920380 417.351868,425.419678 
	C408.955109,421.512238 400.261810,418.162903 391.503571,415.126892 
	C369.134216,407.372528 346.599884,400.092926 324.247192,392.292084 
	C308.289948,386.723175 292.427155,380.849945 276.734039,374.582275 
	C272.970520,373.079193 269.702911,369.790375 266.848145,366.725800 
	C264.505615,364.211121 264.705841,360.887939 267.469604,357.919983 
	C268.554962,369.534607 268.994934,370.063110 280.311554,373.162720 
	C281.088348,373.375488 281.788513,373.862518 282.530518,374.208710 
	C286.470032,376.046906 290.411591,377.880768 294.988312,379.995270 
	C296.405487,380.500885 297.186768,380.727356 297.968079,380.953827 
z"/>
<path fill="#F9B040" opacity="1.000000" stroke="none" 
	d="
M214.565308,553.158997 
	C213.680695,554.208923 212.121643,555.136841 211.308853,556.507385 
	C210.064163,558.606201 209.052643,560.951599 208.560974,563.320801 
	C208.418396,564.007874 210.390610,565.133789 211.696686,566.029297 
	C212.000000,566.000000 211.993835,565.993958 211.993835,565.993958 
	C211.993835,567.484314 211.993835,568.974670 211.993835,570.868408 
	C210.623978,570.944031 209.481567,571.007141 207.785721,571.100830 
	C208.199158,579.364746 208.601273,587.402405 209.040604,596.183594 
	C210.051102,596.367432 211.687622,596.665222 213.324768,596.966675 
	C213.293655,597.289795 213.368057,597.821716 213.214935,597.898132 
	C205.453079,601.775513 208.605362,608.569641 208.623993,614.598755 
	C208.642929,620.733887 208.287903,626.869263 208.198975,633.005981 
	C208.120331,638.433716 208.182495,643.863464 208.182495,650.808105 
	C214.604401,647.206177 219.957611,644.132568 225.376602,641.179626 
	C235.276886,635.784790 245.216156,630.461487 255.490967,625.091919 
	C242.474182,632.648193 229.107269,640.223816 215.735535,647.790894 
	C213.206741,649.221924 210.658813,650.619141 207.058411,652.622498 
	C207.058411,644.974670 207.052948,638.406128 207.059402,631.837585 
	C207.081482,609.398071 207.335419,586.954895 206.979813,564.521423 
	C206.885376,558.563843 208.791061,555.066895 214.565308,553.158997 
z"/>
<path fill="#F9B040" opacity="1.000000" stroke="none" 
	d="
M256.424438,528.916748 
	C246.997574,535.132385 237.263214,541.330383 226.937683,547.904785 
	C227.690796,554.336121 234.724884,550.257446 238.332809,554.260071 
	C234.040588,555.101807 229.748383,555.943481 224.630875,556.947083 
	C226.471359,549.745972 222.287476,551.117920 218.846985,551.028442 
	C231.013657,543.668701 243.565308,536.283936 256.424438,528.916748 
z"/>
<path fill="#F9B040" opacity="1.000000" stroke="none" 
	d="
M282.660461,524.788574 
	C281.981354,522.378235 281.503174,519.634705 280.908142,516.220947 
	C277.637451,518.317749 272.179413,517.567993 272.491211,524.540466 
	C269.258698,520.598572 266.735687,524.086548 263.618896,524.886353 
	C267.932465,522.282654 272.587921,519.636963 277.181976,516.888672 
	C279.129761,515.723450 280.948547,514.342590 283.064819,513.069214 
	C283.156281,516.870972 283.008850,520.663208 282.660461,524.788574 
z"/>
<path fill="#F9B040" opacity="1.000000" stroke="none" 
	d="
M271.585999,615.084839 
	C275.693146,612.758606 280.110443,610.448059 284.830048,608.103149 
	C280.720276,610.412720 276.308197,612.756592 271.585999,615.084839 
z"/>
<path fill="#F9B040" opacity="1.000000" stroke="none" 
	d="
M310.440552,593.793518 
	C311.408203,591.863770 312.667847,589.937134 313.933197,587.667419 
	C315.331635,587.973450 316.724396,588.622559 318.211182,589.452820 
	C315.781006,591.021545 313.256744,592.409058 310.440552,593.793518 
z"/>
<path fill="#F9B040" opacity="1.000000" stroke="none" 
	d="
M259.432190,623.089661 
	C261.434448,621.416992 263.732330,619.744629 266.359619,618.039551 
	C264.368652,619.701294 262.048248,621.395630 259.432190,623.089661 
z"/>
<path fill="#F9B040" opacity="1.000000" stroke="none" 
	d="
M302.451660,598.073242 
	C303.776520,597.108704 305.389801,596.149963 307.280640,595.105347 
	C305.952148,596.039368 304.346130,597.059204 302.451660,598.073242 
z"/>
<path fill="#F9B040" opacity="1.000000" stroke="none" 
	d="
M288.443237,606.236023 
	C289.765778,605.214294 291.384460,604.201416 293.284363,603.098755 
	C291.956848,604.087646 290.348114,605.166260 288.443237,606.236023 
z"/>
<path fill="#F9B040" opacity="1.000000" stroke="none" 
	d="
M261.661926,525.514099 
	C260.727142,526.299500 259.496399,527.125366 257.984375,528.010132 
	C258.924042,527.230835 260.145020,526.392639 261.661926,525.514099 
z"/>
<path fill="#F9B040" opacity="1.000000" stroke="none" 
	d="
M267.361084,617.534546 
	C267.986053,617.064270 268.884003,616.551636 270.039734,615.988708 
	C269.409668,616.456299 268.521881,616.974182 267.361084,617.534546 
z"/>
<path fill="#F9B040" opacity="1.000000" stroke="none" 
	d="
M217.613693,551.680054 
	C217.131851,552.038086 216.385757,552.441711 215.381134,552.878174 
	C215.864883,552.515869 216.607162,552.120789 217.613693,551.680054 
z"/>
<path fill="#F9B040" opacity="1.000000" stroke="none" 
	d="
M296.356140,601.540039 
	C296.831299,601.111694 297.578918,600.637451 298.593231,600.123169 
	C298.116150,600.553467 297.372375,601.023865 296.356140,601.540039 
z"/>
<path fill="#F9B040" opacity="1.000000" stroke="none" 
	d="
M287.485840,494.212036 
	C287.508972,494.262726 287.525269,494.424591 287.506714,494.383728 
	C287.488159,494.342834 287.462708,494.161346 287.485840,494.212036 
z"/>
<path fill="#E29C30" opacity="1.000000" stroke="none" 
	d="
M269.516235,355.855957 
	C269.337402,356.421021 268.876312,357.087311 268.078094,357.768372 
	C268.238647,357.174500 268.736298,356.565857 269.516235,355.855957 
z"/>
<path fill="#F9B040" opacity="1.000000" stroke="none" 
	d="
M285.521057,501.166687 
	C285.553986,501.207886 285.574860,501.341705 285.561584,501.314728 
	C285.548309,501.287750 285.488098,501.125488 285.521057,501.166687 
z"/>
<path fill="#F7A423" opacity="1.000000" stroke="none" 
	d="
M368.954041,559.768616 
	C368.715668,560.052429 368.477295,560.336243 367.675415,560.807373 
	C365.537933,561.496765 363.964020,561.998718 363.308746,562.207703 
	C361.194031,561.220703 359.722382,560.533752 357.798096,559.635620 
	C357.985718,561.826111 358.087463,563.013977 358.212799,564.477478 
	C351.328552,564.215149 344.026276,566.900574 340.000549,558.456604 
	C339.020569,558.675842 337.907562,558.924805 336.794525,559.173767 
	C336.794525,559.173767 336.933990,559.072083 336.882751,558.762329 
	C335.088837,551.448608 333.098816,544.491943 331.741180,537.414062 
	C331.282379,535.022095 332.425049,532.322876 332.969238,528.933228 
	C330.686462,527.187012 330.704193,523.504883 333.630707,520.648682 
	C332.721252,518.609497 331.440247,516.954102 331.335236,515.227173 
	C331.161224,512.365906 331.594177,509.433990 332.062042,506.579468 
	C332.364960,504.731445 332.646606,502.100555 333.878540,501.335663 
	C337.098541,499.336456 336.252380,497.434570 334.466187,495.462830 
	C337.462860,491.826904 337.462860,491.826904 336.082153,486.403137 
	C336.342682,486.083130 336.603210,485.763123 337.403595,485.181122 
	C338.636047,483.985687 339.328613,483.052277 340.021179,482.118866 
	C340.293701,481.862946 340.566193,481.606995 341.459198,481.215759 
	C344.098877,480.865234 346.118011,480.649994 348.426636,480.403900 
	C347.604645,482.334442 346.994476,483.767426 346.097382,485.874359 
	C347.982452,486.337158 349.405792,486.803070 350.866089,487.019379 
	C353.419342,487.397644 355.989685,487.752502 358.563873,487.865021 
	C360.226318,487.937744 361.908417,487.561310 364.222198,487.319122 
	C362.790955,484.798370 361.998962,483.403473 360.607758,480.953217 
	C366.796600,483.367279 369.772583,486.730682 371.104553,491.957458 
	C372.239655,496.411835 374.036591,500.697510 375.540741,505.057831 
	C375.643402,505.502594 375.746094,505.947327 375.602356,507.028015 
	C375.167328,510.398285 374.944122,513.130676 374.796448,515.867249 
	C374.311523,524.853210 374.275909,533.889954 373.234467,542.809875 
	C372.564148,548.551147 370.431335,554.121582 368.954041,559.768616 
M351.101318,519.477478 
	C351.410553,519.764771 351.719757,520.052063 352.029022,520.339355 
	C352.130371,520.228455 352.231720,520.117554 352.333038,520.006592 
	C351.887878,519.671875 351.442719,519.337158 350.843506,518.370300 
	C350.225494,517.243835 349.607483,516.117310 349.694366,515.027832 
	C351.192322,515.821594 352.690277,516.615356 354.915436,517.794495 
	C353.657959,512.488403 354.924255,509.854126 360.089752,510.592804 
	C362.246246,508.765350 365.296265,506.196747 367.198792,506.870117 
	C371.322723,508.329773 370.723511,505.696289 371.751862,503.436798 
	C366.661407,501.361542 360.341278,500.965881 359.421722,493.635834 
	C358.861938,495.231750 358.302155,496.827667 357.631500,498.739685 
	C356.265259,498.739685 354.865021,498.739685 353.492737,498.739685 
	C353.079468,506.374237 360.345886,498.354065 361.426208,502.932800 
	C355.242706,505.472198 349.613525,510.984924 348.373199,514.852173 
	C343.777496,512.636536 337.600952,516.738281 337.619598,522.507629 
	C341.635651,519.013550 345.681183,516.156738 351.101318,519.477478 
M352.375549,559.709473 
	C352.824371,559.079773 353.793823,558.098145 353.642395,557.874146 
	C351.908325,555.309021 350.003693,552.859070 348.385712,550.700256 
	C345.658844,551.262451 343.493530,551.708801 340.735016,552.277527 
	C341.760620,554.498779 342.681030,556.492188 343.601440,558.485657 
	C343.926849,557.961975 344.252228,557.438354 344.577637,556.914734 
	C346.977234,557.747131 349.376831,558.579529 352.375549,559.709473 
z"/>
<path fill="#F9B040" opacity="1.000000" stroke="none" 
	d="
M375.635834,504.658142 
	C374.036591,500.697510 372.239655,496.411835 371.104553,491.957458 
	C369.772583,486.730682 366.796600,483.367279 360.607758,480.953217 
	C361.998962,483.403473 362.790955,484.798370 364.222198,487.319122 
	C361.908417,487.561310 360.226318,487.937744 358.563873,487.865021 
	C355.989685,487.752502 353.419342,487.397644 350.866089,487.019379 
	C349.405792,486.803070 347.982452,486.337158 346.097382,485.874359 
	C346.994476,483.767426 347.604645,482.334442 348.426636,480.403900 
	C346.118011,480.649994 344.098877,480.865234 341.701843,481.073975 
	C351.892365,473.496124 368.994476,479.017456 372.521606,491.217682 
	C373.763855,495.514740 374.670837,499.908691 375.635834,504.658142 
M358.405426,482.201019 
	C358.239044,481.998596 358.072632,481.796173 357.906281,481.593781 
	C357.797119,481.694733 357.687958,481.795685 357.578766,481.896606 
	C357.770050,482.076782 357.961334,482.256927 358.405426,482.201019 
M354.440521,479.502777 
	C354.440521,479.502777 354.506744,479.471954 354.440521,479.502777 
z"/>
<path fill="#F9B040" opacity="1.000000" stroke="none" 
	d="
M335.771912,486.517426 
	C337.462860,491.826904 337.462860,491.826904 334.466187,495.462830 
	C336.252380,497.434570 337.098541,499.336456 333.878540,501.335663 
	C332.646606,502.100555 332.364960,504.731445 332.062042,506.579468 
	C331.594177,509.433990 331.161224,512.365906 331.335236,515.227173 
	C331.440247,516.954102 332.721252,518.609497 333.630707,520.648682 
	C330.704193,523.504883 330.686462,527.187012 332.969238,528.933228 
	C332.425049,532.322876 331.282379,535.022095 331.741180,537.414062 
	C333.098816,544.491943 335.088837,551.448608 336.829590,558.830322 
	C334.950165,555.632751 332.130280,552.248962 331.358215,548.449158 
	C327.999725,531.919312 327.967285,515.246155 331.321472,498.686188 
	C332.157654,494.557861 334.053101,490.644073 335.771912,486.517426 
z"/>
<path fill="#F9B040" opacity="1.000000" stroke="none" 
	d="
M369.267334,559.670898 
	C370.431335,554.121582 372.564148,548.551147 373.234467,542.809875 
	C374.275909,533.889954 374.311523,524.853210 374.796448,515.867249 
	C374.944122,513.130676 375.167328,510.398285 375.558624,507.370209 
	C376.662659,523.179077 378.447052,539.352539 372.331604,554.937561 
	C371.683807,556.588440 370.510284,558.032959 369.267334,559.670898 
z"/>
<path fill="#F9B040" opacity="1.000000" stroke="none" 
	d="
M336.841919,559.513000 
	C337.907562,558.924805 339.020569,558.675842 340.000549,558.456604 
	C344.026276,566.900574 351.328552,564.215149 358.212799,564.477478 
	C358.087463,563.013977 357.985718,561.826111 357.798096,559.635620 
	C359.722382,560.533752 361.194031,561.220703 363.308746,562.207703 
	C363.964020,561.998718 365.537933,561.496765 367.454834,560.977783 
	C360.556549,568.815979 341.559174,567.889648 336.841919,559.513000 
z"/>
<path fill="#E29C30" opacity="1.000000" stroke="none" 
	d="
M393.041321,459.411438 
	C395.350800,459.399200 397.801392,459.693726 400.872803,460.165955 
	C402.328827,460.977600 403.164032,461.611511 403.999237,462.245422 
	C403.196106,462.992615 402.393005,463.739807 401.194458,464.656555 
	C400.799042,464.826080 400.825317,464.784668 401.012207,464.655365 
	C401.051025,464.602783 400.902954,464.679504 400.754852,464.756226 
	C398.230682,463.076874 395.706543,461.397552 393.041321,459.411438 
z"/>
<path fill="#F9B040" opacity="1.000000" stroke="none" 
	d="
M291.184235,561.545715 
	C290.075928,561.120117 288.894073,560.354553 287.714294,559.586060 
	C286.146698,560.278931 284.577057,560.974609 283.007416,561.670227 
	C282.755890,561.299805 282.504333,560.929382 282.252808,560.558960 
	C284.011780,559.172607 285.770721,557.786255 287.792633,556.189087 
	C289.073944,557.720764 290.092316,559.463257 291.184235,561.545715 
z"/>
<path fill="#F9B040" opacity="1.000000" stroke="none" 
	d="
M283.647858,535.620483 
	C283.070618,533.135986 282.598206,530.222290 282.231140,526.828674 
	C282.808563,529.296265 283.280609,532.243713 283.647858,535.620483 
z"/>
<path fill="#F9B040" opacity="1.000000" stroke="none" 
	d="
M285.707153,546.688965 
	C283.910553,545.538940 281.106354,544.467468 283.591583,541.200806 
	C284.491119,542.804932 285.134613,544.567993 285.707153,546.688965 
z"/>
<path fill="#F9B040" opacity="1.000000" stroke="none" 
	d="
M339.719238,482.167969 
	C339.328613,483.052277 338.636047,483.985687 337.646057,484.987427 
	C338.038208,484.109528 338.727753,483.163330 339.719238,482.167969 
z"/>
<path fill="#F9B040" opacity="1.000000" stroke="none" 
	d="
M287.588684,552.751526 
	C287.078186,552.435913 286.607574,551.818176 286.166138,550.883789 
	C286.673065,551.194641 287.150818,551.821960 287.588684,552.751526 
z"/>
<path fill="#F7A423" opacity="1.000000" stroke="none" 
	d="
M400.782349,464.757416 
	C400.902954,464.679504 401.051025,464.602783 401.031952,464.640839 
	C400.864777,464.755615 400.809814,464.758606 400.782349,464.757416 
z"/>
<path fill="#F9B040" opacity="1.000000" stroke="none" 
	d="
M307.007111,368.007324 
	C307.830688,361.413696 305.110626,359.865601 295.839874,362.385742 
	C297.580139,357.865631 307.325500,358.273621 300.825745,350.098419 
	C301.570831,350.167877 302.315887,350.237305 303.060944,350.306763 
	C304.364960,351.193512 305.669006,352.080231 307.054443,353.022339 
	C308.110779,352.215515 309.425537,351.211304 311.795807,349.400879 
	C311.320190,351.920654 311.101135,353.081177 310.653625,355.451935 
	C314.789948,355.682861 318.766937,355.904877 323.206604,356.152740 
	C323.514984,357.196899 324.082306,359.117828 324.621948,360.945129 
	C322.127350,360.687256 319.900269,360.457062 317.673218,360.226837 
	C318.292999,362.443665 318.912811,364.660522 319.517731,366.824219 
	C315.663910,367.215912 311.751831,367.613495 307.419861,368.005554 
	C307.000000,368.000000 307.007111,368.007324 307.007111,368.007324 
z"/>
<path fill="#F9B040" opacity="1.000000" stroke="none" 
	d="
M413.963928,386.316223 
	C414.029297,385.975342 414.493866,385.961334 414.725220,385.945068 
	C416.213470,386.247101 417.520508,386.438263 418.716583,386.910583 
	C421.104614,387.853607 423.431763,388.950836 425.889282,390.030640 
	C423.785431,393.146606 421.007904,397.260376 417.691162,402.172760 
	C417.958435,400.155090 418.119293,398.940582 418.329712,397.352051 
	C416.696503,397.785553 415.333679,398.147308 414.336517,398.411987 
	C412.924377,396.231781 411.707123,394.352539 409.933777,391.614716 
	C410.740509,390.605957 412.319519,388.631531 413.963928,386.316223 
z"/>
<path fill="#F9B040" opacity="1.000000" stroke="none" 
	d="
M298.229431,380.738770 
	C297.186768,380.727356 296.405487,380.500885 295.347961,380.143585 
	C294.705750,378.794006 294.723328,377.092651 293.905365,376.442627 
	C290.860992,374.023315 292.843140,372.331726 294.277435,369.989960 
	C295.869934,372.414093 297.125122,374.515625 298.636932,376.412659 
	C298.854492,376.685669 300.307892,375.973846 301.032776,375.763275 
	C299.786713,373.627808 298.647034,371.674683 296.937988,368.745789 
	C300.998260,368.410614 303.652069,368.191559 306.656494,367.989929 
	C307.007111,368.007324 307.000000,368.000000 306.996338,367.996521 
	C308.501251,371.635132 306.528137,372.384674 303.013641,371.775635 
	C304.899567,376.851959 302.199371,378.990662 298.229431,380.738770 
z"/>
<path fill="#F9B040" opacity="1.000000" stroke="none" 
	d="
M433.081909,388.387299 
	C436.239716,388.828339 439.404327,389.601471 442.785645,390.666077 
	C442.344849,391.584900 441.546631,392.849731 441.051697,392.740479 
	C436.435303,391.721497 435.919830,394.135010 436.622681,397.062775 
	C432.838135,398.018921 429.202423,398.937500 425.099487,399.974091 
	C425.578888,398.484680 426.308075,396.219177 426.822662,394.620361 
	C429.764252,394.111664 432.067535,393.713318 434.634521,393.269379 
	C433.912384,391.143829 433.500549,389.931610 433.081909,388.387299 
z"/>
<path fill="#F9B040" opacity="1.000000" stroke="none" 
	d="
M403.189972,410.141327 
	C404.520233,409.117188 405.842499,408.477448 406.515900,407.423218 
	C408.591705,404.173462 410.653320,404.127533 413.279327,406.782745 
	C413.976318,407.487518 415.291870,407.580505 417.254303,408.291748 
	C415.688965,409.973450 414.363617,411.397308 413.038269,412.821106 
	C412.264465,411.790039 411.490662,410.758972 410.683624,409.683624 
	C400.112000,414.024200 399.943634,414.024780 396.795227,409.473145 
	C398.920502,409.774323 400.902832,410.055206 403.189972,410.141327 
z"/>
<path fill="#F9B040" opacity="1.000000" stroke="none" 
	d="
M435.718628,408.672852 
	C432.984467,410.869934 430.438507,412.760406 427.759033,414.750092 
	C426.541382,410.993317 435.539703,402.990784 443.808228,401.382385 
	C441.174438,403.710327 438.540649,406.038269 435.718628,408.672852 
z"/>
<path fill="#F9B040" opacity="1.000000" stroke="none" 
	d="
M404.373657,462.179291 
	C403.164032,461.611511 402.328827,460.977600 401.222290,460.190002 
	C401.118805,458.718506 401.286652,457.400665 401.993958,455.954590 
	C402.677460,455.240875 402.821503,454.655396 402.965546,454.069885 
	C404.803772,450.191406 407.711456,452.552307 410.652649,453.283020 
	C411.042023,454.547852 411.039001,455.349213 411.036011,456.150513 
	C410.018463,457.067993 408.981506,457.965027 407.988586,458.908417 
	C406.887451,459.954620 405.826538,461.043121 404.373657,462.179291 
z"/>
<path fill="#F9B040" opacity="1.000000" stroke="none" 
	d="
M420.079865,458.972687 
	C418.588318,460.578552 417.096771,462.184418 415.278839,463.515869 
	C414.290558,462.176239 413.628601,461.110962 412.966675,460.045715 
	C412.963440,459.577759 412.960175,459.109833 412.950745,457.893677 
	C412.692841,454.164612 413.424896,451.938141 416.983215,451.879059 
	C418.139038,453.446289 419.294861,455.013489 420.634216,457.017578 
	C420.571808,457.960510 420.325836,458.466583 420.079865,458.972687 
z"/>
<path fill="#E29C30" opacity="1.000000" stroke="none" 
	d="
M391.776367,397.234924 
	C390.764160,392.337006 393.638733,391.156555 397.244476,390.826141 
	C399.585327,392.962189 401.849121,395.027924 404.112885,397.093658 
	C403.948242,397.450226 403.783569,397.806763 403.618896,398.163330 
	C401.374664,397.030792 399.130463,395.898285 396.996490,394.821411 
	C395.365448,395.692230 393.685486,396.589203 391.776367,397.234924 
z"/>
<path fill="#F9B040" opacity="1.000000" stroke="none" 
	d="
M436.906677,430.609802 
	C438.712280,429.399689 440.210693,428.276855 441.709106,427.154022 
	C442.164856,427.612640 442.620605,428.071228 443.076355,428.529816 
	C440.898651,430.989197 438.720947,433.448547 435.756470,436.796478 
	C434.535370,433.944397 433.769409,432.155396 432.607635,429.441895 
	C434.607910,430.070831 435.603699,430.383942 436.906677,430.609802 
z"/>
<path fill="#E29C30" opacity="1.000000" stroke="none" 
	d="
M417.074097,451.577332 
	C413.424896,451.938141 412.692841,454.164612 412.940552,457.542877 
	C412.355896,457.522705 411.775299,457.105164 411.115356,456.419067 
	C411.039001,455.349213 411.042023,454.547852 411.040222,453.346649 
	C413.168854,450.982086 415.302307,449.017426 417.435730,447.052734 
	C417.851379,447.362823 418.267059,447.672913 418.682709,447.983002 
	C418.176788,449.080536 417.670868,450.178070 417.074097,451.577332 
z"/>
<path fill="#F9B040" opacity="1.000000" stroke="none" 
	d="
M426.995117,456.071411 
	C430.104462,456.612854 433.213806,457.154266 436.323151,457.695709 
	C436.243469,458.279816 436.163788,458.863922 436.084106,459.448029 
	C433.172180,459.448029 430.260254,459.448029 427.117920,458.854858 
	C426.923370,457.531586 426.959259,456.801514 426.995117,456.071411 
z"/>
<path fill="#F9B040" opacity="1.000000" stroke="none" 
	d="
M413.278809,445.976196 
	C413.190277,443.883972 405.547668,443.930176 411.668823,440.198425 
	C413.399200,440.808044 414.831146,441.552704 417.409027,442.893311 
	C416.075592,443.986542 414.867035,444.977386 413.278809,445.976196 
z"/>
<path fill="#F9B040" opacity="1.000000" stroke="none" 
	d="
M332.983032,346.982880 
	C331.475006,345.780731 329.967010,344.578583 327.932343,342.956604 
	C329.254730,342.412323 331.132965,341.639282 333.011200,340.866241 
	C333.231659,342.844940 333.452118,344.823639 333.336426,346.901428 
	C333.000214,347.000488 332.983032,346.982880 332.983032,346.982880 
z"/>
<path fill="#F9B040" opacity="1.000000" stroke="none" 
	d="
M382.060303,402.023193 
	C383.381073,400.032288 384.701874,398.041412 386.022644,396.050568 
	C386.711517,396.421875 387.400391,396.793182 388.089264,397.164490 
	C387.570099,398.663147 387.050934,400.161804 385.852600,401.855408 
	C384.135712,402.041260 383.097992,402.032227 382.060303,402.023193 
z"/>
<path fill="#E29C30" opacity="1.000000" stroke="none" 
	d="
M426.638184,455.994202 
	C426.959259,456.801514 426.923370,457.531586 426.840881,458.625305 
	C424.836700,458.983429 422.879120,458.977966 420.500732,458.972595 
	C420.325836,458.466583 420.571808,457.960510 420.929718,457.192505 
	C422.788177,456.592682 424.534698,456.254822 426.638184,455.994202 
z"/>
<path fill="#E29C30" opacity="1.000000" stroke="none" 
	d="
M412.650208,460.155518 
	C413.628601,461.110962 414.290558,462.176239 414.957245,463.596924 
	C413.751007,463.872681 412.539978,463.792999 411.328979,463.713318 
	C411.663879,462.563965 411.998779,461.414642 412.650208,460.155518 
z"/>
<path fill="#E29C30" opacity="1.000000" stroke="none" 
	d="
M420.758118,440.745300 
	C422.328125,441.400482 423.671265,442.275818 425.014435,443.151154 
	C424.478943,443.713684 423.943481,444.276215 423.408020,444.838715 
	C422.449097,443.547638 421.490204,442.256561 420.758118,440.745300 
z"/>
<path fill="#E29C30" opacity="1.000000" stroke="none" 
	d="
M382.069458,402.379669 
	C383.097992,402.032227 384.135712,402.041260 385.561890,402.058350 
	C385.843719,403.448425 385.737061,404.830444 385.630371,406.212433 
	C385.222992,406.362762 384.815613,406.513062 384.408203,406.663361 
	C383.631683,405.354279 382.855164,404.045227 382.069458,402.379669 
z"/>
<path fill="#E29C30" opacity="1.000000" stroke="none" 
	d="
M420.789307,415.920593 
	C421.569183,416.435425 422.077026,417.103577 422.584900,417.771729 
	C421.440155,418.161011 420.295380,418.550293 419.150635,418.939606 
	C418.734192,418.357758 418.317719,417.775879 417.901276,417.194031 
	C418.773285,416.820648 419.645294,416.447266 420.789307,415.920593 
z"/>
<path fill="#F9B040" opacity="1.000000" stroke="none" 
	d="
M316.009552,352.989044 
	C312.200623,350.539032 315.232941,349.114136 317.341827,347.601562 
	C316.903900,349.167542 316.466003,350.733490 316.013916,352.649780 
	C315.999725,353.000153 316.009552,352.989044 316.009552,352.989044 
z"/>
<path fill="#F9B040" opacity="1.000000" stroke="none" 
	d="
M318.011383,353.011139 
	C319.098541,351.604462 320.185699,350.197754 321.272858,348.791046 
	C321.755615,349.315918 322.238373,349.840790 322.721161,350.365662 
	C321.372925,351.198425 320.024658,352.031189 318.338409,352.932068 
	C318.000397,353.000214 318.011383,353.011139 318.011383,353.011139 
z"/>
<path fill="#F9B040" opacity="1.000000" stroke="none" 
	d="
M333.008606,347.009583 
	C332.125763,347.638367 331.234528,348.258118 330.343262,348.877838 
	C330.162048,348.470398 329.980835,348.062958 329.799622,347.655518 
	C330.638733,347.436920 331.477844,347.218292 332.649994,346.991272 
	C332.983032,346.982880 333.000214,347.000488 333.008606,347.009583 
z"/>
<path fill="#E29C30" opacity="1.000000" stroke="none" 
	d="
M379.028076,401.864594 
	C379.351105,402.626373 379.413361,403.380402 379.475647,404.134430 
	C379.156067,404.112091 378.836517,404.089722 378.516937,404.067383 
	C378.600403,403.330536 378.683868,402.593689 379.028076,401.864594 
z"/>
<path fill="#F9B040" opacity="1.000000" stroke="none" 
	d="
M324.975708,346.966980 
	C325.657318,346.995026 326.146912,347.214996 326.636505,347.434998 
	C326.238220,347.833405 325.839935,348.231812 325.441650,348.630249 
	C325.222351,348.139801 325.003052,347.649323 324.975708,346.966980 
z"/>
<path fill="#E29C30" opacity="1.000000" stroke="none" 
	d="
M402.777557,454.254639 
	C402.821503,454.655396 402.677460,455.240875 402.288940,455.862122 
	C402.226166,455.411713 402.407867,454.925568 402.777557,454.254639 
z"/>
<path fill="#F9B040" opacity="1.000000" stroke="none" 
	d="
M315.994324,353.005554 
	C316.438324,353.011536 316.887695,353.012146 317.674255,353.011963 
	C318.011383,353.011139 318.000397,353.000214 317.995361,352.994507 
	C317.372803,353.159180 316.755341,353.329498 316.073700,353.244446 
	C316.009552,352.989044 315.999725,353.000153 315.994324,353.005554 
z"/>
<path fill="#F9B040" opacity="1.000000" stroke="none" 
	d="
M330.748810,351.119385 
	C331.004303,351.487152 331.003876,351.899109 331.005371,352.619263 
	C330.835846,352.339508 330.664368,351.751526 330.748810,351.119385 
z"/>
<path fill="#E29C30" opacity="1.000000" stroke="none" 
	d="
M455.846313,438.307251 
	C455.501251,438.568329 455.096375,438.624847 454.390656,438.614990 
	C454.655396,438.399994 455.220917,438.251343 455.846313,438.307251 
z"/>
<path fill="#1D3882" opacity="1.000000" stroke="none" 
	d="
M710.281982,468.899933 
	C710.544434,468.025787 710.806885,467.151611 711.709961,466.019562 
	C712.324097,464.761688 712.297607,463.761688 712.271118,462.761719 
	C712.557373,461.618134 712.843628,460.474548 713.767212,459.049866 
	C714.377502,457.766754 714.350403,456.764740 714.323364,455.762756 
	C714.766541,454.280853 715.209717,452.798950 716.345825,451.095764 
	C719.172791,450.591064 721.306580,450.065308 723.440857,450.062958 
	C738.897949,450.045959 754.355347,450.181641 769.812134,450.121094 
	C771.456848,450.114655 773.097961,449.155884 774.740723,448.638855 
	C774.836243,450.125183 775.014771,451.611420 775.015320,453.097748 
	C775.030273,496.705994 775.039978,540.314270 774.991272,583.922424 
	C774.988831,586.121765 776.239807,589.398315 771.268677,588.620239 
	C769.929260,587.768555 769.201599,587.138306 768.467102,587.130310 
	C760.359192,587.041504 752.249084,586.979675 744.142883,587.113586 
	C743.046204,587.131592 741.968018,588.263794 740.881226,588.880127 
	C738.062073,589.664917 736.932800,588.584229 738.049927,585.223389 
	C739.128113,583.348511 739.939758,581.984558 739.943665,580.618286 
	C740.018677,554.158081 740.036682,527.697388 739.892151,501.237732 
	C739.884583,499.865265 738.322571,498.501312 737.484253,497.133392 
	C735.812134,495.425934 735.713562,491.145477 732.114258,492.689514 
	C729.851135,493.660370 727.350403,496.005524 726.606995,498.274902 
	C722.132080,511.935211 718.303406,525.805908 713.925293,539.499695 
	C710.308350,550.812317 706.182312,561.961365 702.384216,573.217468 
	C701.066162,577.123596 699.971680,581.111755 698.932495,585.103333 
	C698.202271,587.908020 696.745300,589.358154 693.677429,589.257507 
	C689.187500,589.110046 684.652710,588.861328 680.204956,589.317505 
	C675.826172,589.766724 674.328796,587.375000 673.262207,583.960388 
	C669.763367,572.758911 666.357300,561.526978 662.714233,550.372498 
	C657.232117,533.586914 651.720886,516.807251 645.850769,500.155975 
	C644.949646,497.599579 642.109558,493.986877 640.082153,493.931274 
	C635.925110,493.817322 635.662292,498.074097 635.658569,501.468140 
	C635.628845,528.769165 635.679932,556.070374 635.572876,583.371033 
	C635.565552,585.242371 634.480164,587.109558 633.280457,588.574951 
	C625.373352,587.991394 618.082214,587.798767 610.789734,587.685486 
	C610.534302,587.681519 610.266541,588.467957 610.004517,588.885986 
	C608.956848,588.174194 607.909119,587.462280 607.337646,586.209595 
	C608.211792,583.632507 608.953003,581.596863 608.956848,579.559692 
	C609.037964,536.395935 609.036133,493.232025 609.406372,450.045837 
	C610.840210,449.125641 611.918091,448.227783 612.995911,447.329956 
	C628.036194,447.221497 643.076538,447.113068 658.605591,447.521942 
	C661.613770,448.998505 664.133179,449.957764 666.652649,450.917023 
	C667.326660,452.651062 668.000671,454.385132 668.353760,456.701233 
	C668.400146,458.176544 668.767395,459.069824 669.134644,459.963074 
	C669.664368,460.727539 670.194153,461.492035 670.378418,462.769897 
	C670.400146,464.176544 670.767395,465.069794 671.134644,465.963074 
	C671.664368,466.727539 672.194153,467.492004 672.378296,468.769958 
	C672.401611,470.175507 672.770569,471.067566 673.139465,471.959625 
	C673.701904,473.047211 674.264343,474.134796 674.490784,475.722443 
	C674.435120,476.807007 674.715515,477.391479 674.995972,477.975952 
	C675.605225,479.057129 676.214478,480.138306 676.491943,481.720398 
	C676.438782,482.806335 676.717468,483.391327 676.996155,483.976318 
	C677.599426,485.023010 678.202698,486.069733 678.457764,487.631836 
	C678.491272,489.070251 678.873047,489.993256 679.254822,490.916260 
	C679.773560,491.987213 680.292297,493.058167 680.485596,494.675232 
	C680.438843,495.806305 680.717529,496.391296 680.996216,496.976318 
	C681.604614,498.050323 682.213074,499.124359 682.446899,500.734314 
	C682.412415,502.178650 682.752502,503.087036 683.092651,503.995422 
	C683.635437,504.749420 684.178345,505.503448 684.367493,506.772369 
	C684.371582,508.187164 684.729370,509.087036 685.087097,509.986908 
	C685.542542,510.442749 686.127502,510.825287 686.433716,511.365692 
	C689.929077,517.536072 691.685608,517.707458 697.063965,512.037109 
	C697.581665,510.817535 697.483826,509.847870 697.385986,508.878235 
	C697.713135,508.012604 698.040222,507.147003 699.006531,506.032715 
	C699.539185,504.818939 699.432678,503.853851 699.326172,502.888763 
	C699.538269,502.008301 699.750488,501.127808 700.658081,500.058899 
	C702.134399,499.230438 702.915344,498.590454 703.696350,497.950470 
	C702.919373,497.244019 702.142334,496.537598 701.365356,495.831146 
	C701.513428,495.262787 701.661560,494.694397 702.493713,493.987793 
	C704.073608,493.108337 704.969421,492.367188 705.865234,491.626007 
	C705.080322,490.746887 704.295349,489.867798 703.510498,488.988708 
	C704.023315,487.720917 704.536133,486.453125 705.649048,485.110626 
	C706.710205,484.816132 707.171326,484.596375 707.632507,484.376648 
	C707.155701,483.831512 706.678894,483.286346 706.202087,482.741211 
	C706.462830,481.590912 706.723572,480.440582 707.650146,479.015869 
	C708.336060,477.416107 708.356140,476.090759 708.376221,474.765381 
	C708.699951,473.926758 709.023682,473.088135 709.985840,472.016541 
	C710.510193,470.822357 710.396057,469.861145 710.281982,468.899933 
z"/>
<path fill="#193580" opacity="1.000000" stroke="none" 
	d="
M609.050476,450.068146 
	C609.036133,493.232025 609.037964,536.395935 608.956848,579.559692 
	C608.953003,581.596863 608.211792,583.632507 607.463074,585.831909 
	C607.011597,585.008545 606.822876,584.022217 606.822998,583.035889 
	C606.827942,538.821960 606.849487,494.608002 607.420898,450.074799 
	C608.267883,449.811218 608.562927,449.866882 608.907166,449.957520 
	C608.956421,449.992493 609.050476,450.068146 609.050476,450.068146 
z"/>
<path fill="#193580" opacity="1.000000" stroke="none" 
	d="
M737.382629,497.584747 
	C738.322571,498.501312 739.884583,499.865265 739.892151,501.237732 
	C740.036682,527.697388 740.018677,554.158081 739.943665,580.618286 
	C739.939758,581.984558 739.128113,583.348511 738.252319,584.935486 
	C737.624084,583.357422 737.273987,581.557495 737.272400,579.757385 
	C737.248352,552.516968 737.270020,525.276550 737.382629,497.584747 
z"/>
<path fill="#193580" opacity="1.000000" stroke="none" 
	d="
M774.631531,448.193970 
	C773.097961,449.155884 771.456848,450.114655 769.812134,450.121094 
	C754.355347,450.181641 738.897949,450.045959 723.440857,450.062958 
	C721.306580,450.065308 719.172791,450.591064 716.551025,450.839935 
	C716.020142,450.641998 715.977173,450.478668 716.227661,450.049530 
	C716.610718,449.700653 716.700195,449.617554 716.789612,449.534454 
	C716.598999,449.400360 716.408325,449.266266 716.217712,449.132172 
	C717.304749,448.401093 718.387329,447.040619 719.479492,447.032837 
	C737.237976,446.906342 754.997803,446.943665 772.757202,446.990723 
	C773.346252,446.992279 773.933960,447.485168 774.631531,448.193970 
z"/>
<path fill="#193580" opacity="1.000000" stroke="none" 
	d="
M741.321045,588.999146 
	C741.968018,588.263794 743.046204,587.131592 744.142883,587.113586 
	C752.249084,586.979675 760.359192,587.041504 768.467102,587.130310 
	C769.201599,587.138306 769.929260,587.768555 770.927124,588.489685 
	C761.383057,588.952454 751.571960,589.035339 741.321045,588.999146 
z"/>
<path fill="#193580" opacity="1.000000" stroke="none" 
	d="
M610.459106,589.007690 
	C610.266541,588.467957 610.534302,587.681519 610.789734,587.685486 
	C618.082214,587.798767 625.373352,587.991394 632.829346,588.520264 
	C625.633911,588.955994 618.273804,589.042725 610.459106,589.007690 
z"/>
<path fill="#193580" opacity="1.000000" stroke="none" 
	d="
M666.674683,450.492371 
	C664.133179,449.957764 661.613770,448.998505 659.049316,447.684570 
	C662.049377,446.891327 665.368713,445.682007 666.674683,450.492371 
z"/>
<path fill="#193580" opacity="1.000000" stroke="none" 
	d="
M703.315796,489.291016 
	C704.295349,489.867798 705.080322,490.746887 705.865234,491.626007 
	C704.969421,492.367188 704.073608,493.108337 702.763062,493.840881 
	C702.605896,492.419281 702.863525,491.006348 703.315796,489.291016 
z"/>
<path fill="#193580" opacity="1.000000" stroke="none" 
	d="
M612.565796,447.173767 
	C611.918091,448.227783 610.840210,449.125641 609.406372,450.045837 
	C609.050476,450.068146 608.956421,449.992493 608.653931,449.768860 
	C607.937256,449.460114 607.523193,449.375031 607.109070,449.289948 
	C608.784607,448.532471 610.460144,447.775024 612.565796,447.173767 
z"/>
<path fill="#193580" opacity="1.000000" stroke="none" 
	d="
M701.205078,496.138245 
	C702.142334,496.537598 702.919373,497.244019 703.696350,497.950470 
	C702.915344,498.590454 702.134399,499.230438 700.959045,499.870300 
	C700.724731,498.728546 700.884766,497.586945 701.205078,496.138245 
z"/>
<path fill="#193580" opacity="1.000000" stroke="none" 
	d="
M708.222412,475.081879 
	C708.356140,476.090759 708.336060,477.416107 707.951904,478.809479 
	C707.748169,477.717773 707.908386,476.558075 708.222412,475.081879 
z"/>
<path fill="#193580" opacity="1.000000" stroke="none" 
	d="
M714.175293,456.053589 
	C714.350403,456.764740 714.377502,457.766754 714.068359,458.840912 
	C713.830566,458.056854 713.928894,457.200623 714.175293,456.053589 
z"/>
<path fill="#193580" opacity="1.000000" stroke="none" 
	d="
M679.306152,490.591003 
	C678.873047,489.993256 678.491272,489.070251 678.393921,487.944214 
	C678.904724,488.582703 679.131104,489.424255 679.306152,490.591003 
z"/>
<path fill="#193580" opacity="1.000000" stroke="none" 
	d="
M712.123169,463.050934 
	C712.297607,463.761688 712.324097,464.761688 712.008240,465.828094 
	C711.768982,465.043060 711.872131,464.191620 712.123169,463.050934 
z"/>
<path fill="#193580" opacity="1.000000" stroke="none" 
	d="
M706.021179,482.966553 
	C706.678894,483.286346 707.155701,483.831512 707.632507,484.376648 
	C707.171326,484.596375 706.710205,484.816132 705.969116,484.952759 
	C705.739563,484.310394 705.789917,483.751160 706.021179,482.966553 
z"/>
<path fill="#193580" opacity="1.000000" stroke="none" 
	d="
M669.189209,459.562836 
	C668.767395,459.069824 668.400146,458.176544 668.334534,457.059113 
	C668.838745,457.610840 669.041260,458.386719 669.189209,459.562836 
z"/>
<path fill="#193580" opacity="1.000000" stroke="none" 
	d="
M699.189819,503.270416 
	C699.432678,503.853851 699.539185,504.818939 699.276001,505.921875 
	C698.955383,505.257141 699.004395,504.454590 699.189819,503.270416 
z"/>
<path fill="#193580" opacity="1.000000" stroke="none" 
	d="
M671.189209,465.562836 
	C670.767395,465.069794 670.400146,464.176544 670.334534,463.059113 
	C670.838745,463.610840 671.041321,464.386719 671.189209,465.562836 
z"/>
<path fill="#193580" opacity="1.000000" stroke="none" 
	d="
M673.192993,471.559662 
	C672.770569,471.067566 672.401611,470.175507 672.334412,469.059204 
	C672.839600,469.609863 673.043091,470.384796 673.192993,471.559662 
z"/>
<path fill="#193580" opacity="1.000000" stroke="none" 
	d="
M710.126892,469.273865 
	C710.396057,469.861145 710.510193,470.822357 710.248230,471.916809 
	C709.905396,471.249298 709.938599,470.448547 710.126892,469.273865 
z"/>
<path fill="#193580" opacity="1.000000" stroke="none" 
	d="
M697.233154,509.258636 
	C697.483826,509.847870 697.581665,510.817535 697.319702,511.933960 
	C697.000061,511.266846 697.040161,510.452942 697.233154,509.258636 
z"/>
<path fill="#193580" opacity="1.000000" stroke="none" 
	d="
M685.130981,509.584290 
	C684.729370,509.087036 684.371582,508.187164 684.310425,507.060486 
	C684.796326,507.616364 684.985596,508.398987 685.130981,509.584290 
z"/>
<path fill="#193580" opacity="1.000000" stroke="none" 
	d="
M683.153870,503.594727 
	C682.752502,503.087036 682.412415,502.178650 682.381714,501.053680 
	C682.865784,501.622742 683.040466,502.408386 683.153870,503.594727 
z"/>
<path fill="#193580" opacity="1.000000" stroke="none" 
	d="
M677.042480,483.614441 
	C676.717468,483.391327 676.438782,482.806335 676.424683,482.041168 
	C676.822388,482.324860 676.955627,482.788727 677.042480,483.614441 
z"/>
<path fill="#193580" opacity="1.000000" stroke="none" 
	d="
M681.042480,496.614441 
	C680.717529,496.391296 680.438843,495.806305 680.424683,495.041168 
	C680.822388,495.324890 680.955627,495.788727 681.042480,496.614441 
z"/>
<path fill="#193580" opacity="1.000000" stroke="none" 
	d="
M675.041626,477.613586 
	C674.715515,477.391479 674.435120,476.807007 674.418091,476.041260 
	C674.816650,476.323761 674.951904,476.787506 675.041626,477.613586 
z"/>
<path fill="#1D3882" opacity="1.000000" stroke="none" 
	d="
M716.109497,449.304230 
	C716.408325,449.266266 716.598999,449.400360 716.789612,449.534454 
	C716.700195,449.617554 716.610718,449.700653 716.334351,449.819672 
	C716.147400,449.855591 716.001282,449.476288 716.109497,449.304230 
z"/>
<path fill="#1D3882" opacity="1.000000" stroke="none" 
	d="
M607.091675,449.343933 
	C607.523193,449.375031 607.937256,449.460114 608.604614,449.733887 
	C608.562927,449.866882 608.267883,449.811218 607.538452,449.631409 
	C607.104126,449.507294 607.074280,449.397888 607.091675,449.343933 
z"/>
<path fill="#F9B040" opacity="1.000000" stroke="none" 
	d="
M212.003357,566.003052 
	C211.825500,564.642395 211.644287,563.278748 211.464569,561.926392 
	C214.396866,561.517822 216.737152,561.191711 220.002991,560.736694 
	C220.591156,562.503784 221.301437,564.637817 222.025040,566.811890 
	C218.184555,566.475708 215.471191,566.238220 212.375839,565.997314 
	C211.993835,565.993958 212.000000,566.000000 212.003357,566.003052 
z"/>
<path fill="#F9B040" opacity="1.000000" stroke="none" 
	d="
M267.426117,556.950562 
	C268.772278,555.295471 270.110077,553.992737 272.054504,552.099182 
	C272.054504,557.111877 272.054504,560.488525 272.054504,565.488342 
	C270.570465,564.029236 269.233887,563.183228 268.601715,561.970093 
	C267.879852,560.584900 267.785034,558.872803 267.426117,556.950562 
z"/>
<path fill="#F9B040" opacity="1.000000" stroke="none" 
	d="
M239.845367,569.618408 
	C241.438248,567.572571 243.385529,566.186279 245.140549,568.987976 
	C245.772736,569.997253 245.261993,571.722473 245.272858,573.120972 
	C243.915894,572.770935 242.474960,572.594788 241.237595,571.997131 
	C240.624100,571.700806 240.384933,570.629517 239.845367,569.618408 
z"/>
<path fill="#F9B040" opacity="1.000000" stroke="none" 
	d="
M275.352814,538.617249 
	C276.635559,537.658264 277.791809,537.067749 278.948059,536.477234 
	C278.881439,537.769043 279.023407,539.118225 278.688477,540.336243 
	C278.366028,541.508850 277.550446,542.545898 275.768585,543.628174 
	C275.587860,542.080688 275.407104,540.533203 275.352814,538.617249 
z"/>
<path fill="#F9B040" opacity="1.000000" stroke="none" 
	d="
M226.187897,584.951538 
	C228.564560,583.567993 230.629623,582.277832 232.694702,580.987732 
	C233.048431,581.579102 233.402145,582.170471 233.755875,582.761841 
	C231.285233,584.146851 228.814590,585.531921 226.343948,586.916931 
	C226.188065,586.292969 226.032181,585.668945 226.187897,584.951538 
z"/>
<path fill="#F9B040" opacity="1.000000" stroke="none" 
	d="
M217.473450,593.418213 
	C216.774399,593.804382 216.375702,594.091187 215.935135,594.280823 
	C215.657944,594.400085 215.317993,594.373535 213.477081,594.603210 
	C215.344879,592.929321 216.259186,591.929138 217.366241,591.237427 
	C217.664719,591.050964 218.548080,591.800537 219.162933,592.120361 
	C218.694000,592.506165 218.225037,592.891968 217.473450,593.418213 
z"/>
<path fill="#1D3882" opacity="1.000000" stroke="none" 
	d="
M455.004272,588.895874 
	C453.951538,588.178650 452.898834,587.461365 452.325958,586.207703 
	C453.206573,583.970215 453.949677,582.270447 453.956116,580.567932 
	C454.035645,559.408997 454.038849,538.249573 453.963898,517.090637 
	C453.955780,514.797852 453.336365,512.507202 453.152740,509.901337 
	C459.396301,504.506805 465.911346,499.845703 471.464355,494.232819 
	C477.476074,488.156311 482.590332,481.191956 488.332977,475.136902 
	C488.642517,477.818542 488.777069,479.978088 488.778229,482.137695 
	C488.791412,506.771240 488.771027,531.404785 488.791260,556.038330 
	C488.796753,562.709351 490.340607,564.283630 497.060150,564.323975 
	C500.715057,564.345886 504.434998,564.456665 508.016388,563.865479 
	C521.795288,561.590942 532.478943,554.632080 538.105286,541.580750 
	C543.170654,529.830566 542.988342,517.209412 541.257751,504.881805 
	C540.366943,498.536255 538.363770,491.544098 534.596802,486.555634 
	C523.334839,471.642090 507.350311,469.207794 489.934082,472.071106 
	C494.708069,464.264862 496.138275,455.949432 496.466309,447.338013 
	C506.507874,448.182556 516.663086,448.360199 526.561218,450.046509 
	C538.007996,451.996643 548.906738,455.907501 558.174011,463.490601 
	C572.085510,474.874054 579.592834,489.551727 581.869568,507.251495 
	C583.376038,518.963318 582.894409,530.517151 579.143555,541.660034 
	C574.620850,555.095886 566.609924,566.073547 555.439209,575.165344 
	C543.982178,584.490173 530.475830,586.650208 516.201782,588.477783 
	C514.748779,587.713318 513.862244,587.058899 512.973450,587.055847 
	C494.864563,586.993042 476.755127,586.968201 458.646759,587.082886 
	C457.428802,587.090576 456.218262,588.264404 455.004272,588.895874 
z"/>
<path fill="#F5A426" opacity="1.000000" stroke="none" 
	d="
M496.055145,447.213623 
	C496.138275,455.949432 494.708069,464.264862 489.958191,472.037659 
	C489.986755,472.394135 490.053986,472.441925 489.637451,472.484985 
	C488.812195,473.214417 488.403534,473.900757 488.038452,474.597107 
	C488.082031,474.607147 488.096008,474.614807 488.096008,474.614807 
	C482.590332,481.191956 477.476074,488.156311 471.464355,494.232819 
	C465.911346,499.845703 459.396301,504.506805 452.937561,509.829773 
	C452.570160,510.072418 452.118652,510.031006 452.118652,510.031006 
	C452.006683,490.058258 451.833099,470.085175 451.949371,450.113770 
	C451.955750,449.020660 454.366516,447.014679 455.676483,446.999268 
	C468.996796,446.842651 482.320923,447.011505 496.055145,447.213623 
M455.154419,464.720917 
	C456.694397,466.308350 458.367920,467.788330 459.748535,469.503998 
	C463.448730,474.102173 466.615082,473.589661 469.351044,467.804779 
	C464.487061,468.547272 460.603119,466.534760 457.158539,463.427124 
	C455.827728,462.226471 454.791138,461.265289 455.154419,464.720917 
z"/>
<path fill="#193580" opacity="1.000000" stroke="none" 
	d="
M452.057495,510.496277 
	C452.118652,510.031006 452.570160,510.072418 452.785339,510.143982 
	C453.336365,512.507202 453.955780,514.797852 453.963898,517.090637 
	C454.038849,538.249573 454.035645,559.408997 453.956116,580.567932 
	C453.949677,582.270447 453.206573,583.970215 452.453979,585.833313 
	C451.999420,570.593323 451.850067,555.191467 451.811035,539.789246 
	C451.786682,530.180237 451.928864,520.570801 452.057495,510.496277 
z"/>
<path fill="#193580" opacity="1.000000" stroke="none" 
	d="
M455.458130,589.021118 
	C456.218262,588.264404 457.428802,587.090576 458.646759,587.082886 
	C476.755127,586.968201 494.864563,586.993042 512.973450,587.055847 
	C513.862244,587.058899 514.748779,587.713318 515.814453,588.400024 
	C495.965729,588.872498 475.938873,589.009399 455.458130,589.021118 
z"/>
<path fill="#F7A423" opacity="1.000000" stroke="none" 
	d="
M353.987030,336.061707 
	C352.884918,336.473419 351.791565,336.910828 350.678619,337.290833 
	C349.067200,337.841003 347.459595,338.428650 345.805847,338.804474 
	C345.502045,338.873474 344.689240,338.037964 344.646851,337.571320 
	C344.597931,337.033386 345.136444,335.950256 345.430969,335.946381 
	C350.094452,335.884857 353.312744,330.183258 358.639465,333.063873 
	C357.136505,334.384705 355.561768,335.223206 353.987030,336.061707 
z"/>
<path fill="#F9B040" opacity="1.000000" stroke="none" 
	d="
M354.003723,336.410583 
	C355.561768,335.223206 357.136505,334.384705 358.892609,333.243164 
	C359.555267,333.796234 360.622955,335.209473 360.423767,335.419159 
	C359.002411,336.915375 357.322662,338.166138 355.725098,339.494965 
	C355.156891,338.583130 354.588654,337.671326 354.003723,336.410583 
z"/>
<path fill="#F7A423" opacity="1.000000" stroke="none" 
	d="
M352.760223,343.664429 
	C351.301331,345.281952 349.767029,346.592285 348.232727,347.902618 
	C347.811859,343.860504 349.235565,342.263763 352.760223,343.664429 
z"/>
<path fill="#F7A423" opacity="1.000000" stroke="none" 
	d="
M368.017456,402.019775 
	C367.124207,402.645782 366.211365,403.250519 365.298553,403.855286 
	C365.124664,403.445496 364.950806,403.035736 364.776917,402.625977 
	C365.615479,402.407410 366.454041,402.188843 367.625336,401.963409 
	C367.958069,401.956512 367.997894,401.998474 368.017456,402.019775 
z"/>
<path fill="#F9B040" opacity="1.000000" stroke="none" 
	d="
M349.009216,515.010498 
	C349.613525,510.984924 355.242706,505.472198 361.426208,502.932800 
	C360.345886,498.354065 353.079468,506.374237 353.492737,498.739685 
	C354.865021,498.739685 356.265259,498.739685 357.631500,498.739685 
	C358.302155,496.827667 358.861938,495.231750 359.421722,493.635834 
	C360.341278,500.965881 366.661407,501.361542 371.751862,503.436798 
	C370.723511,505.696289 371.322723,508.329773 367.198792,506.870117 
	C365.296265,506.196747 362.246246,508.765350 360.089752,510.592804 
	C354.924255,509.854126 353.657959,512.488403 354.915436,517.794495 
	C352.690277,516.615356 351.192322,515.821594 349.347168,515.013916 
	C349.000000,515.000000 349.009216,515.010498 349.009216,515.010498 
z"/>
<path fill="#F9B040" opacity="1.000000" stroke="none" 
	d="
M352.075989,559.560730 
	C349.376831,558.579529 346.977234,557.747131 344.577637,556.914734 
	C344.252228,557.438354 343.926849,557.961975 343.601440,558.485657 
	C342.681030,556.492188 341.760620,554.498779 340.735016,552.277527 
	C343.493530,551.708801 345.658844,551.262451 348.385712,550.700256 
	C350.003693,552.859070 351.908325,555.309021 353.642395,557.874146 
	C353.793823,558.098145 352.824371,559.079773 352.075989,559.560730 
z"/>
<path fill="#F9B040" opacity="1.000000" stroke="none" 
	d="
M351.002441,518.997559 
	C345.681183,516.156738 341.635651,519.013550 337.619598,522.507629 
	C337.600952,516.738281 343.777496,512.636536 348.691223,514.931335 
	C349.009216,515.010498 349.000000,515.000000 348.994751,514.995422 
	C349.607483,516.117310 350.225494,517.243835 350.921753,518.685181 
	C351.000000,519.000000 351.002441,518.997559 351.002441,518.997559 
z"/>
<path fill="#F9B040" opacity="1.000000" stroke="none" 
	d="
M350.998779,519.001221 
	C351.442719,519.337158 351.887878,519.671875 352.333069,520.006592 
	C352.231720,520.117554 352.130371,520.228455 352.028992,520.339355 
	C351.719757,520.052063 351.410553,519.764771 351.051880,519.237549 
	C351.002441,518.997559 351.000000,519.000000 350.998779,519.001221 
z"/>
<path fill="#F7A423" opacity="1.000000" stroke="none" 
	d="
M358.279053,482.319031 
	C357.961334,482.256927 357.770050,482.076782 357.578796,481.896606 
	C357.687958,481.795685 357.797119,481.694733 357.906250,481.593750 
	C358.072632,481.796173 358.239044,481.998596 358.279053,482.319031 
z"/>
<path fill="#F7A423" opacity="1.000000" stroke="none" 
	d="
M354.473633,479.487366 
	C354.506744,479.471954 354.440521,479.502777 354.473633,479.487366 
z"/>
<path fill="#E7E9F2" opacity="1.000000" stroke="none" 
	d="
M488.332977,475.136902 
	C488.096008,474.614807 488.082031,474.607147 488.455383,474.556396 
	C489.237122,473.817719 489.645569,473.129822 490.054016,472.441925 
	C490.053986,472.441925 489.986755,472.394135 489.962677,472.427582 
	C507.350311,469.207794 523.334839,471.642090 534.596802,486.555634 
	C538.363770,491.544098 540.366943,498.536255 541.257751,504.881805 
	C542.988342,517.209412 543.170654,529.830566 538.105286,541.580750 
	C532.478943,554.632080 521.795288,561.590942 508.016388,563.865479 
	C504.434998,564.456665 500.715057,564.345886 497.060150,564.323975 
	C490.340607,564.283630 488.796753,562.709351 488.791260,556.038330 
	C488.771027,531.404785 488.791412,506.771240 488.778229,482.137695 
	C488.777069,479.978088 488.642517,477.818542 488.332977,475.136902 
M507.650116,556.102234 
	C508.517487,555.946106 509.384857,555.789978 511.029510,555.701111 
	C520.504578,552.950623 527.597961,547.367615 530.730896,537.836365 
	C534.264771,527.085205 534.648499,515.861389 532.743042,504.862915 
	C531.286011,496.452606 529.092163,487.283478 520.203613,483.511627 
	C513.673035,480.740356 506.293060,479.941803 499.246887,478.479980 
	C498.780640,478.383270 497.933624,480.121857 497.040497,481.919586 
	C497.113495,506.277252 497.186462,530.634949 497.119202,555.800720 
	C500.375702,558.829651 503.704102,556.229187 507.650116,556.102234 
z"/>
<path fill="#F9B040" opacity="1.000000" stroke="none" 
	d="
M454.974884,464.431702 
	C454.791138,461.265289 455.827728,462.226471 457.158539,463.427124 
	C460.603119,466.534760 464.487061,468.547272 469.351044,467.804779 
	C466.615082,473.589661 463.448730,474.102173 459.748535,469.503998 
	C458.367920,467.788330 456.694397,466.308350 454.974884,464.431702 
z"/>
<path fill="#1D3882" opacity="1.000000" stroke="none" 
	d="
M489.637451,472.484985 
	C489.645569,473.129822 489.237122,473.817719 488.411774,474.546356 
	C488.403534,473.900757 488.812195,473.214417 489.637451,472.484985 
z"/>
<path fill="#1D3882" opacity="1.000000" stroke="none" 
	d="
M497.263733,481.006775 
	C497.933624,480.121857 498.780640,478.383270 499.246887,478.479980 
	C506.293060,479.941803 513.673035,480.740356 520.203613,483.511627 
	C529.092163,487.283478 531.286011,496.452606 532.743042,504.862915 
	C534.648499,515.861389 534.264771,527.085205 530.730896,537.836365 
	C527.597961,547.367615 520.504578,552.950623 510.446899,555.393250 
	C508.910553,555.365906 507.956848,555.646423 507.003143,555.926941 
	C503.704102,556.229187 500.375702,558.829651 497.525696,555.219360 
	C498.290710,553.420288 498.958405,552.203491 498.961945,550.984741 
	C499.025330,529.074646 499.040863,507.164215 498.933960,485.254486 
	C498.927063,483.835876 497.845398,482.422546 497.263733,481.006775 
z"/>
<path fill="#193580" opacity="1.000000" stroke="none" 
	d="
M497.152100,481.463165 
	C497.845398,482.422546 498.927063,483.835876 498.933960,485.254486 
	C499.040863,507.164215 499.025330,529.074646 498.961945,550.984741 
	C498.958405,552.203491 498.290710,553.420288 497.595825,554.815308 
	C497.186462,530.634949 497.113495,506.277252 497.152100,481.463165 
z"/>
<path fill="#193580" opacity="1.000000" stroke="none" 
	d="
M507.326630,556.014587 
	C507.956848,555.646423 508.910553,555.365906 510.058228,555.359619 
	C509.384857,555.789978 508.517487,555.946106 507.326630,556.014587 
z"/>
</svg>