<svg width="124" height="124" viewBox="0 0 124 124" fill="none" xmlns="http://www.w3.org/2000/svg">
<path d="M62.2369 5.42358C58.1681 5.42358 54.3682 7.27632 51.1292 10.3102C47.8907 13.3448 45.1181 17.571 42.8069 22.6901C42.3225 23.7625 41.8599 24.8771 41.4177 26.0267C40.2251 25.8374 39.0274 25.6819 37.8261 25.5603C36.4287 25.421 35.0651 25.3345 33.7404 25.3035C29.7636 25.2091 26.1291 25.6123 22.9437 26.5779C18.6967 27.8656 15.1922 30.2308 13.1578 33.7539C11.1234 37.2778 10.828 41.4952 11.8362 45.8173C12.8449 50.1391 15.1183 54.6533 18.3963 59.2146C19.0842 60.1713 19.8189 61.1308 20.5944 62.0901C19.8358 63.0267 19.1037 63.9845 18.3992 64.9625C15.121 69.5236 12.8476 74.0377 11.8391 78.3598C10.8306 82.6819 11.1264 86.8993 13.1607 90.4224C15.1951 93.9463 18.6996 96.3112 22.9466 97.5984C27.1938 98.8864 32.24 99.1744 37.829 98.6161C39.0007 98.4989 40.1976 98.3424 41.4153 98.1506C41.8475 99.2778 42.3116 100.392 42.8069 101.493C45.1181 106.613 47.8904 110.839 51.1292 113.873C54.368 116.907 58.1684 118.76 62.2369 118.76C66.3051 118.76 70.1056 116.907 73.3443 113.873C76.5829 110.838 79.3554 106.613 81.6666 101.493C82.162 100.393 82.626 99.2781 83.0582 98.1511C84.2745 98.3424 85.4704 98.4991 86.6412 98.6161C92.2304 99.1741 97.2768 98.8862 101.524 97.5984C105.771 96.311 109.276 93.9458 111.31 90.4224C113.344 86.8986 113.64 82.6816 112.632 78.3598C111.623 74.038 109.349 69.5238 106.071 64.9625C105.367 63.9847 104.634 63.0268 103.876 62.0901C104.636 61.1528 105.369 60.194 106.074 59.2149C109.352 54.6535 111.625 50.1394 112.634 45.8176C113.642 41.4955 113.347 37.278 111.312 33.7542C109.278 30.2311 105.773 27.8659 101.526 26.5782C98.3412 25.6126 94.7065 25.2093 90.7302 25.3035C89.4045 25.3345 88.0407 25.421 86.6436 25.5603C85.4714 25.6775 84.2733 25.8347 83.0551 26.0265C82.6233 24.9015 82.16 23.789 81.6656 22.6901C79.3545 17.5703 76.5821 13.3441 73.3434 10.31C70.1046 7.27583 66.3042 5.42334 62.2359 5.42334L62.2369 5.42358ZM62.2369 9.94934C64.9506 9.94934 67.6115 11.1416 70.2499 13.6136C72.888 16.0852 75.4078 19.8265 77.5414 24.5525C77.8884 25.3236 78.2184 26.1023 78.531 26.8879C73.3441 28.0412 67.8505 29.8107 62.2354 32.1749C56.6215 29.8111 51.1287 28.0422 45.9427 26.8889C46.2629 26.0873 46.5918 25.306 46.9323 24.5523C49.066 19.826 51.5857 16.0847 54.2241 13.6127C56.8625 11.1411 59.5232 9.94886 62.2374 9.94886L62.2369 9.94934ZM32.3049 29.8225C32.7418 29.8182 33.1858 29.8211 33.6365 29.8312C34.8377 29.8579 36.0867 29.9354 37.3766 30.0645C38.2015 30.1468 39.0445 30.2522 39.9011 30.3764C38.3061 35.4447 37.0918 41.0864 36.3308 47.1309C31.4754 50.8122 27.196 54.6857 23.6039 58.6017C23.0781 57.9367 22.5672 57.2602 22.0715 56.5726C19.0454 52.3619 17.0655 48.3092 16.2438 44.7883C15.4223 41.2673 15.7207 38.3671 17.0774 36.017C18.4341 33.6668 20.7974 31.9586 24.2568 30.9097C26.5273 30.2212 29.2459 29.8501 32.3047 29.8223L32.3049 29.8225ZM92.1659 29.8225C95.2248 29.8504 97.9433 30.2214 100.214 30.9099C103.674 31.9586 106.036 33.6668 107.393 36.017C108.75 38.3671 109.048 41.2676 108.227 44.7883C107.406 48.3089 105.425 52.3619 102.399 56.5726C101.903 57.2603 101.393 57.937 100.867 58.6021C97.2756 54.6867 92.9974 50.8141 88.1434 47.1334C87.383 41.0879 86.1672 35.4454 84.5721 30.3764C85.4278 30.2522 86.2699 30.1463 87.094 30.0645C88.3373 29.9385 89.5851 29.8606 90.8344 29.831C91.2782 29.8209 91.7221 29.8179 92.1659 29.822V29.8225ZM80.0759 31.1885C81.2796 34.9273 82.2762 39.0528 83.02 43.4674C80.6172 41.8443 78.1578 40.3066 75.6463 38.8573C73.1368 37.4077 70.5769 36.0471 67.9714 34.7782C72.1661 33.2148 76.2365 32.0155 80.0759 31.1889V31.1885ZM44.3976 31.1892C48.2363 32.016 52.3062 33.2153 56.4997 34.7784C53.8942 36.0474 51.3343 37.4079 48.8248 38.8573C46.3145 40.306 43.8561 41.8428 41.454 43.4647C42.1976 39.0513 43.1939 34.9271 44.3976 31.1892ZM62.2354 37.1131C65.9184 38.7377 69.6568 40.6258 73.3833 42.7774C77.1113 44.9299 80.6175 47.2239 83.8664 49.6022C84.3014 53.6048 84.5353 57.7877 84.5353 62.0918C84.5353 66.3936 84.3021 70.5747 83.8674 74.5756C80.6184 76.9534 77.1128 79.2469 73.386 81.399C69.6587 83.5508 65.9193 85.4397 62.2357 87.0643C58.5515 85.4397 54.8121 83.5508 51.0849 81.399C47.3588 79.2477 43.8546 76.9549 40.6069 74.578C40.1721 70.5764 39.9384 66.3945 39.9384 62.0916C39.9384 57.7867 40.1721 53.6034 40.6074 49.6003C43.8558 47.2227 47.3608 44.929 51.0875 42.7774C54.8143 40.626 58.5527 38.7377 62.2354 37.1136V37.1131ZM62.5415 43.9224L49.584 51.9187L62.5415 59.9158L75.4991 51.9187L62.5415 43.9222V43.9224ZM35.7169 53.4002C35.5132 56.2927 35.4117 59.1915 35.4124 62.0911C35.4124 65.0453 35.5166 67.9453 35.7171 70.7769C32.2659 67.9264 29.1918 65.0007 26.5559 62.0889C29.1918 59.1773 32.2657 56.2512 35.7169 53.4002ZM88.7571 53.4026C92.2066 56.2532 95.28 59.1781 97.915 62.0892C95.28 65.0003 92.2066 67.9251 88.7571 70.775C88.9606 67.8849 89.062 64.9886 89.0613 62.0913C89.0613 59.1357 88.9572 56.2352 88.7569 53.4026H88.7571ZM46.6649 55.4355V71.2257L60.2735 79.624V63.8346L46.6649 55.4355ZM78.4056 55.4438L64.8002 63.8404V79.6223L78.4058 71.2257V55.4438H78.4056ZM23.6034 65.5769C27.196 69.4931 31.4749 73.3657 36.3298 77.0469C37.0903 83.0907 38.3051 88.732 39.8997 93.8002C39.0448 93.9237 38.2029 94.0296 37.3795 94.1119C32.2199 94.6271 27.7193 94.3154 24.2597 93.2667C20.7998 92.218 18.4375 90.5091 17.0805 88.1589C15.7238 85.8085 15.4252 82.9083 16.2467 79.3876C17.0682 75.867 19.0483 71.8139 22.0744 67.6033C22.5691 66.9166 23.0787 66.241 23.6034 65.5769ZM100.867 65.5776C101.402 66.2558 101.913 66.9315 102.396 67.6033C105.422 71.8137 107.402 75.8667 108.223 79.3874C109.045 82.9081 108.747 85.8083 107.39 88.1587C106.033 90.5089 103.67 92.2178 100.21 93.2664C96.751 94.3151 92.2512 94.6268 87.0916 94.1117C86.2503 94.0263 85.4109 93.9225 84.5741 93.8005C86.1689 88.731 87.3835 83.0885 88.1439 77.0435C92.9974 73.3632 97.2758 69.4916 100.867 65.5771L100.867 65.5776ZM83.0209 80.7102C82.2774 85.1243 81.2811 89.2498 80.0774 92.9884C76.2377 92.1618 72.1668 90.9618 67.9719 89.3987C70.5781 88.1292 73.1388 86.7682 75.6492 85.3183C78.16 83.8694 80.6189 82.3324 83.0214 80.7102H83.0209ZM41.4531 80.7126C43.8542 82.3341 46.3119 83.8703 48.8214 85.3183C51.3318 86.7681 53.8925 88.1291 56.4987 89.3987C52.305 90.9615 48.2353 92.1613 44.3959 92.9879C43.1922 89.25 42.1966 85.1255 41.4531 80.7126ZM62.3708 80.9185L62.5355 81.0202L62.6995 80.9185H62.3711H62.3708ZM62.2352 92.0027C67.8515 94.3665 73.3453 96.1356 78.533 97.2887C78.2198 98.0766 77.8892 98.8574 77.5414 99.6306C75.4078 104.356 72.888 108.098 70.2497 110.57C67.6115 113.041 64.9506 114.234 62.2369 114.234C59.5229 114.234 56.862 113.041 54.2239 110.57C51.5857 108.098 49.066 104.356 46.9323 99.6304C46.5846 98.8571 46.254 98.0763 45.9406 97.2884C51.1273 96.1352 56.6205 94.3662 62.2357 92.0027H62.2352Z" fill="#37E6B1"/>
</svg>
