<svg width="104" height="104" viewBox="0 0 104 104" fill="none" xmlns="http://www.w3.org/2000/svg">
<path d="M26.5463 5.19767C30.845 1.84967 36.4663 0 42.0515 0C45.3943 0 48.0965 1.147 50.1477 2.97083C50.7005 3.46167 51.1913 3.99383 51.6305 4.5415C52.0697 3.99383 52.5605 3.46167 53.1133 2.97083C55.1645 1.147 57.8667 0 61.2095 0C66.7947 0 72.4212 1.84967 76.7095 5.19767C80.0575 7.7965 82.677 11.3873 83.7052 15.7222C85.8752 16.0838 87.8023 17.1895 89.3627 18.6517C91.8427 20.9818 93.6148 24.3505 94.7257 27.8173C95.8572 31.3358 96.4203 35.2883 96.2498 39.0858C96.162 41.0285 95.8778 43.0125 95.3353 44.9087L95.6712 45.0637C97.5828 45.9627 99.1328 47.3732 100.295 49.2487C102.491 52.7878 103.266 57.8822 103.266 64.3767C103.266 71.8425 100.409 76.911 96.7407 80.0575C94.83 81.6962 92.5936 82.9112 90.179 83.6225C89.3029 87.66 87.5025 91.4394 84.9193 94.6637C81.1838 99.3343 75.3765 103.282 67.5748 103.282C61.3232 103.282 56.3993 99.82 53.2373 96.5133C52.6766 95.9224 52.1422 95.3069 51.6357 94.6688C51.1274 95.3053 50.5912 95.919 50.0288 96.5082C46.8668 99.8252 41.943 103.282 35.6913 103.282C27.8845 103.282 22.0772 99.3343 18.3468 94.6637C15.7598 91.4404 13.9558 87.661 13.0768 83.6225C10.664 82.9107 8.42944 81.6957 6.52033 80.0575C2.852 76.9058 0 71.8425 0 64.3767C0 57.8822 0.775001 52.7878 2.96567 49.2487C4.12794 47.3218 5.86158 45.8049 7.92567 44.9087C7.39484 43.01 7.08792 41.0558 7.01117 39.0858C6.84067 35.2883 7.40383 31.3358 8.53533 27.8173C9.64617 24.3557 11.4132 20.9818 13.8983 18.6517C15.4526 17.1367 17.4216 16.1171 19.5558 15.7222C20.5892 11.3822 23.2035 7.7965 26.5463 5.19767ZM31.31 11.3098C28.489 13.5057 26.8357 16.43 26.8357 19.7987C26.8352 20.4123 26.689 21.0171 26.4091 21.5632C26.1292 22.1094 25.7235 22.5812 25.2256 22.9399C24.7277 23.2986 24.1517 23.5339 23.545 23.6264C22.9384 23.719 22.3184 23.6661 21.7362 23.4722C21.0283 23.2345 20.2792 23.2913 19.2045 24.304C18.0058 25.4252 16.7917 27.4557 15.9133 30.1837C15.0347 32.9471 14.6431 35.8421 14.756 38.7397C14.8852 41.6123 15.5672 43.9993 16.6418 45.6113C16.8196 45.8784 16.9637 46.1665 17.0707 46.469H22.661C26.3808 46.4682 29.9631 47.8753 32.688 50.4075C35.4128 52.9397 37.0784 56.4094 37.3498 60.1193C39.5755 61.0074 41.4234 62.6415 42.5771 64.7418C43.7309 66.8421 44.1188 69.2782 43.6744 71.633C43.23 73.9878 41.9811 76.1149 40.1412 77.6504C38.3014 79.1858 35.9851 80.034 33.5888 80.0499C31.1925 80.0658 28.8652 79.2484 27.0052 77.7375C25.1451 76.2266 23.868 74.1162 23.3925 71.7676C22.9169 69.4189 23.2724 66.9779 24.3982 64.8624C25.5239 62.747 27.3499 61.0886 29.5637 60.171C29.3183 58.5159 28.4861 57.0042 27.219 55.9116C25.9518 54.819 24.3342 54.2183 22.661 54.219H9.0985C8.3235 56.017 7.75 59.1222 7.75 64.3767C7.75 69.6518 9.66683 72.5452 11.5682 74.1778C13.6503 75.9603 15.9392 76.4253 16.6005 76.4253C17.6282 76.4253 18.6138 76.8336 19.3405 77.5603C20.0672 78.287 20.4755 79.2726 20.4755 80.3003C20.4755 82.4703 21.6742 86.4125 24.4022 89.8225C27.0268 93.1137 30.7675 95.5317 35.6913 95.5317C38.9825 95.5317 42.0102 93.682 44.423 91.1607C45.5907 89.931 46.5 88.6548 47.0993 87.6215C47.3261 87.2351 47.5247 86.8327 47.6935 86.4177L47.7245 86.3453V37.4273H43.0952C42.1959 39.6504 40.5515 41.4914 38.4437 42.635C36.3359 43.7786 33.8959 44.1535 31.5421 43.6954C29.1882 43.2373 27.0669 41.9748 25.5418 40.1243C24.0166 38.2737 23.1826 35.9504 23.1826 33.5523C23.1826 31.1543 24.0166 28.8309 25.5418 26.9804C27.0669 25.1298 29.1882 23.8673 31.5421 23.4093C33.8959 22.9512 36.3359 23.3261 38.4437 24.4697C40.5515 25.6132 42.1959 27.4543 43.0952 29.6773H47.7245V16.5643L47.709 16.2698C47.6206 14.6786 47.3075 13.1079 46.779 11.6043C46.314 10.3643 45.7095 9.39817 44.9965 8.76267C44.361 8.19433 43.4827 7.75 42.0515 7.75C38.0938 7.75 34.1723 9.083 31.3048 11.315L31.31 11.3098ZM55.5417 77.469V86.3453L55.5675 86.4177C55.6708 86.6915 55.8672 87.0997 56.1668 87.6215C56.761 88.6548 57.6703 89.931 58.8432 91.1607C61.2508 93.682 64.2837 95.5317 67.5748 95.5317C72.4935 95.5317 76.2342 93.1137 78.864 89.8225C81.5868 86.4125 82.7907 82.4652 82.7907 80.3003C82.7907 79.2726 83.1989 78.287 83.9256 77.5603C84.6523 76.8336 85.638 76.4253 86.6657 76.4253C87.327 76.4253 89.6107 75.9603 91.698 74.1778C93.5942 72.5452 95.511 69.6518 95.511 64.3767C95.511 58.1353 94.6947 54.9217 93.7078 53.3355C93.399 52.7869 92.9304 52.3454 92.3645 52.0697C91.8427 51.8217 91.0573 51.6357 89.8432 51.6357C89.1418 51.6356 88.4537 51.4452 87.852 51.0848C87.2504 50.7244 86.7579 50.2074 86.4269 49.5891C86.096 48.9707 85.9391 48.2741 85.973 47.5736C86.0068 46.8731 86.2302 46.1949 86.6192 45.6113C87.6938 43.9942 88.3758 41.6123 88.5102 38.7397C88.6213 35.8419 88.2279 32.9468 87.3477 30.1837C86.4693 27.4557 85.2552 25.4303 84.0617 24.304C82.9818 23.2913 82.2327 23.2345 81.53 23.4722C80.9475 23.6671 80.3269 23.7207 79.7196 23.6287C79.1123 23.5366 78.5355 23.3015 78.0369 22.9427C77.5383 22.5839 77.1322 22.1117 76.852 21.565C76.5718 21.0184 76.4255 20.4129 76.4253 19.7987C76.4253 16.43 74.772 13.5057 71.951 11.3098C69.0938 9.083 65.1672 7.74483 61.2043 7.74483C59.7783 7.74483 58.9052 8.19433 58.2645 8.7575C57.4556 9.55079 56.8465 10.5247 56.4872 11.5992C55.9078 13.1928 55.5885 14.8693 55.5417 16.5643V69.719H58.8277C60.6776 69.719 62.4517 68.9841 63.7597 67.6761C65.0678 66.368 65.8027 64.5939 65.8027 62.744V53.4698C63.5796 52.5706 61.7386 50.9261 60.595 48.8183C59.4514 46.7105 59.0765 44.2706 59.5346 41.9167C59.9927 39.5628 61.2552 37.4416 63.1057 35.9164C64.9563 34.3913 67.2796 33.5572 69.6777 33.5572C72.0757 33.5572 74.3991 34.3913 76.2496 35.9164C78.1002 37.4416 79.3627 39.5628 79.8207 41.9167C80.2788 44.2706 79.9039 46.7105 78.7604 48.8183C77.6168 50.9261 75.7757 52.5706 73.5527 53.4698V62.744C73.5527 66.6493 72.0013 70.3947 69.2398 73.1561C66.4783 75.9176 62.733 77.469 58.8277 77.469H55.5417ZM33.511 30.969C32.8259 30.969 32.1688 31.2412 31.6843 31.7256C31.1998 32.2101 30.9277 32.8672 30.9277 33.5523C30.9277 34.2375 31.1998 34.8946 31.6843 35.379C32.1688 35.8635 32.8259 36.1357 33.511 36.1357C34.1961 36.1357 34.8532 35.8635 35.3377 35.379C35.8222 34.8946 36.0943 34.2375 36.0943 33.5523C36.0943 32.8672 35.8222 32.2101 35.3377 31.7256C34.8532 31.2412 34.1961 30.969 33.511 30.969ZM30.9277 69.719C30.9277 70.4041 31.1998 71.0612 31.6843 71.5457C32.1688 72.0302 32.8259 72.3023 33.511 72.3023C34.1961 72.3023 34.8532 72.0302 35.3377 71.5457C35.8222 71.0612 36.0943 70.4041 36.0943 69.719C36.0943 69.0339 35.8222 68.3768 35.3377 67.8923C34.8532 67.4078 34.1961 67.1357 33.511 67.1357C32.8259 67.1357 32.1688 67.4078 31.6843 67.8923C31.1998 68.3768 30.9277 69.0339 30.9277 69.719ZM67.0943 43.8857C67.0943 44.5708 67.3665 45.2279 67.851 45.7124C68.3354 46.1968 68.9925 46.469 69.6777 46.469C70.3628 46.469 71.0199 46.1968 71.5044 45.7124C71.9888 45.2279 72.261 44.5708 72.261 43.8857C72.261 43.2005 71.9888 42.5434 71.5044 42.059C71.0199 41.5745 70.3628 41.3023 69.6777 41.3023C68.9925 41.3023 68.3354 41.5745 67.851 42.059C67.3665 42.5434 67.0943 43.2005 67.0943 43.8857Z" fill="#3671A4"/>
</svg>
